<?xml version="1.0" encoding="utf-8"?>
<!-- Generator: Adobe Adobe Illustrator 29.2.0, SVG Export Plug-In . SVG Version: 6.00 Build 0)  -->
<svg version="1.1" id="Layer_1" xmlns="http://www.w3.org/2000/svg" xmlns:xlink="http://www.w3.org/1999/xlink" x="0px" y="0px"
	 width="800px" height="800px" viewBox="0 0 800 800" style="enable-background:new 0 0 800 800;" xml:space="preserve">
<style type="text/css">
	.st0{fill:#FFFFFF;}
	.st1{fill:#86BC25;}
</style>
<g>
	<g>
		<polygon class="st0" points="683.54,542.1 683.59,542.2 598.37,750 516.29,489.71 436.45,684.48 436.43,684.44 409.53,750 
			261.88,281.7 182.04,476.44 181.99,476.44 155.12,542 0,50 150.72,50 232.9,310.67 339.58,50.07 339.66,50.31 347.1,73.91 
			487.31,518.71 508.88,466.15 508.8,465.87 594,258.07 594.08,258.35 601.51,281.91 676.1,518.5 782.91,258.04 800,258.04 		"/>
		<g>
			<polygon class="st1" points="569.97,50 447.1,294.35 437.97,270.79 549.01,50 			"/>
		</g>
	</g>
</g>
</svg>
