<svg width="802" height="535" viewBox="0 0 802 535" fill="none" xmlns="http://www.w3.org/2000/svg">
<g clip-path="url(#clip0_20_12235)">
<path vector-effect="non-scaling-stroke" d="M563.11 149.446H560.15C557.82 149.446 555.928 147.555 555.928 145.225V122.597C555.928 120.267 557.82 118.375 560.15 118.375H588.068C590.398 118.375 592.29 120.267 592.29 122.597V145.225C592.29 147.555 590.398 149.446 588.068 149.446H574.294L563.11 157.957V149.446Z" stroke="white" stroke-width="1.37057"/>
<path vector-effect="non-scaling-stroke" d="M609.147 133.246H612.313C614.794 133.246 616.823 131.533 616.823 129.422V108.891C616.823 106.781 614.808 105.067 612.313 105.067H582.49C580.009 105.067 577.981 106.781 577.981 108.891V129.422C577.981 131.533 579.995 133.246 582.49 133.246H597.21L609.161 140.962V133.246" fill="#404040"/>
<path vector-effect="non-scaling-stroke" d="M609.147 133.246H612.313C614.794 133.246 616.823 131.533 616.823 129.422V108.891C616.823 106.781 614.808 105.067 612.313 105.067H582.49C580.009 105.067 577.981 106.781 577.981 108.891V129.422C577.981 131.533 579.995 133.246 582.49 133.246H597.21L609.161 140.962V133.246" stroke="white" stroke-width="1.37057" stroke-miterlimit="10"/>
<path vector-effect="non-scaling-stroke" d="M432.262 28.0147L436.648 13.2263L461.346 1.24756L457.947 15.2547L432.262 28.0147Z" fill="#A100FF" stroke="white" stroke-width="1.37057" stroke-miterlimit="10"/>
<path vector-effect="non-scaling-stroke" d="M461.346 1.24707L476.655 24.1903L473.256 38.1838L447.777 49.1894L432.262 28.0142L436.648 13.2121L461.346 1.24707Z" stroke="white" stroke-width="1.37057" stroke-miterlimit="10"/>
<path vector-effect="non-scaling-stroke" d="M461.346 1.24707L457.947 15.2405L473.256 38.1838" stroke="white" stroke-width="1.37057" stroke-miterlimit="10"/>
<path vector-effect="non-scaling-stroke" d="M432.262 28.0144L457.947 15.2407" stroke="white" stroke-width="1.37057" stroke-miterlimit="10"/>
<path vector-effect="non-scaling-stroke" d="M495.076 323.562H307.281V511.357H495.076V323.562Z" stroke="white" stroke-width="1.37057"/>
<path vector-effect="non-scaling-stroke" d="M481.685 323.562H320.671" stroke="white" stroke-width="1.37057"/>
<path vector-effect="non-scaling-stroke" d="M298.523 323.564L54.8912 44.9279C36.9231 24.3831 0.685303 36.0055 0.685303 62.3203V503.423C0.685303 518.801 14.3087 531.259 31.1256 531.259H770.888C787.691 531.259 801.328 518.801 801.328 503.423V62.4026C801.328 36.0877 765.077 24.4653 747.109 45.0375L503.888 323.577" stroke="white" stroke-width="1.37057"/>
<path vector-effect="non-scaling-stroke" d="M50.2311 483.865L41.5417 512.318L107.178 512.099C108.754 507.768 100.901 503.245 98.2558 502.875C88.511 501.546 81.6308 493.884 82.508 485.674L50.2448 483.852L50.2311 483.865Z" fill="#020202" stroke="white" stroke-width="1.37057" stroke-miterlimit="10"/>
<path vector-effect="non-scaling-stroke" d="M57.3717 502.298C59.6955 502.298 61.5793 500.414 61.5793 498.09C61.5793 495.767 59.6955 493.883 57.3717 493.883C55.0479 493.883 53.1641 495.767 53.1641 498.09C53.1641 500.414 55.0479 502.298 57.3717 502.298Z" fill="#020202" stroke="white" stroke-width="1.37057" stroke-miterlimit="10"/>
<path vector-effect="non-scaling-stroke" d="M171.801 483.439L170.471 512.317L236.108 512.098C237.684 507.767 229.831 503.244 227.185 502.874C217.441 501.545 202.529 493.431 203.406 485.221L171.815 483.439H171.801Z" fill="#020202" stroke="white" stroke-width="1.37057" stroke-miterlimit="10"/>
<path vector-effect="non-scaling-stroke" d="M183.176 502.298C185.5 502.298 187.384 500.414 187.384 498.09C187.384 495.767 185.5 493.883 183.176 493.883C180.852 493.883 178.968 495.767 178.968 498.09C178.968 500.414 180.852 502.298 183.176 502.298Z" fill="#020202" stroke="white" stroke-width="1.37057" stroke-miterlimit="10"/>
<path vector-effect="non-scaling-stroke" d="M248.675 195.512C243.618 200.364 164.358 272.305 160.521 268.604C156.299 264.547 136.604 247.566 139.907 241.165C141.538 237.999 145.033 236.368 148.227 234.792C168.073 225.02 216.056 188.344 233.49 170.019C233.709 169.786 247.524 194.127 248.689 195.498L248.675 195.512Z" fill="#202020" stroke="white" stroke-width="1.37057" stroke-miterlimit="10"/>
<path vector-effect="non-scaling-stroke" d="M216.603 282.389L338.797 245.217L301.625 123.023L179.431 160.195L216.603 282.389Z" fill="#202020" stroke="white" stroke-width="1.37057" stroke-miterlimit="10"/>
<path vector-effect="non-scaling-stroke" d="M283.159 272.525C283.159 272.525 283.2 272.457 283.2 272.429C284.53 269.976 286.133 265.919 289.642 264.329C294.453 262.15 304.362 260.039 308.295 256.531C308.679 256.188 309.09 255.681 308.885 255.201C308.748 254.872 308.364 254.694 308.008 254.708C307.706 254.708 306.651 254.831 305.623 255.009C305.472 255.037 305.321 255.078 305.184 255.091H305.006C304.513 255.215 304.019 255.283 303.526 255.366C300.867 255.777 298.167 256.065 295.44 256.243L305.006 255.119C305.212 255.091 305.417 255.05 305.623 255.009C306.596 254.817 307.555 254.571 308.487 254.255C310.077 253.721 311.585 252.926 312.764 251.788C313.106 251.459 313.449 251.021 313.339 250.527C313.243 250.144 312.914 249.856 312.544 249.678C311.585 249.198 310.461 249.239 309.447 249.431C305.472 250.144 303.8 250.76 296.235 251.501C300.812 250.952 310.941 249.047 314.682 247.074C315.148 246.827 315.628 246.525 315.861 246.059C316.163 245.456 315.93 244.675 315.45 244.223C314.956 243.757 314.271 243.551 313.6 243.538C312.928 243.51 312.256 243.675 311.599 243.798C308.145 244.524 303.827 246.018 295.549 247.019C298.77 243.647 316.848 240.385 314.038 237.877C311.242 235.369 293.068 241.852 289.149 244.223C285.229 246.608 284.914 244.826 284.914 244.826C288.299 232.929 285.01 233.258 285.01 233.258C283.324 233.204 282.967 233.464 281.83 235.547C280.87 237.315 280.404 241.687 279.623 243.551C274.525 255.681 276.348 252.885 270.523 256.887" fill="#202020"/>
<path vector-effect="non-scaling-stroke" d="M283.749 272.867C284.996 270.345 286.27 267.495 288.573 265.768C289.669 264.932 291.026 264.479 292.315 264.013C293.74 263.506 295.179 263.04 296.618 262.561C299.592 261.587 302.594 260.601 305.403 259.216C306.555 258.641 307.692 257.983 308.665 257.133C309.173 256.681 309.693 256.078 309.625 255.351C309.556 254.625 308.939 254.118 308.241 254.036C307.446 253.953 306.541 254.173 305.76 254.296C304.855 254.447 303.937 254.611 303.032 254.748C300.511 255.132 297.989 255.379 295.453 255.543V256.914C298.647 256.544 301.84 256.215 305.02 255.79C306.952 255.53 308.912 254.968 310.653 254.09C311.873 253.474 314.257 252.185 314.052 250.527C313.819 248.704 311.242 248.499 309.858 248.677C308.652 248.841 307.473 249.115 306.281 249.348C302.964 250.02 299.633 250.472 296.262 250.801V252.172C299.044 251.829 301.813 251.349 304.567 250.774C307.5 250.171 310.475 249.499 313.271 248.43C314.381 248.005 315.888 247.512 316.464 246.388C317.19 245.004 316.135 243.482 314.792 243.03C313.38 242.564 311.818 243.016 310.42 243.345C309.323 243.606 308.241 243.893 307.144 244.154C303.32 245.1 299.469 245.826 295.549 246.306L296.029 247.471C296.961 246.525 298.331 245.977 299.537 245.483C301.319 244.743 303.156 244.126 304.992 243.51C306.829 242.893 308.624 242.304 310.42 241.632C311.667 241.152 313.024 240.673 314.093 239.864C314.847 239.288 315.395 238.356 314.668 237.507C313.942 236.657 312.667 236.588 311.653 236.602C307.898 236.602 304.047 237.836 300.511 238.946C296.974 240.056 293.288 241.344 289.916 243.03C289.19 243.386 288.504 243.839 287.778 244.209C287.189 244.51 286.216 244.935 285.654 244.702C285.667 244.702 285.544 244.688 285.571 244.592C285.421 245.058 285.654 244.565 285.599 244.647L285.681 244.675C285.804 244.414 285.859 244.017 285.941 243.743C286.298 242.386 286.627 241.002 286.846 239.617C287.106 238.014 287.326 236.3 286.983 234.683C286.832 233.971 286.503 233.203 285.859 232.806C285.434 232.545 284.941 232.545 284.461 232.559C282.351 232.641 281.323 234.697 280.733 236.506C280.007 238.754 279.856 241.166 278.993 243.373C278.061 245.757 277.06 248.142 276.032 250.5C275.607 251.459 275.141 252.597 274.47 253.337C273.826 254.022 273.017 254.474 272.195 254.995C271.523 255.42 270.865 255.858 270.207 256.297C269.481 256.79 270.166 257.983 270.893 257.476C272.674 256.256 274.908 255.283 276.101 253.405C276.827 252.268 277.307 250.966 277.828 249.732C278.294 248.622 278.746 247.498 279.212 246.388C279.719 245.154 280.322 243.935 280.678 242.646C281.281 240.481 281.405 238.069 282.378 236.026C282.734 235.273 283.241 234.094 284.173 233.943C284.489 233.888 284.818 233.916 285.133 233.943C285.009 233.902 284.927 233.943 285.133 233.943C285.064 233.902 285.092 233.888 285.215 233.998C285.119 233.916 285.256 233.998 285.325 234.121C285.242 234.012 285.448 234.313 285.489 234.409C285.9 235.259 285.818 236.725 285.736 237.753C285.626 238.932 285.407 240.097 285.16 241.248C285.009 241.961 284.831 242.66 284.653 243.359C284.53 243.852 284.201 244.496 284.31 245.004C284.53 246.031 285.777 246.21 286.64 246.059C288.312 245.757 289.738 244.62 291.259 243.907C292.781 243.194 294.412 242.55 296.029 241.947C299.853 240.522 303.772 239.247 307.775 238.452C309.255 238.151 310.79 237.89 312.297 237.986C312.736 238.014 313.188 238.096 313.531 238.288C313.641 238.343 313.723 238.493 313.736 238.493C313.682 238.493 313.736 238.356 313.723 238.384C313.558 238.521 313.257 238.85 312.928 239.055C312.38 239.384 311.804 239.645 311.228 239.891C309.638 240.563 307.98 241.111 306.349 241.659C303.073 242.77 299.524 243.715 296.522 245.483C296.029 245.771 295.535 246.114 295.138 246.525C294.768 246.909 295.001 247.772 295.618 247.69C298.838 247.292 302.046 246.772 305.212 246.045C307.267 245.579 309.296 245.017 311.352 244.551C312.325 244.332 315.367 243.592 315.367 245.401C315.367 246.429 313.229 247.018 312.421 247.306C309.913 248.197 307.309 248.814 304.704 249.362C301.922 249.951 299.113 250.472 296.289 250.815C295.426 250.924 295.398 252.268 296.289 252.185C299.181 251.898 302.059 251.569 304.924 251.034C305.856 250.856 306.801 250.664 307.733 250.472C309.008 250.212 310.475 249.759 311.749 250.102C312.284 250.239 312.887 250.554 312.503 251.13C312.284 251.445 311.873 251.733 311.571 251.952C310.831 252.501 310.009 252.953 309.145 253.309C307.816 253.857 306.349 254.255 304.924 254.447C303.348 254.666 301.771 254.817 300.195 255.009C298.619 255.201 297.057 255.379 295.494 255.557C294.645 255.653 294.603 256.982 295.494 256.928C299.195 256.681 302.813 256.119 306.486 255.571C306.897 255.516 307.309 255.447 307.72 255.42C308.227 255.379 308.227 255.653 307.884 256.05C307.514 256.462 306.938 256.79 306.472 257.078C305.335 257.791 304.115 258.367 302.882 258.887C300.182 260.011 297.399 260.875 294.617 261.793C292.26 262.574 289.573 263.26 287.614 264.822C285.27 266.686 283.927 269.537 282.625 272.168C282.241 272.949 283.42 273.648 283.803 272.853L283.749 272.867Z" fill="white"/>
<path vector-effect="non-scaling-stroke" d="M295.44 256.257C298.167 256.079 300.867 255.791 303.526 255.38C304.02 255.297 304.527 255.229 305.006 255.133L295.44 256.257Z" fill="#202020"/>
<path vector-effect="non-scaling-stroke" d="M295.439 256.942C298.688 256.723 301.991 256.435 305.198 255.791C305.938 255.64 305.787 254.352 305.02 254.447C302.224 254.776 299.428 255.105 296.645 255.434L295.453 255.571C295.083 255.612 294.768 255.859 294.768 256.257C294.768 256.599 295.083 256.983 295.453 256.942C298.249 256.613 301.045 256.284 303.827 255.955L305.02 255.818L304.841 254.475C301.758 255.092 298.592 255.366 295.453 255.571C294.576 255.626 294.576 256.997 295.453 256.942H295.439Z" fill="white"/>
<path vector-effect="non-scaling-stroke" d="M311.68 248.223C306.335 250.292 300.647 251.457 294.918 251.635Z" fill="#202020"/>
<path vector-effect="non-scaling-stroke" d="M311.502 247.565C306.198 249.607 300.606 250.758 294.918 250.964C294.041 250.991 294.041 252.362 294.918 252.334C300.716 252.129 306.445 250.977 311.859 248.894C312.667 248.579 312.325 247.249 311.489 247.578L311.502 247.565Z" fill="white"/>
<path vector-effect="non-scaling-stroke" d="M150.79 237.135L149.474 225.349C149.474 225.349 161.905 231.009 166.167 225.76C169.155 222.073 167.003 217.207 164.824 211.191L165.372 211.245C166.784 211.41 167.702 209.806 166.866 208.669C165.496 206.832 163.837 205.009 162.604 203.721C162.549 203.433 162.48 203.132 162.439 202.844C160.644 192.866 150.406 189.933 145.266 189.522C140.127 189.125 132.849 188.22 128.285 194.442C123.652 200.774 131.78 209.368 132.808 223.951C133.013 226.952 132.588 231.42 129.861 237.78L150.776 237.108L150.79 237.135Z" fill="#202020" stroke="white" stroke-width="1.37057" stroke-miterlimit="10"/>
<path vector-effect="non-scaling-stroke" d="M167.702 464.785C167.771 466.306 168.292 478.066 168.675 489.4H218.427C217.097 463.236 214.439 422.01 213.644 415.774C212.616 407.769 211.451 399.628 207.983 392.351C205.201 386.512 201.021 381.468 196.895 376.493C185.807 363.116 174.706 349.753 163.618 336.377C153.366 324.014 147.665 314.242 132.767 307.252C123.625 302.962 112.523 298.467 103.313 304.36C99.9141 306.54 96.9537 309.473 94.6101 312.844L39.6504 489.373H94.6101C104.725 464.621 117.17 409.469 127.312 383.017C128.696 383.963 130.053 384.854 131.355 385.69C139.482 390.87 148.048 395.53 155.093 402.109C155.71 402.685 156.285 403.26 156.834 403.863C171.184 419.419 166.839 444.61 167.716 464.758L167.702 464.785Z" fill="#020202" stroke="white" stroke-width="1.37057"/>
<path vector-effect="non-scaling-stroke" d="M291.054 276.689C284.31 266.547 278.184 256.775 269.591 248.141C254.09 258.858 234.751 269.165 215.316 269.014C198.897 268.891 177.708 253.349 164.18 244.796C162.645 243.823 161.151 242.713 159.658 241.548C159.493 241.301 159.315 241.055 159.137 240.808C150.297 228.637 130.643 231.543 119.788 239.753C114.977 243.385 111.373 248.744 108.371 253.883C103.382 262.394 96.3237 306.965 92.1572 315.901L94.6242 317.313C95.474 317.738 96.3375 318.122 97.1872 318.478C117.91 327.25 140.771 330.964 163.207 329.196C165.414 316.559 166.661 303.758 166.922 290.943C180.614 297.481 192.921 306.773 208.779 305.924C224.992 305.046 240.781 299.866 255.844 293.767C258.859 292.547 291.876 277.895 291.081 276.662L291.054 276.689Z" fill="#202020" stroke="white" stroke-width="1.37057" stroke-miterlimit="10"/>
<path vector-effect="non-scaling-stroke" d="M153.147 187.753C147.253 184.368 140.524 185.56 135.206 189.165C133.589 181.983 126.681 177.159 119.28 178.255C111.523 179.407 106.178 186.616 107.329 194.373C108.48 202.131 115.689 207.476 123.447 206.325C124.269 206.201 125.05 206.009 125.804 205.763C125.804 205.831 125.804 205.9 125.804 205.982C125.969 211.19 128.298 215.343 131.506 219.359C131.889 219.838 138.934 214.096 138.441 203.063C139.962 204.104 143.018 204.077 144.814 204.049C148.514 203.981 153.435 203.611 156.464 201.212C161.905 196.922 157.944 190.522 153.133 187.767L153.147 187.753Z" fill="#A2A2A0" stroke="white" stroke-width="1.37057" stroke-miterlimit="10"/>
<path vector-effect="non-scaling-stroke" d="M165.976 214.48C161.275 215.906 159.123 212.246 159.109 212.205" stroke="white" stroke-width="1.37057" stroke-miterlimit="10"/>
<path vector-effect="non-scaling-stroke" d="M311.68 114.386C321.793 114.386 329.991 106.145 329.991 95.979C329.991 85.8132 321.793 77.5723 311.68 77.5723C301.567 77.5723 293.369 85.8132 293.369 95.979C293.369 106.145 301.567 114.386 311.68 114.386Z" fill="#020202" stroke="white" stroke-width="1.37057"/>
<path vector-effect="non-scaling-stroke" d="M320.26 100.598C318.67 103.737 315.435 105.889 311.694 105.889C307.952 105.889 304.704 103.737 303.128 100.598" fill="#020202"/>
<path vector-effect="non-scaling-stroke" d="M320.26 100.598C318.67 103.737 315.435 105.889 311.694 105.889C307.952 105.889 304.704 103.737 303.128 100.598" stroke="white" stroke-width="1.37057"/>
<path vector-effect="non-scaling-stroke" d="M303.319 90.991C303.319 89.5108 304.525 88.3047 306.005 88.3047C307.486 88.3047 308.692 89.5108 308.692 90.991" fill="#020202"/>
<path vector-effect="non-scaling-stroke" d="M303.319 90.991C303.319 89.5108 304.525 88.3047 306.005 88.3047C307.486 88.3047 308.692 89.5108 308.692 90.991" stroke="white" stroke-width="1.37057"/>
<path vector-effect="non-scaling-stroke" d="M315.326 90.991C315.326 89.5108 316.532 88.3047 318.012 88.3047C319.492 88.3047 320.698 89.5108 320.698 90.991" fill="#020202"/>
<path vector-effect="non-scaling-stroke" d="M315.326 90.991C315.326 89.5108 316.532 88.3047 318.012 88.3047C319.492 88.3047 320.698 89.5108 320.698 90.991" stroke="white" stroke-width="1.37057"/>
<path vector-effect="non-scaling-stroke" d="M393.421 166.715H387.294C386.088 166.715 385.348 165.002 386.047 163.659C386.76 162.302 389.83 151.941 387.692 147.281C386.664 145.033 384.32 143.854 382.429 144.458C380.853 144.965 379.934 146.486 380.222 149.501C380.784 154.189 378.427 158.862 375.768 160.987C373.027 163.166 370.957 162.905 368.819 164.536C368.23 164.989 367.037 166.318 366.517 167.716C365.968 169.169 365.914 170.676 365.914 170.676C365.914 170.676 362.007 170.69 359.965 170.718" fill="#020202"/>
<path vector-effect="non-scaling-stroke" d="M393.421 166.715H387.294C386.088 166.715 385.348 165.002 386.047 163.659C386.76 162.302 389.83 151.941 387.692 147.281C386.664 145.033 384.32 143.854 382.429 144.458C380.853 144.965 379.934 146.486 380.222 149.501C380.784 154.189 378.427 158.862 375.768 160.987C373.027 163.166 370.957 162.905 368.819 164.536C368.23 164.989 367.037 166.318 366.517 167.716C365.968 169.169 365.914 170.676 365.914 170.676C365.914 170.676 362.007 170.69 359.965 170.718" stroke="white" stroke-width="1.37057"/>
<path vector-effect="non-scaling-stroke" d="M391.42 197.868H371.382C367.462 197.868 362.473 194.03 359.979 193.976" fill="#020202"/>
<path vector-effect="non-scaling-stroke" d="M391.42 197.868H371.382C367.462 197.868 362.473 194.03 359.979 193.976" stroke="white" stroke-width="1.37057"/>
<path vector-effect="non-scaling-stroke" d="M349.686 166.716H359.979V197.869H349.686" fill="#020202"/>
<path vector-effect="non-scaling-stroke" d="M349.686 166.716H359.979V197.869H349.686" stroke="white" stroke-width="1.37057"/>
<path vector-effect="non-scaling-stroke" d="M394.243 190.068H403.467C405.619 190.068 407.359 188.328 407.359 186.176C407.359 184.024 405.619 182.284 403.467 182.284" fill="#020202"/>
<path vector-effect="non-scaling-stroke" d="M394.243 190.068H403.467C405.619 190.068 407.359 188.328 407.359 186.176C407.359 184.024 405.619 182.284 403.467 182.284" stroke="white" stroke-width="1.37057"/>
<path vector-effect="non-scaling-stroke" d="M396.244 182.284H404.125C406.277 182.284 408.017 180.53 408.017 178.392C408.017 176.24 406.277 174.5 404.125 174.5H396.244" fill="#020202"/>
<path vector-effect="non-scaling-stroke" d="M396.244 182.284H404.125C406.277 182.284 408.017 180.53 408.017 178.392C408.017 176.24 406.277 174.5 404.125 174.5H396.244" stroke="white" stroke-width="1.37057"/>
<path vector-effect="non-scaling-stroke" d="M402.165 174.499C404.317 174.499 406.057 172.758 406.057 170.606C406.057 168.454 404.317 166.714 402.165 166.714H393.435" fill="#020202"/>
<path vector-effect="non-scaling-stroke" d="M402.165 174.499C404.317 174.499 406.057 172.758 406.057 170.606C406.057 168.454 404.317 166.714 402.165 166.714H393.435" stroke="white" stroke-width="1.37057"/>
<path vector-effect="non-scaling-stroke" d="M391.42 197.866H398.917C401.069 197.866 402.81 196.126 402.81 193.974C402.81 191.822 401.069 190.082 398.917 190.082" fill="#020202"/>
<path vector-effect="non-scaling-stroke" d="M391.42 197.866H398.917C401.069 197.866 402.81 196.126 402.81 193.974C402.81 191.822 401.069 190.082 398.917 190.082" stroke="white" stroke-width="1.37057"/>
<path vector-effect="non-scaling-stroke" d="M717.477 10.6489L716.175 12.6362C712.735 17.8992 707.143 18.05 702.661 18.1733C697.96 18.2967 694.972 18.5297 692.985 21.5586C691.011 24.5876 691.985 27.4109 693.753 31.7693C695.438 35.9359 697.535 41.1166 694.095 46.3796C690.655 51.6425 685.063 51.7933 680.581 51.9167C675.88 52.04 672.893 52.2867 670.905 55.3019C668.932 58.3309 669.905 61.1543 671.673 65.5127C673.359 69.6792 675.456 74.8599 672.015 80.1092C668.575 85.3722 662.983 85.5229 658.488 85.6463C653.787 85.7833 650.799 86.0163 648.812 89.0316C646.824 92.0605 647.811 94.8976 649.579 99.2697C651.265 103.436 653.362 108.617 649.922 113.88L648.62 115.867" fill="#020202"/>
<path vector-effect="non-scaling-stroke" d="M717.477 10.6489L716.175 12.6362C712.735 17.8992 707.143 18.05 702.661 18.1733C697.96 18.2967 694.972 18.5297 692.985 21.5586C691.011 24.5876 691.985 27.4109 693.753 31.7693C695.438 35.9359 697.535 41.1166 694.095 46.3796C690.655 51.6425 685.063 51.7933 680.581 51.9167C675.88 52.04 672.893 52.2867 670.905 55.3019C668.932 58.3309 669.905 61.1543 671.673 65.5127C673.359 69.6792 675.456 74.8599 672.015 80.1092C668.575 85.3722 662.983 85.5229 658.488 85.6463C653.787 85.7833 650.799 86.0163 648.812 89.0316C646.824 92.0605 647.811 94.8976 649.579 99.2697C651.265 103.436 653.362 108.617 649.922 113.88L648.62 115.867" stroke="white" stroke-width="1.37057" stroke-miterlimit="10"/>
<path vector-effect="non-scaling-stroke" d="M492.938 250.088L492.266 251.267C490.484 254.364 487.318 254.652 484.783 254.871C482.11 255.104 480.424 255.337 479.397 257.119C478.369 258.901 479.027 260.477 480.178 262.889C481.274 265.192 482.645 268.07 480.863 271.181C479.081 274.278 475.915 274.566 473.366 274.785C470.693 275.018 469.008 275.251 467.98 277.033C466.952 278.815 467.61 280.391 468.761 282.803C469.857 285.106 471.228 287.984 469.446 291.082C467.665 294.179 464.498 294.467 461.949 294.686C459.277 294.919 457.591 295.152 456.563 296.934C455.535 298.729 456.193 300.305 457.344 302.718C458.441 305.02 459.811 307.898 458.029 311.01L457.358 312.188" fill="#020202"/>
<path vector-effect="non-scaling-stroke" d="M492.938 250.088L492.266 251.267C490.484 254.364 487.318 254.652 484.783 254.871C482.11 255.104 480.424 255.337 479.397 257.119C478.369 258.901 479.027 260.477 480.178 262.889C481.274 265.192 482.645 268.07 480.863 271.181C479.081 274.278 475.915 274.566 473.366 274.785C470.693 275.018 469.008 275.251 467.98 277.033C466.952 278.815 467.61 280.391 468.761 282.803C469.857 285.106 471.228 287.984 469.446 291.082C467.665 294.179 464.498 294.467 461.949 294.686C459.277 294.919 457.591 295.152 456.563 296.934C455.535 298.729 456.193 300.305 457.344 302.718C458.441 305.02 459.811 307.898 458.029 311.01L457.358 312.188" stroke="white" stroke-width="1.37057" stroke-miterlimit="10"/>
<path vector-effect="non-scaling-stroke" d="M526.489 18.8052L526.242 19.792C525.584 22.4098 523.337 23.2595 521.527 23.9311C519.636 24.6438 518.457 25.1509 518.074 26.6585C517.69 28.1661 518.485 29.1804 519.814 30.7017C521.089 32.1545 522.665 33.9636 522.007 36.5951C521.349 39.2129 519.102 40.0626 517.292 40.7479C515.401 41.4606 514.222 41.9677 513.839 43.4754C513.455 44.983 514.25 45.9972 515.579 47.5185C516.854 48.9713 518.43 50.7805 517.772 53.3982C517.114 56.016 514.866 56.8658 513.057 57.5511C511.166 58.2638 509.987 58.7709 509.604 60.2785C509.22 61.7861 510.015 62.8003 511.344 64.3354C512.619 65.7882 514.195 67.5973 513.523 70.2288L513.277 71.2156" fill="#020202"/>
<path vector-effect="non-scaling-stroke" d="M526.489 18.8052L526.242 19.792C525.584 22.4098 523.337 23.2595 521.527 23.9311C519.636 24.6438 518.457 25.1509 518.074 26.6585C517.69 28.1661 518.485 29.1804 519.814 30.7017C521.089 32.1545 522.665 33.9636 522.007 36.5951C521.349 39.2129 519.102 40.0626 517.292 40.7479C515.401 41.4606 514.222 41.9677 513.839 43.4754C513.455 44.983 514.25 45.9972 515.579 47.5185C516.854 48.9713 518.43 50.7805 517.772 53.3982C517.114 56.016 514.866 56.8658 513.057 57.5511C511.166 58.2638 509.987 58.7709 509.604 60.2785C509.22 61.7861 510.015 62.8003 511.344 64.3354C512.619 65.7882 514.195 67.5973 513.523 70.2288L513.277 71.2156" stroke="white" stroke-width="1.37057" stroke-miterlimit="10"/>
<path vector-effect="non-scaling-stroke" d="M78.7254 4.23438L80.0137 6.22169C83.4401 11.4847 81.3294 16.6654 79.6299 20.8182C77.8482 25.1766 76.8614 28 78.8213 31.0426C80.7812 34.0853 83.7828 34.3183 88.4838 34.4553C92.9792 34.5924 98.5712 34.7706 101.984 40.0335C105.41 45.2965 103.3 50.4773 101.6 54.6438C99.8184 59.0022 98.8316 61.8255 100.805 64.8545C102.779 67.8834 105.767 68.1301 110.468 68.2672C114.963 68.4042 120.541 68.5687 123.968 73.8454C127.394 79.1221 125.283 84.2891 123.584 88.4556C121.802 92.814 120.815 95.6374 122.789 98.6663C124.763 101.695 127.75 101.956 132.465 102.093C136.961 102.23 142.539 102.408 145.965 107.671L147.254 109.658" fill="#020202"/>
<path vector-effect="non-scaling-stroke" d="M78.7254 4.23438L80.0137 6.22169C83.4401 11.4847 81.3294 16.6654 79.6299 20.8182C77.8482 25.1766 76.8614 28 78.8213 31.0426C80.7812 34.0853 83.7828 34.3183 88.4838 34.4553C92.9792 34.5924 98.5712 34.7706 101.984 40.0335C105.41 45.2965 103.3 50.4773 101.6 54.6438C99.8184 59.0022 98.8316 61.8255 100.805 64.8545C102.779 67.8834 105.767 68.1301 110.468 68.2672C114.963 68.4042 120.541 68.5687 123.968 73.8454C127.394 79.1221 125.283 84.2891 123.584 88.4556C121.802 92.814 120.815 95.6374 122.789 98.6663C124.763 101.695 127.75 101.956 132.465 102.093C136.961 102.23 142.539 102.408 145.965 107.671L147.254 109.658" stroke="white" stroke-width="1.37057" stroke-miterlimit="10"/>
<path vector-effect="non-scaling-stroke" d="M264.218 209.944L266.876 218.647" stroke="white" stroke-width="1.37057" stroke-miterlimit="10"/>
<path vector-effect="non-scaling-stroke" d="M271.399 233.531C268.685 234.353 265.821 232.832 264.998 230.118L262.079 220.511L271.906 217.523L274.825 227.131C275.648 229.844 274.126 232.709 271.413 233.531H271.399Z" stroke="white" stroke-width="1.37057" stroke-miterlimit="10"/>
<path vector-effect="non-scaling-stroke" d="M239.205 203.159C239.205 203.159 239.15 203.077 239.109 203.063" stroke="white" stroke-width="1.37057" stroke-miterlimit="10"/>
<path vector-effect="non-scaling-stroke" d="M219.386 175.487C220.537 179.27 218.399 183.272 214.617 184.423C210.834 185.574 206.832 183.436 205.681 179.654C204.529 175.871 206.667 171.869 210.45 170.717C214.233 169.566 218.235 171.704 219.386 175.487Z" stroke="white" stroke-width="1.37057" stroke-miterlimit="10"/>
<path vector-effect="non-scaling-stroke" d="M251.773 204.022C253.39 207.627 251.786 211.862 248.182 213.493C244.577 215.11 240.342 213.506 238.711 209.902C237.094 206.297 238.697 202.062 242.302 200.431C245.907 198.814 250.142 200.417 251.773 204.022Z" fill="#A100FF" stroke="white" stroke-width="1.37057" stroke-miterlimit="10"/>
<path vector-effect="non-scaling-stroke" d="M274.963 163.194C276.114 166.976 273.976 170.978 270.193 172.13C266.41 173.281 262.408 171.143 261.257 167.36C260.106 163.577 262.244 159.575 266.027 158.424C269.809 157.273 273.811 159.411 274.963 163.194Z" stroke="white" stroke-width="1.37057" stroke-miterlimit="10"/>
<path vector-effect="non-scaling-stroke" d="M301.565 204.462C305.517 204.462 308.72 201.258 308.72 197.307C308.72 193.356 305.517 190.153 301.565 190.153C297.614 190.153 294.411 193.356 294.411 197.307C294.411 201.258 297.614 204.462 301.565 204.462Z" stroke="white" stroke-width="1.37057" stroke-miterlimit="10"/>
<path vector-effect="non-scaling-stroke" d="M264.67 171.553L248.717 200.678" stroke="white" stroke-width="1.37057" stroke-miterlimit="10"/>
<path vector-effect="non-scaling-stroke" d="M239.917 202.186L217.838 182.327" stroke="white" stroke-width="1.37057" stroke-miterlimit="10"/>
<path vector-effect="non-scaling-stroke" d="M296.426 192.359L273.264 170.224" stroke="white" stroke-width="1.37057" stroke-miterlimit="10"/>
<path vector-effect="non-scaling-stroke" d="M274.182 169.279C274.182 169.279 274.127 169.196 274.086 169.182" stroke="white" stroke-width="1.37057" stroke-miterlimit="10"/>
<path vector-effect="non-scaling-stroke" d="M257.79 211.011C259.887 210.943 262.039 210.6 264.163 209.956C274.182 206.913 280.815 197.977 281.377 188.041" stroke="white" stroke-width="1.37057" stroke-miterlimit="10"/>
<path vector-effect="non-scaling-stroke" d="M232.681 187.547C232.283 176.761 239.164 166.619 249.991 163.316C251.732 162.781 253.513 162.466 255.24 162.329" stroke="white" stroke-width="1.37057" stroke-miterlimit="10"/>
<path vector-effect="non-scaling-stroke" d="M281.419 186.424C281.419 186.972 281.419 187.52 281.377 188.055" stroke="white" stroke-width="1.37057" stroke-miterlimit="10"/>
<path vector-effect="non-scaling-stroke" d="M205.366 71.2295L213.754 59.1548H249.512L257.899 71.2295L231.626 100.669L205.366 71.2295Z" fill="#020202" stroke="white" stroke-width="1.37057"/>
<path vector-effect="non-scaling-stroke" d="M234.915 59.1548L242.056 71.2295L231.626 100.669" fill="#020202"/>
<path vector-effect="non-scaling-stroke" d="M234.915 59.1548L242.056 71.2295L231.626 100.669" stroke="white" stroke-width="1.37057"/>
<path vector-effect="non-scaling-stroke" d="M231.626 100.669L221.47 71.2295L228.35 59.1548" fill="#020202"/>
<path vector-effect="non-scaling-stroke" d="M231.626 100.669L221.47 71.2295L228.35 59.1548" stroke="white" stroke-width="1.37057"/>
<path vector-effect="non-scaling-stroke" d="M205.366 71.229H257.899" stroke="white" stroke-width="1.37057"/>
<path vector-effect="non-scaling-stroke" d="M221.47 71.2295L213.754 59.1548" stroke="white" stroke-width="1.37057"/>
<path vector-effect="non-scaling-stroke" d="M242.056 71.2295L249.512 59.1548" stroke="white" stroke-width="1.37057"/>
<path vector-effect="non-scaling-stroke" d="M231.626 53.5213V46.7919V45.6543" fill="#020202"/>
<path vector-effect="non-scaling-stroke" d="M231.626 53.5213V46.7919V45.6543" stroke="white" stroke-width="1.37057"/>
<path vector-effect="non-scaling-stroke" d="M222.84 53.5221L219.071 47.9165" stroke="white" stroke-width="1.37057"/>
<path vector-effect="non-scaling-stroke" d="M244.18 47.9165L240.425 53.5221" stroke="white" stroke-width="1.37057"/>
<path vector-effect="non-scaling-stroke" d="M495.076 348C511.934 345.752 523.022 347.123 525.434 352.729C528.517 359.869 516.991 372.492 495.884 387.157C474.778 401.822 444.077 418.502 408.785 433.743C369.683 450.628 333.143 462.182 307.281 466.719C286.462 470.364 272.564 469.446 269.823 463.087C266.383 455.11 281.199 440.239 307.281 423.354" stroke="white" stroke-width="1.37057"/>
<path vector-effect="non-scaling-stroke" d="M496.775 423.313C510.604 433.564 517.731 443.501 515.456 451.409C510.015 470.296 452.849 470.419 387.774 451.67C322.7 432.92 274.36 402.411 279.801 383.511C281.843 376.426 291.163 371.985 305.431 370.189" stroke="white" stroke-width="1.37057"/>
<path vector-effect="non-scaling-stroke" d="M364.79 52.7256C364.913 58.3997 362.282 62.3332 359.39 64.9373C354.785 69.0764 352.003 74.8739 352.153 81.1922V81.3293L365.448 81.5623" stroke="white" stroke-width="1.37057" stroke-linecap="round" stroke-linejoin="round"/>
<path vector-effect="non-scaling-stroke" d="M386.966 53.1094C387.089 58.7835 389.912 62.813 392.928 65.513C397.725 69.8166 400.767 75.7237 400.918 82.042V82.1791L387.678 81.9461" stroke="white" stroke-width="1.37057" stroke-linecap="round" stroke-linejoin="round"/>
<path vector-effect="non-scaling-stroke" d="M373.616 32.3046L374.356 31.6194C374.932 31.0985 375.823 31.1123 376.412 31.6605L377.193 32.3732C383.265 37.924 386.842 45.6951 387.02 53.7677L387.733 85.3592C387.76 86.4146 386.924 87.2643 385.855 87.2369L367.435 86.908C366.379 86.8943 365.502 86.0171 365.475 84.9618L364.749 53.3702C364.57 45.2976 367.777 37.6636 373.602 32.3046H373.616Z" stroke="white" stroke-width="1.37057" stroke-linecap="round" stroke-linejoin="round"/>
<path vector-effect="non-scaling-stroke" d="M370.628 86.9634L369.614 92.2675L383.936 92.5142L382.675 87.1827" stroke="white" stroke-width="1.37057" stroke-linecap="round" stroke-linejoin="round"/>
<path vector-effect="non-scaling-stroke" d="M379.428 56.4499C381.307 54.561 381.233 51.4414 379.264 49.4823C377.294 47.5231 374.175 47.4662 372.295 49.3551C370.416 51.2441 370.49 54.3636 372.459 56.3228C374.429 58.282 377.548 58.3389 379.428 56.4499Z" stroke="white" stroke-width="1.37057" stroke-linecap="round" stroke-linejoin="round"/>
<path vector-effect="non-scaling-stroke" d="M379.441 92.4443L379.66 102.367" stroke="white" stroke-width="1.37057" stroke-linecap="round" stroke-linejoin="round"/>
<path vector-effect="non-scaling-stroke" d="M374.11 92.3491L374.274 99.6131" stroke="white" stroke-width="1.37057" stroke-linecap="round" stroke-linejoin="round"/>
<path vector-effect="non-scaling-stroke" d="M374.343 102.271L374.398 104.93" stroke="white" stroke-width="1.37057" stroke-linecap="round" stroke-linejoin="round"/>
<path vector-effect="non-scaling-stroke" d="M354.661 227.334C351.138 240.286 357.292 255.225 368.915 261.927C370.779 262.996 372.821 263.887 374.959 263.942C377.097 263.997 379.372 263.037 380.427 261.16C382.195 257.994 379.304 253.663 375.699 253.306C372.094 252.95 368.723 255.76 367.489 259.159C366.242 262.558 366.749 266.354 367.818 269.808C370.792 279.443 379.633 288.119 389.679 287.241" fill="#020202"/>
<path vector-effect="non-scaling-stroke" d="M354.003 227.143C351.988 234.681 353.098 242.808 356.634 249.73C358.416 253.211 360.828 256.404 363.748 259.008C366.667 261.612 370.587 264.381 374.671 264.6C378.44 264.806 382.332 262.037 381.524 257.939C380.825 254.417 377.303 252.101 373.821 252.704C369.682 253.417 366.831 257.323 366.242 261.284C365.584 265.642 366.873 270.206 368.791 274.098C372.629 281.911 380.523 288.64 389.665 287.914C390.542 287.845 390.542 286.475 389.665 286.543C382.415 287.119 375.973 282.678 372.012 276.894C368.051 271.111 364.323 260.53 371.053 255.418C372.423 254.376 374.219 253.732 375.946 254.033C377.481 254.294 378.824 255.376 379.591 256.706C380.359 258.035 380.551 259.776 379.632 261.119C378.55 262.695 376.494 263.339 374.657 263.23C370.97 263.01 367.38 260.42 364.693 258.035C362.007 255.651 359.965 253.005 358.306 249.99C354.551 243.192 353.29 235.037 355.305 227.499C355.538 226.649 354.208 226.279 353.989 227.129L354.003 227.143Z" fill="white"/>
<path vector-effect="non-scaling-stroke" d="M321.069 32.7847C321.069 39.4593 318.369 45.5035 313.983 49.8756L296.892 32.7847H321.069Z" fill="#020202" stroke="white" stroke-width="1.37057" stroke-miterlimit="10"/>
<path vector-effect="non-scaling-stroke" d="M321.069 32.7842H296.892V8.59375C310.241 8.59375 321.069 19.4212 321.069 32.7705V32.7842Z" fill="#020202" stroke="white" stroke-width="1.37057" stroke-miterlimit="10"/>
<path vector-effect="non-scaling-stroke" d="M313.983 49.8752C309.61 54.2473 303.566 56.9473 296.892 56.9473C283.529 56.9473 272.715 46.1198 272.715 32.7705C272.715 19.4212 283.542 8.59375 296.892 8.59375V32.7705L313.983 49.8615V49.8752Z" fill="#020202" stroke="white" stroke-width="1.37057" stroke-miterlimit="10"/>
<path vector-effect="non-scaling-stroke" d="M443.926 219.386L408.881 254.432" stroke="white" stroke-width="1.37057" stroke-miterlimit="10"/>
<path vector-effect="non-scaling-stroke" d="M408.881 219.386L443.926 254.432" stroke="white" stroke-width="1.37057" stroke-miterlimit="10"/>
<path vector-effect="non-scaling-stroke" d="M184.04 118.239L156.231 146.048" stroke="white" stroke-width="1.37057" stroke-miterlimit="10"/>
<path vector-effect="non-scaling-stroke" d="M156.231 118.239L184.04 146.048" stroke="white" stroke-width="1.37057" stroke-miterlimit="10"/>
<path vector-effect="non-scaling-stroke" d="M611.464 32.7705V68.7067" stroke="white" stroke-width="1.37057" stroke-miterlimit="10"/>
<path vector-effect="non-scaling-stroke" d="M629.432 50.7388H593.51" stroke="white" stroke-width="1.37057" stroke-miterlimit="10"/>
<path vector-effect="non-scaling-stroke" d="M620.249 41.9531L602.678 59.5238" stroke="white" stroke-width="1.37057" stroke-miterlimit="10"/>
<path vector-effect="non-scaling-stroke" d="M620.249 59.5238L602.678 41.9531" stroke="white" stroke-width="1.37057" stroke-miterlimit="10"/>
<path vector-effect="non-scaling-stroke" d="M162.535 50.0941C169.961 50.0941 175.981 44.0745 175.981 36.6489C175.981 29.2233 169.961 23.2036 162.535 23.2036C155.11 23.2036 149.09 29.2233 149.09 36.6489C149.09 44.0745 155.11 50.0941 162.535 50.0941Z" fill="#020202" stroke="white" stroke-width="1.37057" stroke-miterlimit="10"/>
<path vector-effect="non-scaling-stroke" d="M610.752 474.449L614.959 509.179H557.08C557.08 509.179 554.682 500.49 570.978 494.227C584.505 491.444 583.464 482.563 585.081 475.724C586.712 468.871 610.738 474.449 610.738 474.449H610.752Z" fill="#202020" stroke="white" stroke-width="1.37057" stroke-miterlimit="10"/>
<path vector-effect="non-scaling-stroke" d="M578.859 490.731H589.385" stroke="white" stroke-width="1.37057" stroke-miterlimit="10"/>
<path vector-effect="non-scaling-stroke" d="M582.271 486.716H591.317" stroke="white" stroke-width="1.37057" stroke-miterlimit="10"/>
<path vector-effect="non-scaling-stroke" d="M657.981 476.04L665.191 509.166H720.054C720.054 509.166 722.453 500.477 706.157 494.213C692.629 491.431 688.97 483.866 687.353 477.027C685.722 470.174 657.981 476.04 657.981 476.04Z" fill="#202020" stroke="white" stroke-width="1.37057" stroke-miterlimit="10"/>
<path vector-effect="non-scaling-stroke" d="M683.816 489.265H694.342" stroke="white" stroke-width="1.37057" stroke-miterlimit="10"/>
<path vector-effect="non-scaling-stroke" d="M681.198 484.263H690.244" stroke="white" stroke-width="1.37057" stroke-miterlimit="10"/>
<path vector-effect="non-scaling-stroke" d="M663.436 501.106H717.053" stroke="white" stroke-width="1.37057" stroke-miterlimit="10"/>
<path vector-effect="non-scaling-stroke" d="M598.499 228.857L599.773 217.413C599.773 217.413 587.712 222.909 583.573 217.81C580.668 214.233 582.765 209.518 584.875 203.68L584.355 203.735C582.984 203.899 582.093 202.337 582.915 201.24C584.245 199.459 585.848 197.69 587.055 196.443C587.109 196.169 587.164 195.868 587.219 195.594C588.96 185.904 598.896 183.053 603.885 182.669C608.86 182.285 615.932 181.408 620.359 187.452C624.855 193.606 616.974 201.926 615.974 216.097C615.768 219.016 616.193 223.347 618.824 229.515L598.526 228.871L598.499 228.857Z" fill="#202020" stroke="white" stroke-width="1.37057" stroke-miterlimit="10"/>
<path vector-effect="non-scaling-stroke" d="M566.482 308.061L572.622 255.994L571.389 266.437L560.013 271.988L547.582 246.318C547.582 246.318 567.497 233.188 574.349 230.268C580.311 227.733 597.375 224.265 597.375 224.265H622.264C622.264 224.265 640.548 225.32 647.195 229.418C663.847 239.684 674.277 255.432 674.277 255.432L646.359 269.124L635.956 255.445L642.658 264.258L639.794 281.308L637.08 297.453L635.298 308.061" fill="#202020"/>
<path vector-effect="non-scaling-stroke" d="M566.482 308.061L572.622 255.994L571.389 266.437L560.013 271.988L547.582 246.318C547.582 246.318 567.497 233.188 574.349 230.268C580.311 227.733 597.375 224.265 597.375 224.265H622.264C622.264 224.265 640.548 225.32 647.195 229.418C663.847 239.684 674.277 255.432 674.277 255.432L646.359 269.124L635.956 255.445L642.658 264.258L639.794 281.308L637.08 297.453L635.298 308.061" stroke="white" stroke-width="1.37057" stroke-miterlimit="10"/>
<path vector-effect="non-scaling-stroke" d="M567.25 308.062L570.073 483.932L624.128 483.604L608.6 352.235C633.832 396.518 647.401 431.632 655.473 483.604L706.157 484.275C691.505 421.065 668 362.144 634.517 308.075H567.25V308.062Z" fill="#020202" stroke="white" stroke-width="1.37057"/>
<path vector-effect="non-scaling-stroke" d="M467.706 210.027C467.706 210.027 467.719 210.027 467.733 210.041C472.037 212.7 487.236 212.645 491.951 214.481C494.829 215.591 497.927 219.196 499.147 222.033C510.221 244.908 520.802 276.568 537.536 276.568C538.907 276.568 540.346 276.403 541.812 276.074C546.513 274.992 552.448 272.182 558.465 268.783L548.967 249.17C544.663 251.692 540.798 253.666 538.071 254.557C532.465 250.774 511.838 223.13 507.027 213.207C504.67 208.629 504.656 205.765 504.41 203.901C504.149 202.037 504.574 200.008 505.862 198.624C506.452 198.021 507.192 197.555 507.795 196.924C508.384 196.321 508.85 195.458 508.645 194.636C508.48 193.964 507.932 193.443 507.301 193.196C506.657 192.963 505.958 192.963 505.287 193.1C503.135 193.525 501.353 195.06 500.175 196.883C498.982 198.706 498.311 200.817 497.639 202.873C494.103 201.269 484.084 199.186 480.274 198.514C479.109 198.309 477.93 198.13 476.806 198.487C475.696 198.829 474.696 199.816 474.723 200.995L474.504 201.173H474.257C473.421 201.187 472.544 201.242 471.818 201.667C471.105 202.091 470.707 203.215 470.954 203.996H470.968C470.461 204.079 469.967 204.229 469.529 204.49C468.775 204.956 468.24 205.902 468.528 206.738L481.425 208.259C477.039 207.724 473.832 207.437 469.46 206.902C469.227 206.875 468.98 206.847 468.747 206.847C466.966 206.751 466.212 209.095 467.72 210.041L467.706 210.027Z" fill="#202020" stroke="white" stroke-width="1.37057" stroke-miterlimit="10"/>
<path vector-effect="non-scaling-stroke" d="M474.312 201.159H474.49L474.709 200.995L474.312 201.159Z" fill="#202020" stroke="white" stroke-width="1.37057" stroke-miterlimit="10"/>
<path vector-effect="non-scaling-stroke" d="M469.132 207.546C470.009 207.546 470.009 206.176 469.132 206.176C468.254 206.176 468.254 207.546 469.132 207.546Z" fill="white"/>
<path vector-effect="non-scaling-stroke" d="M471.282 204.244C476.34 204.244 479.588 204.436 484.508 205.56Z" fill="#202020"/>
<path vector-effect="non-scaling-stroke" d="M471.283 204.929C475.71 204.929 480.013 205.244 484.33 206.217C485.194 206.409 485.55 205.094 484.7 204.902C480.26 203.888 475.833 203.572 471.283 203.559C470.405 203.559 470.405 204.929 471.283 204.929Z" fill="white"/>
<path vector-effect="non-scaling-stroke" d="M474.655 201.405C478.149 201.679 481.631 202.159 485.071 202.858Z" fill="#202020"/>
<path vector-effect="non-scaling-stroke" d="M474.654 202.091C478.095 202.365 481.507 202.845 484.893 203.53C485.756 203.708 486.126 202.379 485.263 202.214C481.768 201.501 478.218 201.008 474.668 200.734C473.791 200.665 473.791 202.036 474.668 202.104L474.654 202.091Z" fill="white"/>
<path vector-effect="non-scaling-stroke" d="M537.44 255.118C538.002 256.228 538.77 257.256 539.674 258.12C539.935 258.366 540.387 258.394 540.647 258.12C540.908 257.846 540.921 257.421 540.647 257.147C540.442 256.941 540.236 256.735 540.044 256.516C539.948 256.407 539.852 256.297 539.756 256.174C539.715 256.119 539.66 256.064 539.619 255.995C539.647 256.036 539.688 256.078 539.633 256.009C539.606 255.982 539.578 255.941 539.564 255.913C539.222 255.433 538.907 254.94 538.646 254.406C538.482 254.09 538.002 253.967 537.714 254.159C537.385 254.364 537.289 254.748 537.467 255.091L537.44 255.118Z" fill="white"/>
<path vector-effect="non-scaling-stroke" d="M537.44 254.5C536.755 255.227 536.261 256.145 536.083 257.132C536.056 257.324 536.056 257.488 536.152 257.666C536.234 257.803 536.398 257.94 536.563 257.982C536.892 258.064 537.344 257.886 537.413 257.502C537.454 257.296 537.495 257.091 537.563 256.885C537.591 256.775 537.632 256.679 537.673 256.584C537.714 256.501 537.646 256.625 537.646 256.638C537.646 256.611 537.673 256.584 537.673 256.57C537.7 256.515 537.728 256.46 537.742 256.419C537.837 256.227 537.947 256.049 538.07 255.871C538.098 255.83 538.125 255.789 538.166 255.748C538.221 255.679 538.139 255.775 538.125 255.789C538.125 255.761 538.153 255.747 538.18 255.734C538.249 255.652 538.331 255.556 538.413 255.473C538.66 255.213 538.687 254.761 538.413 254.5C538.139 254.24 537.714 254.226 537.44 254.5Z" fill="white"/>
<path vector-effect="non-scaling-stroke" d="M656.117 279.279C657.68 279.211 659.146 278.58 660.284 277.525C660.544 277.278 660.544 276.798 660.284 276.552C659.996 276.291 659.599 276.291 659.311 276.552C659.187 276.661 659.078 276.771 658.941 276.867C658.996 276.826 658.982 276.84 658.941 276.867C658.913 276.894 658.872 276.908 658.845 276.936C658.776 276.977 658.708 277.031 658.639 277.073C658.502 277.155 658.365 277.237 658.228 277.319C658.16 277.36 658.091 277.388 658.009 277.429C657.968 277.443 657.94 277.47 657.899 277.484C657.885 277.484 657.735 277.552 657.817 277.525C657.885 277.497 657.776 277.539 657.762 277.552C657.721 277.566 657.694 277.58 657.652 277.593C657.584 277.621 657.502 277.648 657.419 277.676C657.269 277.73 657.118 277.772 656.953 277.799C656.789 277.826 656.638 277.867 656.487 277.895C656.597 277.895 656.378 277.909 656.487 277.895C656.446 277.895 656.405 277.895 656.364 277.895C656.268 277.895 656.186 277.909 656.09 277.909C655.734 277.922 655.391 278.21 655.405 278.594C655.418 278.95 655.706 279.293 656.09 279.279H656.117Z" fill="white"/>
<path vector-effect="non-scaling-stroke" d="M655.514 279.265C656.213 280.06 657.09 280.718 658.036 281.17C658.2 281.253 658.379 281.294 658.571 281.239C658.735 281.198 658.899 281.075 658.982 280.924C659.146 280.622 659.078 280.156 658.735 279.992C658.283 279.772 657.872 279.512 657.474 279.224C657.406 279.169 657.501 279.238 657.515 279.252C657.488 279.224 657.46 279.211 657.433 279.183C657.392 279.142 657.337 279.101 657.296 279.073C657.2 278.991 657.118 278.923 657.022 278.84C656.83 278.662 656.652 278.484 656.487 278.292C656.254 278.018 655.761 278.032 655.514 278.292C655.254 278.58 655.254 278.978 655.514 279.265Z" fill="white"/>
<path vector-effect="non-scaling-stroke" d="M616.919 212.3C615.617 212.643 613.945 198.731 611.382 199.225C608.408 199.787 609.737 190.22 604.42 189.439C601.884 189.055 599.307 189.836 596.785 190.289C594.25 190.741 591.605 191.042 589.151 190.289C586.698 189.535 584.272 188.726 583.587 179.119C601.692 177.57 613.547 172.211 622.401 178.118C623.224 178.666 624.06 179.31 624.416 180.242C625.019 181.819 626.239 188.699 625.375 190.138" fill="#A2A2A0"/>
<path vector-effect="non-scaling-stroke" d="M616.919 212.3C615.617 212.643 613.945 198.731 611.382 199.225C608.408 199.787 609.737 190.22 604.42 189.439C601.884 189.055 599.307 189.836 596.785 190.289C594.25 190.741 591.605 191.042 589.151 190.289C586.698 189.535 584.272 188.726 583.587 179.119C601.692 177.57 613.547 172.211 622.401 178.118C623.224 178.666 624.06 179.31 624.416 180.242C625.019 181.819 626.239 188.699 625.375 190.138" stroke="white" stroke-width="1.37057" stroke-miterlimit="10"/>
<path vector-effect="non-scaling-stroke" d="M551.16 299.702L551.379 300.429C551.914 302.169 550.94 304.02 549.2 304.554C547.459 305.089 545.609 304.116 545.074 302.375L544.156 299.373L539.496 284.242L533.918 266.137C533.658 265.274 533.767 264.369 534.151 263.629C534.549 262.889 535.22 262.286 536.097 262.025C537.838 261.491 539.688 262.464 540.223 264.205L551.16 299.73V299.702Z" fill="#202020" stroke="white" stroke-width="1.37057" stroke-miterlimit="10"/>
<path vector-effect="non-scaling-stroke" d="M560 267.083C552.708 268.193 547.021 266.96 540.36 264.63" stroke="white" stroke-width="1.37057"/>
<path vector-effect="non-scaling-stroke" d="M583.34 275.943L579.921 276.997L577.008 267.54L580.427 266.486C581.147 266.265 581.918 266.672 582.14 267.393L584.246 274.23C584.468 274.951 584.06 275.722 583.34 275.943Z" fill="#202020" stroke="white" stroke-width="1.37057" stroke-miterlimit="10"/>
<path vector-effect="non-scaling-stroke" d="M559.958 266.959L566.14 287.024C566.277 287.49 566.784 287.723 567.236 287.545C568.62 286.983 571.608 285.983 573.061 285.544L577.214 284.27C579.722 283.502 581.12 280.843 580.352 278.349L576.597 266.164C575.83 263.656 573.171 262.258 570.676 263.026L566.523 264.3C565.071 264.753 562.042 265.602 560.575 265.918C560.096 266.014 559.808 266.493 559.958 266.959Z" fill="#202020" stroke="white" stroke-width="1.37057" stroke-miterlimit="10"/>
<path vector-effect="non-scaling-stroke" d="M537.317 277.155C533.63 278.498 531.601 282.528 532.766 286.311C533.931 290.107 537.865 292.286 541.675 291.327" fill="#202020"/>
<path vector-effect="non-scaling-stroke" d="M537.317 277.155C533.63 278.498 531.601 282.528 532.766 286.311C533.931 290.107 537.865 292.286 541.675 291.327" stroke="white" stroke-width="1.37057" stroke-miterlimit="10"/>
<path vector-effect="non-scaling-stroke" d="M572.705 270.344L566.743 272.194" stroke="white" stroke-width="1.37057" stroke-miterlimit="10"/>
<path vector-effect="non-scaling-stroke" d="M574.775 277.046L568.799 278.882" stroke="white" stroke-width="1.37057" stroke-miterlimit="10"/>
<path vector-effect="non-scaling-stroke" d="M570.512 286.367L577.227 299.374H583.587C587.671 298.113 584.642 297.935 584.574 293.658L577.406 284.051" fill="#020202"/>
<path vector-effect="non-scaling-stroke" d="M570.512 286.367L577.227 299.374H583.587C587.671 298.113 584.642 297.935 584.574 293.658L577.406 284.051" stroke="white" stroke-width="1.37057"/>
<path vector-effect="non-scaling-stroke" d="M540.222 264.177L551.255 299.976C555.449 294.302 559.451 290.08 566.112 286.901L559.972 266.959C559.972 266.959 550.406 269.001 540.236 264.177H540.222Z" fill="#202020" stroke="white" stroke-width="1.37057" stroke-miterlimit="10"/>
<path vector-effect="non-scaling-stroke" d="M648.785 267.929L656.035 278.675C632.05 283.307 601.226 284.116 601.226 284.116C593.181 284.472 585.848 284.39 578.05 286.336C571.197 288.063 570.471 289.941 564.481 293.71C563.988 294.025 563.481 294.34 563.124 294.792C562.782 295.245 562.59 295.889 562.837 296.423C563.083 296.985 563.728 297.273 564.344 297.3C564.961 297.3 565.55 297.081 566.126 296.876C570.265 295.354 570.896 294.011 575.035 292.476L579.325 290.105C577.474 291.846 576.09 294.093 575.35 296.533C575.144 297.177 575.007 297.862 575.185 298.52C575.405 299.329 576.117 299.932 576.912 300.247C577.694 300.562 578.461 300.453 579.256 300.329L579.311 300.302C579.311 300.371 579.366 300.439 579.393 300.494C579.969 301.673 580.901 302.152 582.312 302.399L582.422 302.481C582.751 303.125 583.272 303.537 583.82 303.66C583.82 303.66 583.875 303.674 583.902 303.687C584.533 303.866 585.615 303.797 586.246 303.687C588.041 303.372 589.809 302.975 591.564 302.481C592.331 302.262 593.167 301.988 593.62 301.33C594.168 300.549 594.003 299.439 593.482 298.63C592.962 297.835 591.536 297.588 590.728 297.068C591.344 296.739 592.002 296.492 592.633 296.396C593.907 296.341 597.731 296.355 603.172 296.286C613.356 296.656 617.769 296.656 637.067 297.438C654.185 298.123 671.358 295.066 681.445 291.983C691.231 288.995 668.617 258.185 668.617 258.185" fill="#202020"/>
<path vector-effect="non-scaling-stroke" d="M648.785 267.929L656.035 278.675C632.05 283.307 601.226 284.116 601.226 284.116C593.181 284.472 585.848 284.39 578.05 286.336C571.197 288.063 570.471 289.941 564.481 293.71C563.988 294.025 563.481 294.34 563.124 294.792C562.782 295.245 562.59 295.889 562.837 296.423C563.083 296.985 563.728 297.273 564.344 297.3C564.961 297.3 565.55 297.081 566.126 296.876C570.265 295.354 570.896 294.011 575.035 292.476L579.325 290.105C577.474 291.846 576.09 294.093 575.35 296.533C575.144 297.177 575.007 297.862 575.185 298.52C575.405 299.329 576.117 299.932 576.912 300.247C577.694 300.562 578.461 300.453 579.256 300.329L579.311 300.302C579.311 300.371 579.366 300.439 579.393 300.494C579.969 301.673 580.901 302.152 582.312 302.399L582.422 302.481C582.751 303.125 583.272 303.537 583.82 303.66C583.82 303.66 583.875 303.674 583.902 303.687C584.533 303.866 585.615 303.797 586.246 303.687C588.041 303.372 589.809 302.975 591.564 302.481C592.331 302.262 593.167 301.988 593.62 301.33C594.168 300.549 594.003 299.439 593.482 298.63C592.962 297.835 591.536 297.588 590.728 297.068C591.344 296.739 592.002 296.492 592.633 296.396C593.907 296.341 597.731 296.355 603.172 296.286C613.356 296.656 617.769 296.656 637.067 297.438C654.185 298.123 671.358 295.066 681.445 291.983C691.231 288.995 668.617 258.185 668.617 258.185" stroke="white" stroke-width="1.37057" stroke-miterlimit="10"/>
<path vector-effect="non-scaling-stroke" d="M582.313 302.399C580.901 302.153 579.969 301.687 579.394 300.494C578.969 299.617 578.941 298.603 579.119 297.643C579.38 296.3 580.038 295.067 580.846 293.97C581.655 292.874 582.614 291.901 583.588 290.941C583.546 290.969 583.505 290.996 583.45 291.01" fill="#202020"/>
<path vector-effect="non-scaling-stroke" d="M582.505 301.742C581.682 301.591 580.833 301.372 580.298 300.673C579.572 299.727 579.613 298.452 579.901 297.356C580.545 294.957 582.368 293.134 584.067 291.421C584.629 290.859 583.916 289.982 583.231 290.339L583.094 290.407C582.313 290.832 583.012 292.011 583.779 291.586L583.916 291.517L583.08 290.434C581.052 292.477 578.859 294.752 578.407 297.726C578.201 299.055 578.393 300.44 579.243 301.509C579.956 302.413 581.025 302.824 582.135 303.03C582.998 303.194 583.368 301.865 582.505 301.714V301.742Z" fill="white"/>
<path vector-effect="non-scaling-stroke" d="M579.257 300.344C578.448 300.467 577.68 300.563 576.899 300.261C576.118 299.96 575.405 299.357 575.172 298.534C574.994 297.89 575.145 297.191 575.337 296.547C576.077 294.107 577.461 291.86 579.325 290.119" fill="#202020"/>
<path vector-effect="non-scaling-stroke" d="M579.078 299.672C578.023 299.836 576.913 299.809 576.173 298.932C575.433 298.054 575.967 296.793 576.31 295.861C577.05 293.86 578.283 292.065 579.818 290.599C580.463 289.995 579.489 289.022 578.845 289.625C576.899 291.489 575.419 293.847 574.665 296.451C574.281 297.794 574.35 299.192 575.46 300.165C576.57 301.138 577.982 301.22 579.435 301.001C579.805 300.946 579.997 300.48 579.914 300.151C579.805 299.754 579.435 299.617 579.065 299.672H579.078Z" fill="white"/>
<path vector-effect="non-scaling-stroke" d="M592.633 296.41C591.098 296.657 589.426 297.713 588.371 298.85C587.288 300.015 586.301 301.303 585.424 302.88C584.67 304.236 583.053 303.812 582.368 302.414C581.902 301.468 582.231 300.33 582.628 299.357C583.725 296.63 585.314 294.094 587.288 291.915" fill="#202020"/>
<path vector-effect="non-scaling-stroke" d="M592.633 296.41C591.098 296.657 589.426 297.713 588.371 298.85C587.288 300.015 586.301 301.303 585.424 302.88C584.67 304.236 583.053 303.812 582.368 302.414C581.902 301.468 582.231 300.33 582.628 299.357C583.725 296.63 585.314 294.094 587.288 291.915" stroke="white" stroke-width="1.37057" stroke-miterlimit="10"/>
<path vector-effect="non-scaling-stroke" d="M559.931 501.105H613.986" stroke="white" stroke-width="1.37057" stroke-miterlimit="10"/>
<path vector-effect="non-scaling-stroke" d="M607.936 196.915C607.936 196.915 611.732 193.68 614.172 196.366C617.256 199.793 613.034 203.768 611.143 204.014" fill="#202020"/>
<path vector-effect="non-scaling-stroke" d="M607.936 196.915C607.936 196.915 611.732 193.68 614.172 196.366C617.256 199.793 613.034 203.768 611.143 204.014" stroke="white" stroke-width="1.37057" stroke-miterlimit="10"/>
<path vector-effect="non-scaling-stroke" d="M583.574 206.791C583.574 206.791 586.822 208.627 590.194 203.899Z" fill="#202020"/>
<path vector-effect="non-scaling-stroke" d="M583.574 206.791C583.574 206.791 586.822 208.627 590.194 203.899" stroke="white" stroke-width="1.37057" stroke-miterlimit="10"/>
<path vector-effect="non-scaling-stroke" d="M483.399 93.3628C483.248 94.9252 483.331 96.5014 483.605 98.0364Z" fill="#404040"/>
<path vector-effect="non-scaling-stroke" d="M482.714 93.363C482.563 94.994 482.659 96.625 482.947 98.2285C483.015 98.5986 483.454 98.8042 483.797 98.7082C484.18 98.5986 484.345 98.2285 484.276 97.8585C484.002 96.3783 483.947 94.8706 484.084 93.363C484.112 92.993 483.742 92.6777 483.399 92.6777C483.002 92.6777 482.741 92.993 482.714 93.363Z" fill="white"/>
<path vector-effect="non-scaling-stroke" d="M517.745 139.989C517.745 121.568 502.121 106.78 483.399 108.178C468.076 109.316 455.59 121.473 454.083 136.768C453.096 146.801 456.755 155.983 463.169 162.452C469.296 168.634 472.928 174.554 472.928 183.244V186.41H498.722V183.312C498.722 174.787 501.984 168.784 508.097 162.836C514.045 157.039 517.732 148.952 517.732 139.989H517.745Z" fill="#202020" stroke="white" stroke-width="1.37057" stroke-miterlimit="10"/>
<path vector-effect="non-scaling-stroke" d="M473.024 189.767H498.708" stroke="white" stroke-width="1.37057" stroke-miterlimit="10"/>
<path vector-effect="non-scaling-stroke" d="M489.649 163.262L489.717 158.054L490.033 134.617L485.811 129.971L481.631 134.562L481.933 163.234" fill="#404040"/>
<path vector-effect="non-scaling-stroke" d="M489.649 163.262L489.717 158.054L490.033 134.617L485.811 129.971L481.631 134.562L481.933 163.234" stroke="white" stroke-width="1.37057" stroke-miterlimit="10"/>
<path vector-effect="non-scaling-stroke" d="M479.356 162.7H492.253C493.061 162.7 493.719 163.358 493.719 164.166V178.53H477.889V164.166C477.889 163.358 478.547 162.7 479.356 162.7Z" fill="#202020" stroke="white" stroke-width="1.37057" stroke-miterlimit="10"/>
<path vector-effect="non-scaling-stroke" d="M449.299 116.812C450.026 117.36 450.766 117.908 451.492 118.457Z" fill="#404040"/>
<path vector-effect="non-scaling-stroke" d="M448.956 117.415C449.683 117.963 450.423 118.512 451.149 119.06C451.286 119.156 451.519 119.169 451.684 119.128C451.848 119.087 452.013 118.964 452.095 118.813C452.177 118.649 452.218 118.457 452.164 118.279C452.109 118.1 451.999 117.977 451.848 117.867C451.122 117.319 450.382 116.771 449.655 116.223C449.518 116.127 449.285 116.113 449.121 116.154C448.956 116.195 448.792 116.319 448.71 116.469C448.627 116.634 448.586 116.826 448.641 117.004C448.696 117.182 448.806 117.305 448.956 117.415Z" fill="white"/>
<path vector-effect="non-scaling-stroke" d="M522.529 141.566C523.859 141.498 525.202 141.429 526.531 141.361Z" fill="#404040"/>
<path vector-effect="non-scaling-stroke" d="M522.529 142.251C523.858 142.182 525.201 142.114 526.531 142.045C526.887 142.032 527.23 141.744 527.216 141.36C527.202 141.004 526.915 140.661 526.531 140.675C525.201 140.743 523.858 140.812 522.529 140.88C522.172 140.894 521.83 141.182 521.843 141.566C521.857 141.922 522.145 142.265 522.529 142.251Z" fill="white"/>
<path vector-effect="non-scaling-stroke" d="M514.195 169.183C514.867 169.731 515.538 170.279 516.21 170.841Z" fill="#404040"/>
<path vector-effect="non-scaling-stroke" d="M513.702 169.662C514.373 170.21 515.045 170.758 515.717 171.32C515.867 171.444 516.004 171.526 516.196 171.526C516.361 171.526 516.566 171.457 516.676 171.32C516.786 171.183 516.882 171.019 516.882 170.841C516.882 170.676 516.813 170.471 516.676 170.361C516.004 169.813 515.333 169.265 514.661 168.703C514.511 168.579 514.373 168.497 514.182 168.497C514.017 168.497 513.812 168.566 513.702 168.703C513.592 168.84 513.496 169.004 513.496 169.182C513.496 169.347 513.565 169.552 513.702 169.662Z" fill="white"/>
<path vector-effect="non-scaling-stroke" d="M514.839 101.529C513.975 102.502 513.126 103.489 512.262 104.462Z" fill="#404040"/>
<path vector-effect="non-scaling-stroke" d="M514.36 101.037C513.496 102.01 512.647 102.997 511.783 103.97C511.55 104.244 511.495 104.682 511.783 104.943C512.044 105.176 512.496 105.231 512.756 104.943C513.62 103.97 514.47 102.983 515.333 102.01C515.566 101.736 515.621 101.297 515.333 101.037C515.073 100.804 514.62 100.749 514.36 101.037Z" fill="white"/>
<path vector-effect="non-scaling-stroke" d="M442.502 144.676C443.968 144.553 445.435 144.43 446.915 144.306Z" fill="#404040"/>
<path vector-effect="non-scaling-stroke" d="M442.501 145.362C443.968 145.238 445.434 145.115 446.914 144.992C447.271 144.964 447.613 144.704 447.6 144.306C447.586 143.964 447.298 143.594 446.914 143.621C445.448 143.744 443.981 143.868 442.501 143.991C442.145 144.019 441.802 144.279 441.816 144.676C441.83 145.019 442.117 145.389 442.501 145.362Z" fill="white"/>
<path vector-effect="non-scaling-stroke" d="M457.18 168.551C456.385 169.415 455.59 170.264 454.795 171.128Z" fill="#404040"/>
<path vector-effect="non-scaling-stroke" d="M456.7 168.058C455.905 168.922 455.11 169.771 454.315 170.635C454.069 170.895 454.041 171.348 454.315 171.608C454.576 171.855 455.028 171.882 455.288 171.608C456.083 170.745 456.878 169.895 457.673 169.031C457.92 168.771 457.947 168.319 457.673 168.058C457.413 167.812 456.96 167.784 456.7 168.058Z" fill="white"/>
<path vector-effect="non-scaling-stroke" d="M498.708 178.53V199.691C498.708 200.308 498.214 200.788 497.611 200.788H474.024C473.421 200.788 472.927 200.294 472.927 199.691V178.53H498.722H498.708Z" fill="#404040" stroke="white" stroke-width="1.37057" stroke-miterlimit="10"/>
<path vector-effect="non-scaling-stroke" d="M492.705 200.801C492.102 204.063 489.251 206.53 485.811 206.53C482.371 206.53 479.52 204.063 478.917 200.801H492.705Z" fill="#404040" stroke="white" stroke-width="1.37057" stroke-miterlimit="10"/>
<path vector-effect="non-scaling-stroke" d="M481.631 134.563L483.824 137.482L485.838 135.098L487.73 137.592L490.032 134.618" fill="#404040"/>
<path vector-effect="non-scaling-stroke" d="M481.631 134.563L483.824 137.482L485.838 135.098L487.73 137.592L490.032 134.618" stroke="white" stroke-width="1.37057" stroke-miterlimit="10"/>
<path vector-effect="non-scaling-stroke" d="M483.646 132.137H487.785" stroke="white" stroke-width="1.37057" stroke-miterlimit="10"/>
<path vector-effect="non-scaling-stroke" d="M483.824 137.48L484.276 157.779" stroke="white" stroke-width="1.37057" stroke-miterlimit="10"/>
<path vector-effect="non-scaling-stroke" d="M487.73 137.591L487.127 157.78" stroke="white" stroke-width="1.37057" stroke-miterlimit="10"/>
<path vector-effect="non-scaling-stroke" d="M481.878 157.78L489.717 158.054" stroke="white" stroke-width="1.37057" stroke-miterlimit="10"/>
<path vector-effect="non-scaling-stroke" d="M443.35 186.411H469.144" stroke="white" stroke-width="1.37057" stroke-miterlimit="10"/>
</g>
<defs>
<clipPath id="clip0_20_12235">
<rect width="802" height="531.944" fill="white"/>
</clipPath>
</defs>
</svg>
