<svg width="110" height="60" viewBox="0 0 110 60" fill="none" xmlns="http://www.w3.org/2000/svg">
<path fill-rule="evenodd" clip-rule="evenodd" d="M89.8632 5.98557L92.9463 5.48315L92.9447 12.4819L101.305 12.4849L101.303 14.5786C101.303 15.8934 100.222 16.9578 98.8863 16.9578L92.9432 16.9563L92.9401 26.3892C92.9401 28.2492 93.2406 29.5778 93.8386 30.375C94.4382 31.1721 95.4546 31.5722 96.8923 31.5722C97.8823 31.5722 98.7577 31.4699 99.523 31.2637C100.287 31.0561 100.893 30.8652 101.342 30.688L101.9 33.3253C102.106 34.3073 101.673 35.1487 100.448 35.5625C99.7941 35.7824 98.3099 36.178 96.1734 36.178C94.4955 36.178 93.0965 35.9565 91.9717 35.5137C90.8485 35.0693 89.9577 34.4279 89.2992 33.5865C88.6408 32.7435 88.176 31.7249 87.9064 30.5292C87.6384 29.3335 87.5051 27.9682 87.5051 26.432L87.5098 8.71756C87.5098 7.36302 88.5044 6.207 89.8632 5.98557Z" fill="white"/>
<mask id="mask0_20215_8219" style="mask-type:luminance" maskUnits="userSpaceOnUse" x="102" y="2" width="8" height="7">
<path fill-rule="evenodd" clip-rule="evenodd" d="M102.945 2.38867H109.64V8.98729H102.945V2.38867Z" fill="white"/>
</mask>
<g mask="url(#mask0_20215_8219)">
<path fill-rule="evenodd" clip-rule="evenodd" d="M109.641 5.71165C109.641 6.71496 109.309 7.51211 108.651 8.1031C107.994 8.69409 107.214 8.98729 106.316 8.98729C105.386 8.98729 104.591 8.69256 103.933 8.10157C103.276 7.51058 102.945 6.71343 102.945 5.71013C102.945 4.67628 103.276 3.86538 103.935 3.27439C104.593 2.6834 105.388 2.38867 106.316 2.38867C107.216 2.38867 107.995 2.68493 108.652 3.27592C109.311 3.86691 109.641 4.6778 109.641 5.71165Z" fill="#FF4F66"/>
</g>
<path fill-rule="evenodd" clip-rule="evenodd" d="M109.046 35.6513H107.529C105.364 35.6498 103.611 33.9211 103.611 31.7877L103.618 12.4851L105.463 12.4866C107.447 12.4866 109.054 14.0718 109.054 16.0249L109.046 35.6513Z" fill="white"/>
<path fill-rule="evenodd" clip-rule="evenodd" d="M79.8349 21.8213C79.8349 21.0852 79.7296 20.3873 79.5219 19.7246C79.3128 19.0633 79.0076 18.4876 78.6048 18.0035C78.2004 17.5179 77.7093 17.1346 77.1283 16.8551C76.5457 16.5757 75.8501 16.4352 75.0445 16.4352C74.2094 16.4352 73.4781 16.5894 72.8491 16.8979C72.2248 17.2064 71.6934 17.6111 71.2595 18.1119C70.8273 18.6113 70.4911 19.1855 70.2525 19.833C70.0139 20.4805 69.8497 21.1417 69.7598 21.8182L79.8349 21.8213ZM64.1157 24.201C64.1173 22.1699 64.424 20.3909 65.036 18.8607C65.648 17.3305 66.4629 16.0569 67.4777 15.0429C68.4925 14.0274 69.6576 13.2639 70.9714 12.7492C72.2852 12.2346 73.6284 11.9765 75.0026 11.978C78.2267 11.978 80.7397 12.9661 82.5461 14.9376C84.3511 16.9091 85.2543 19.8518 85.2528 23.7658C85.2528 24.0605 85.245 24.3919 85.2295 24.7584C85.214 25.1264 85.1923 25.4578 85.1629 25.751L69.7133 25.7464C69.8621 27.6003 70.5267 29.0358 71.7042 30.0513C72.8832 31.0668 74.5921 31.5738 76.8308 31.5754C78.1446 31.5754 79.3484 31.4593 80.436 31.2226C80.7087 31.1646 80.9674 31.105 81.2107 31.0439C82.1929 30.7996 83.1721 31.4593 83.3332 32.4458L83.7267 34.8434C83.4277 34.99 83.0187 35.1457 82.495 35.3061C81.9729 35.468 81.3764 35.6161 80.704 35.7474C80.0316 35.8788 79.3081 35.9887 78.5319 36.0773C77.7542 36.1659 76.964 36.2101 76.1584 36.2086C74.0994 36.2086 72.3084 35.9062 70.7854 35.303C69.2625 34.6998 68.0091 33.8614 67.0238 32.7864C66.0399 31.7128 65.3087 30.4468 64.833 28.99C64.3543 27.5331 64.1157 25.9373 64.1157 24.201Z" fill="white"/>
<path fill-rule="evenodd" clip-rule="evenodd" d="M35.4697 24.0226C35.4697 21.7197 34.9863 19.8978 34.0164 18.5525C33.045 17.2101 31.6925 16.5367 29.9542 16.5367C28.2174 16.5352 26.8633 17.2071 25.8935 18.5494C24.9221 19.8948 24.4371 21.7166 24.4371 24.0195C24.4356 26.3529 24.919 28.1992 25.8904 29.5568C26.8587 30.9159 28.2128 31.5939 29.9495 31.5955C31.6894 31.5955 33.0419 30.9174 34.0133 29.5598C34.9832 28.2022 35.4697 26.356 35.4697 24.0226ZM40.8566 24.0242C40.855 25.8567 40.5932 27.5228 40.0726 29.0301C39.5489 30.5343 38.8099 31.8201 37.8556 32.8814C36.8997 33.9443 35.7485 34.772 34.4022 35.3614C33.0543 35.9509 31.5701 36.2456 29.9495 36.2456C28.3274 36.2456 26.8525 35.9494 25.5185 35.3599C24.1877 34.7674 23.0428 33.9397 22.0884 32.8768C21.134 31.814 20.3888 30.5297 19.8528 29.024C19.3167 27.5167 19.0502 25.8506 19.0518 24.0181C19.0518 22.1871 19.3182 20.5271 19.8558 19.0352C20.3919 17.5462 21.1464 16.268 22.1163 15.2052C23.0861 14.1423 24.2373 13.3223 25.5681 12.7481C26.902 12.1739 28.363 11.8853 29.9557 11.8853C31.5484 11.8853 33.0187 12.1754 34.3635 12.7496C35.7098 13.3268 36.8609 14.1469 37.8168 15.2098C38.7727 16.2726 39.5164 17.5508 40.0525 19.0413C40.587 20.5332 40.8566 22.1947 40.8566 24.0242Z" fill="white"/>
<mask id="mask1_20215_8219" style="mask-type:luminance" maskUnits="userSpaceOnUse" x="0" y="11" width="18" height="26">
<path fill-rule="evenodd" clip-rule="evenodd" d="M0 11.8811H17.8651V36.1957H0V11.8811Z" fill="white"/>
</mask>
<g mask="url(#mask1_20215_8219)">
<path fill-rule="evenodd" clip-rule="evenodd" d="M17.4606 26.8086C17.1911 26.071 16.765 25.4143 16.1809 24.8371C15.5984 24.2613 14.8547 23.7452 13.9561 23.2855C13.0591 22.8289 11.9653 22.3632 10.6778 21.8897C9.89854 21.624 9.24009 21.366 8.70093 21.1155C8.16178 20.8635 7.72642 20.6131 7.39797 20.3611C7.06797 20.1107 6.83713 19.8373 6.70079 19.5426C6.566 19.2479 6.49938 18.9073 6.49938 18.5225C6.49938 17.7543 6.84177 17.1878 7.53276 16.8182C8.2222 16.4487 9.12234 16.2639 10.2285 16.2654C11.1209 16.2654 11.9359 16.3265 12.6718 16.4441C12.6718 16.4441 13.118 16.5143 13.1195 16.5143C14.6983 16.693 16.184 15.7096 16.5063 14.1489L16.7464 12.9821C15.6697 12.6248 14.6316 12.4034 13.9143 12.2583C12.9708 12.0674 11.5501 11.8811 9.96051 11.8811C7.2353 11.8811 5.07713 12.4919 3.4891 13.7167C1.90262 14.9414 1.10783 16.6167 1.10783 18.7439C1.10783 19.8358 1.27825 20.7582 1.6222 21.511C1.96769 22.2654 2.43868 22.9068 3.03516 23.4382C3.63628 23.9697 4.34741 24.4354 5.17163 24.834C5.99586 25.2341 6.9022 25.6098 7.8891 25.9641C9.50811 26.5566 10.6685 27.1018 11.3719 27.6042C12.0737 28.1066 12.427 28.7419 12.427 29.51C12.427 30.3362 12.097 30.9195 11.4385 31.2585C10.7785 31.5976 9.73121 31.7671 8.29347 31.7671C6.79685 31.7671 5.64107 31.6021 4.916 31.4357C4.31178 31.2967 3.96008 31.1684 3.42868 31.1684C2.03121 31.1684 0.745296 32.0282 0.344028 33.4179L-0.00146484 34.6105C0.636845 34.8961 2.17994 35.4107 3.22417 35.6734C4.3567 35.9574 5.74487 36.1957 8.24699 36.1957C11.3332 36.1957 13.7067 35.6291 15.3691 34.4929C17.033 33.3568 17.865 31.68 17.865 29.4672C17.8666 28.4334 17.7318 27.5477 17.4606 26.8086Z" fill="white"/>
</g>
<path fill-rule="evenodd" clip-rule="evenodd" d="M106.601 51.6804C108.251 51.6804 109.529 50.3534 109.543 48.782C109.429 48.0948 109.185 46.8242 107.377 46.8242C105.401 46.8242 104.745 49.5486 103.135 51.3047C103.005 52.3035 102.048 53.1968 100.847 53.3465C101.143 53.6488 101.794 53.8122 102.573 53.8122C103.998 53.8122 105.726 53.3892 106.629 52.5112C105.422 52.5264 104.648 51.7629 104.572 50.7046C105.159 51.4071 105.824 51.6804 106.601 51.6804Z" fill="white"/>
<mask id="mask2_20215_8219" style="mask-type:luminance" maskUnits="userSpaceOnUse" x="34" y="41" width="62" height="18">
<path fill-rule="evenodd" clip-rule="evenodd" d="M34.2253 41.9792H95.4473V58.3283H34.2253V41.9792Z" fill="white"/>
</mask>
<g mask="url(#mask2_20215_8219)">
<path fill-rule="evenodd" clip-rule="evenodd" d="M65.3104 46.7677C65.8139 46.7677 66.1036 47.2243 66.0525 47.8825C65.9936 48.6552 65.4235 49.5379 64.4335 50.2327C63.916 48.7804 64.3018 46.7677 65.3104 46.7677ZM58.5648 57.249C58.0458 57.249 57.7731 56.7649 57.7731 56.2152C57.7731 54.7369 58.8746 53.9505 60.2318 53.277C60.1698 56.5114 59.406 57.249 58.5648 57.249ZM93.9197 47.347C93.9197 46.4812 93.867 45.9039 93.2922 45.9039C93.0304 45.9039 92.9034 45.9543 92.6725 46.0307C92.877 48.9551 92.2046 51.5298 91.3882 51.5298C90.316 51.5298 90.849 45.2625 88.5777 45.2625C86.48 45.2625 86.181 50.2653 85.9408 50.2653C85.7797 50.2653 85.7534 48.952 85.7627 47.9502C85.8525 47.4692 85.8975 47.0385 85.8975 46.7117C85.8975 46.246 85.7053 45.4397 84.6348 45.8413C84.6704 49.4193 83.9422 51.5832 83.1273 51.5832C81.9251 51.5832 81.9127 48.3381 81.9127 47.4448C81.9127 46.5713 81.9762 45.4045 80.6593 45.8199C80.4625 48.9413 79.6337 51.2961 79.11 51.2961C78.3291 51.2961 78.4872 45.9039 76.8 45.9039C75.2832 45.9039 74.8153 51.0105 74.4993 51.0105C73.9322 51.0105 74.6759 45.2625 72.4868 45.2625C71.3372 45.2625 70.8817 47.1821 70.4308 49.3307C70.3425 49.7476 70.2511 49.7583 70.2372 49.2895C70.2263 48.9031 70.2232 48.4771 70.2263 48.0861C70.7779 45.9268 70.1055 45.1281 69.0876 45.7039C69.416 49.6896 67.56 51.6367 66.1362 51.6367C65.6203 51.6367 65.2175 51.4213 64.9138 51.0808C66.6242 50.0485 67.3818 48.8634 67.3818 47.7074C67.3818 46.4521 66.6506 45.7298 65.4375 45.7298C63.7425 45.7298 62.7959 47.4493 62.7959 48.9108C62.7959 49.6972 62.9446 50.3646 63.191 50.9159C62.6084 51.1892 62.0584 51.4259 61.5472 51.6565C61.5053 50.1523 61.3334 48.5733 61.2017 47.1164C60.3 46.8736 60.0366 47.2997 59.9669 48.0907C59.8058 49.8958 59.1287 51.0167 58.5291 51.0167C58.0783 51.0167 57.801 50.4745 57.77 49.8988C57.6011 47.0065 59.9839 46.2017 61.2296 46.6201C61.4883 45.9833 61.2063 45.5237 60.0815 45.5237C58.7166 45.5237 57.6987 46.3407 56.9504 47.3867C56.4515 48.0861 55.8752 48.5809 55.1114 49.1811C55.13 49.007 55.1408 48.8359 55.1408 48.6664C55.1408 46.6262 54.0207 45.7298 52.9486 45.7298C52.0608 45.7298 51.5062 46.2551 51.1824 47.0569C51.1018 46.2521 50.9407 45.9039 50.4651 45.9039C50.259 45.9039 49.9786 45.9619 49.6749 46.1055C49.8144 46.556 49.867 47.5532 49.867 48.2098C49.867 50.6624 49.1544 51.7619 48.4696 51.7619C47.6841 51.7619 47.5601 48.8527 47.4951 47.7196C47.3944 47.686 47.2813 47.6509 47.1108 47.6509C46.4013 47.6509 46.3083 48.5901 46.1348 49.4529C45.938 50.4089 45.3803 51.6138 44.5529 51.6138C44.051 51.6138 43.7396 51.1373 43.7008 50.2821C43.6203 48.5473 45.0828 46.4918 47.3742 47.1302C47.6732 46.4399 47.2022 45.9146 46.251 45.9146C44.5762 45.9146 43.1942 47.15 42.59 48.6115C41.9765 49.9523 40.9028 51.9207 38.7214 51.9207C37.1814 51.9207 36.0008 50.5967 36.0008 47.8158C36.0008 45.4198 37.5331 43.1429 39.1707 43.1429C40.3125 43.1429 40.5775 44.2516 40.4783 45.2931C41.0701 45.7619 42.0415 45.3267 42.0415 44.1554C42.0415 43.3475 41.3769 41.9792 39.2311 41.9792C36.571 41.9792 34.2253 44.5906 34.2253 48.0235C34.2253 51.3465 35.9373 53.3104 38.3589 53.3104C39.888 53.3104 41.3289 52.4521 42.3235 50.8655C42.5729 52.2536 43.5335 52.8385 44.2524 52.8385C45.4175 52.8385 46.1782 52.0948 46.5949 51.0884C46.8537 52.0978 47.4006 52.8415 48.3069 52.8415C48.9468 52.8415 49.4487 52.5224 49.8237 52.0093C49.6734 55.5125 49.4844 57.7451 51.5868 57.3053C51.2614 56.3096 51.1576 54.4969 51.1576 52.8706C51.1576 48.416 51.9044 46.95 52.837 46.95C53.5141 46.95 53.7325 47.8006 53.7325 48.7077C53.7325 49.1933 53.6845 49.7522 53.5621 50.2562C52.4125 50.9693 51.4969 51.5328 51.4969 52.249C51.4969 52.8141 51.9198 52.8675 52.2917 52.8675C53.1732 52.8675 54.2329 52.0154 54.8201 50.4058C55.3329 50.1004 55.8458 49.7507 56.3384 49.2727C56.3199 49.4361 56.3106 49.601 56.3106 49.7675C56.3106 51.3648 57.0201 52.33 58.1542 52.33C59.0389 52.33 59.7066 51.71 60.176 50.7815C60.2039 51.316 60.2241 51.8092 60.2318 52.2628C58.4331 53.0828 56.4407 53.9166 56.4407 56.2287C56.4407 57.4259 57.3176 58.3284 58.4579 58.3284C60.9646 58.3284 61.5363 55.7201 61.5596 52.6904C62.376 52.3422 62.9865 52.0734 63.6852 51.7313C64.2863 52.4705 65.0997 52.8415 65.8496 52.8415C67.2641 52.8415 68.3253 52.1024 69.1806 50.6043C69.3308 51.7451 69.6298 52.8415 70.2465 52.8415C71.3666 52.8415 71.5944 47.063 72.4279 47.063C73.0677 47.063 72.5425 53.3149 74.2282 53.3149C75.6706 53.3149 75.9417 47.8128 76.6451 47.8128C77.1439 47.8128 77.1811 52.8431 78.7552 52.8431C79.5283 52.8431 80.3665 51.9268 80.7863 50.0072C80.9831 51.2839 81.6369 52.8431 82.9151 52.8431C83.6618 52.8431 84.3032 52.0994 84.7959 51.1113C84.9338 52.1284 85.2251 52.8431 85.7906 52.8431C87.2593 52.8431 87.2097 47.0752 88.3732 47.0752C89.2796 47.0752 88.9976 52.8431 91.1589 52.8431C92.1876 52.8431 92.671 51.9787 92.9622 50.896C93.3589 52.4888 94.0018 52.8431 94.5286 52.8431C94.8632 52.8431 95.1158 52.727 95.4473 52.3376C93.7787 51.6229 93.9197 49.0238 93.9197 47.347Z" fill="white"/>
</g>
<path fill-rule="evenodd" clip-rule="evenodd" d="M81.3071 44.5836C81.789 44.5668 82.1252 44.1606 82.1267 43.675C82.1283 43.1909 81.7952 42.8106 81.3149 42.8274C80.8331 42.8442 80.4395 43.2504 80.438 43.7345C80.4364 44.2202 80.8238 44.6004 81.3071 44.5836Z" fill="white"/>
<path fill-rule="evenodd" clip-rule="evenodd" d="M93.2733 44.8285C93.7118 44.8132 94.0681 44.4253 94.0712 43.9642C94.0728 43.5014 93.718 43.1395 93.2795 43.1563C92.8411 43.1716 92.4847 43.558 92.4832 44.0207C92.4801 44.4818 92.8349 44.8438 93.2733 44.8285Z" fill="white"/>
<path fill-rule="evenodd" clip-rule="evenodd" d="M109.541 48.6656C109.507 46.8376 108.622 45.2952 107.263 44.0644C106.23 43.1344 105.003 42.4289 103.716 41.8974C103.613 41.8547 103.508 41.8119 103.404 41.7722C101.821 43.6429 96.3347 45.0387 96.3347 48.9603C96.3347 50.4935 97.317 51.9259 98.7594 52.5017C99.5944 52.8132 100.431 52.83 101.269 52.5536C102.014 52.3138 102.625 51.8587 103.133 51.3029C104.744 49.5482 105.4 46.8239 107.378 46.8239C109.186 46.8239 109.429 48.0944 109.544 48.7816C109.544 48.7786 109.544 48.7312 109.541 48.6656Z" fill="white"/>
<path fill-rule="evenodd" clip-rule="evenodd" d="M13.0669 47.741C12.8438 47.741 12.6641 47.7486 12.5216 47.7608V49.3628H12.943C13.3598 49.3628 13.6805 49.3047 13.9067 49.1887C14.1313 49.0741 14.2444 48.8558 14.2444 48.5351C14.2444 48.3808 14.2134 48.2526 14.1546 48.1487C14.0957 48.0449 14.0105 47.9624 13.9067 47.9029C13.8013 47.8448 13.6758 47.8036 13.5317 47.7792C13.3861 47.7532 13.2296 47.741 13.0669 47.741ZM13.005 47.002C13.6959 47.002 14.2289 47.1256 14.5961 47.3746C14.9679 47.6235 15.1523 48.0129 15.1523 48.5413C15.1523 48.8177 15.1027 49.0544 15.0051 49.2514C14.9059 49.4468 14.7634 49.6087 14.5744 49.7324C14.3854 49.8576 14.1561 49.9493 13.8834 50.0073C13.6154 50.0669 13.304 50.0959 12.9569 50.0959H12.5216V51.7513H11.6555V47.1165C11.8569 47.0707 12.08 47.0417 12.3264 47.0249C12.5727 47.0096 12.7989 47.002 13.005 47.002Z" fill="white"/>
<path fill-rule="evenodd" clip-rule="evenodd" d="M16.8041 51.1764C17.0629 51.1764 17.2565 51.1627 17.3913 51.1352V50.2265C17.3433 50.2128 17.2767 50.199 17.1899 50.1853C17.1 50.1716 17.0055 50.1655 16.9002 50.1655C16.8103 50.1655 16.7158 50.1716 16.6213 50.1853C16.5268 50.199 16.4431 50.2235 16.3672 50.2601C16.2929 50.2953 16.2309 50.3472 16.1844 50.4128C16.1395 50.4785 16.1162 50.561 16.1162 50.6602C16.1162 50.8542 16.1782 50.9901 16.3022 51.0634C16.4261 51.1382 16.5934 51.1764 16.8041 51.1764ZM16.736 48.1162C17.0102 48.1162 17.2426 48.1498 17.43 48.217C17.6206 48.2857 17.7693 48.3804 17.8824 48.5026C17.994 48.6247 18.0745 48.7729 18.1226 48.947C18.1722 49.121 18.1938 49.3119 18.1938 49.5196V51.6713C18.0653 51.6988 17.87 51.7324 17.6129 51.7706C17.3526 51.8087 17.0629 51.8286 16.736 51.8286C16.5191 51.8286 16.3207 51.8072 16.1426 51.766C15.9644 51.7263 15.8126 51.6606 15.6855 51.5705C15.56 51.4789 15.4609 51.3613 15.3912 51.2162C15.3183 51.0712 15.2827 50.894 15.2827 50.6817C15.2827 50.4771 15.323 50.3061 15.4036 50.1656C15.4826 50.0251 15.5926 49.9106 15.7305 49.8235C15.8683 49.7349 16.0279 49.6708 16.2092 49.6326C16.3889 49.5944 16.5779 49.5746 16.7762 49.5746C16.8692 49.5746 16.9653 49.5807 17.066 49.5914C17.1667 49.6036 17.2736 49.6219 17.3913 49.6494V49.5135C17.3913 49.4188 17.3789 49.3287 17.3541 49.2417C17.3324 49.1562 17.2906 49.0813 17.2348 49.0157C17.1775 48.95 17.1 48.8981 17.0071 48.863C16.9126 48.8263 16.7948 48.808 16.6538 48.808C16.4602 48.808 16.2836 48.8217 16.1224 48.8492C15.9629 48.8767 15.8327 48.9073 15.7305 48.9439L15.6267 48.2796C15.7336 48.243 15.8869 48.2063 16.0883 48.1697C16.2913 48.1345 16.5067 48.1162 16.736 48.1162Z" fill="white"/>
<path fill-rule="evenodd" clip-rule="evenodd" d="M20.7771 48.9429C20.7074 48.92 20.6129 48.8956 20.4905 48.8711C20.3681 48.8467 20.2286 48.8345 20.066 48.8345C19.9746 48.8345 19.8785 48.8437 19.7747 48.862C19.6709 48.8788 19.5981 48.8956 19.5578 48.9093V51.7513H18.7258V48.3733C18.8854 48.3137 19.0853 48.2588 19.327 48.2069C19.5686 48.1549 19.8351 48.1274 20.1279 48.1274C20.1837 48.1274 20.2488 48.132 20.3216 48.1381C20.396 48.1458 20.4688 48.1549 20.5432 48.1656C20.616 48.1763 20.6857 48.1901 20.7539 48.2069C20.822 48.2221 20.8794 48.2374 20.9227 48.2511L20.7771 48.9429Z" fill="white"/>
<path fill-rule="evenodd" clip-rule="evenodd" d="M21.2659 47.2673L22.0978 47.1313V48.2034H23.3776V48.889H22.0978V50.3337C22.0978 50.6193 22.1428 50.8224 22.2357 50.9445C22.3287 51.0667 22.4836 51.1278 22.7052 51.1278C22.8539 51.1278 22.9887 51.1125 23.1064 51.0804C23.2242 51.0484 23.3156 51.0194 23.3853 50.9919L23.5216 51.6439C23.4271 51.6852 23.3001 51.7264 23.1452 51.7692C22.9871 51.8119 22.8043 51.8333 22.5936 51.8333C22.3349 51.8333 22.1226 51.7997 21.9491 51.7325C21.7787 51.6638 21.6392 51.5661 21.5416 51.4363C21.4394 51.308 21.3681 51.1522 21.3278 50.969C21.286 50.7857 21.2659 50.5765 21.2659 50.3413V47.2673Z" fill="white"/>
<path fill-rule="evenodd" clip-rule="evenodd" d="M27.9155 49.9742C27.9155 49.6214 27.838 49.342 27.6862 49.1358C27.5313 48.9296 27.3159 48.8273 27.0432 48.8273C26.7659 48.8273 26.5506 48.9296 26.3987 49.1358C26.2438 49.342 26.1663 49.6214 26.1663 49.9742C26.1663 50.3315 26.2438 50.614 26.3987 50.8217C26.5506 51.0309 26.7659 51.1348 27.0432 51.1348C27.3159 51.1348 27.5313 51.0309 27.6862 50.8217C27.838 50.614 27.9155 50.3315 27.9155 49.9742ZM28.7691 49.9738C28.7691 50.2548 28.7273 50.5098 28.6452 50.7404C28.5615 50.971 28.4438 51.168 28.2935 51.3314C28.1417 51.4933 27.9604 51.62 27.7482 51.7101C27.5328 51.8002 27.2989 51.846 27.0432 51.846C26.786 51.846 26.549 51.8002 26.3383 51.7101C26.1276 51.62 25.9463 51.4933 25.7945 51.3314C25.6427 51.168 25.5265 50.971 25.4397 50.7404C25.356 50.5098 25.3142 50.2548 25.3142 49.9738C25.3142 49.6928 25.356 49.4393 25.4397 49.2102C25.5265 48.9827 25.6442 48.7857 25.7976 48.6223C25.951 48.4604 26.1369 48.3352 26.346 48.2466C26.5567 48.1596 26.7891 48.1138 27.0432 48.1138C27.2927 48.1138 27.5251 48.1596 27.7389 48.2466C27.9527 48.3352 28.137 48.4604 28.2873 48.6223C28.4391 48.7857 28.5569 48.9827 28.6405 49.2102C28.7273 49.4393 28.7691 49.6928 28.7691 49.9738Z" fill="white"/>
<path fill-rule="evenodd" clip-rule="evenodd" d="M30.669 46.4856C30.8611 46.4856 31.03 46.5024 31.1772 46.536C31.3244 46.5696 31.4344 46.6017 31.5072 46.6276L31.3507 47.3072C31.2748 47.2705 31.1803 47.2415 31.0796 47.2186C30.9742 47.1957 30.8642 47.185 30.7434 47.185C30.6117 47.185 30.5001 47.2049 30.4072 47.243C30.3158 47.2812 30.2429 47.3347 30.1856 47.4019C30.1314 47.4721 30.0927 47.553 30.0694 47.6492C30.0477 47.747 30.0353 47.8539 30.0353 47.9654V48.2021H31.3445V48.8877H30.0353V51.7511H29.2034V47.9516C29.2034 47.495 29.3242 47.1361 29.5659 46.875C29.8107 46.6154 30.1794 46.4856 30.669 46.4856Z" fill="white"/>
<path fill-rule="evenodd" clip-rule="evenodd" d="M56.8738 28.8143C56.4245 29.1396 55.842 29.4206 55.1246 29.6558C54.4089 29.894 53.642 30.0116 52.8286 30.0116C51.3381 30.0116 50.125 29.4862 49.1831 28.4371C48.2411 27.3895 47.7717 25.7265 47.7717 23.4511C47.7717 21.3544 48.2628 19.6624 49.2466 18.3766C50.2289 17.0923 51.648 16.4494 53.5025 16.4494C54.319 16.4494 54.9914 16.4875 55.5259 16.5608C56.0604 16.6341 56.5081 16.7151 56.8738 16.8036V28.8143ZM58.4308 12.3725C56.9063 12.1067 55.2935 11.9739 53.597 11.9739C51.8417 11.9739 50.2738 12.2549 48.8949 12.8153C47.5129 13.3773 46.3401 14.1607 45.3765 15.164C44.4113 16.1704 43.6784 17.3814 43.1749 18.7985C42.6714 20.2172 42.4204 21.7687 42.4204 23.4516C42.4204 25.2551 42.6575 26.8433 43.1331 28.2162C43.6072 29.5906 44.2687 30.7359 45.1177 31.6506C45.9652 32.5669 46.9877 33.2617 48.1838 33.7351C49.3752 34.207 50.6906 34.4437 52.1298 34.4437C53.2252 34.4437 54.1951 34.3108 55.0425 34.0451C55.7784 33.813 56.3858 33.5824 56.8707 33.3518C56.8707 35.6043 55.9055 37.3925 52.8673 38.15C51.6248 38.4493 49.9608 38.3668 47.7391 37.7575C47.1256 38.8815 46.7662 40.8071 47.719 41.9326C48.5417 42.9008 50.5991 43.1039 51.8913 43.1039C54.7822 43.1039 57.9304 41.8807 59.4162 40.5445C61.342 38.8097 62.3056 36.0716 62.3056 32.3332L62.3149 13.2139C61.249 12.9192 59.9553 12.6382 58.4308 12.3725Z" fill="white"/>
</svg>
