<svg id="svg" version="1.1" xmlns="http://www.w3.org/2000/svg" xmlns:xlink="http://www.w3.org/1999/xlink" width="400" height="400" viewBox="0, 0, 400,400"><g id="svgg"><path id="path0" d="M82.167 120.836 C 82.167 120.929,82.237 121.135,82.324 121.294 C 82.410 121.453,82.717 122.183,83.005 122.917 C 84.266 126.120,85.843 129.972,86.158 130.617 C 86.346 131.002,86.500 131.418,86.500 131.542 C 86.500 131.666,86.580 131.847,86.678 131.945 C 86.776 132.043,86.873 132.237,86.894 132.376 C 86.929 132.619,88.032 135.268,88.348 135.873 C 88.432 136.032,88.500 136.239,88.500 136.333 C 88.500 136.427,88.655 136.859,88.845 137.293 C 89.530 138.859,89.709 139.257,89.913 139.667 C 90.028 139.896,90.169 140.283,90.227 140.526 C 90.285 140.770,90.495 141.332,90.693 141.776 C 90.892 142.220,91.042 142.640,91.027 142.708 C 91.012 142.777,91.075 142.833,91.167 142.833 C 91.258 142.833,91.333 142.942,91.333 143.074 C 91.333 143.317,91.830 144.578,93.239 147.917 C 93.665 148.925,94.288 150.462,94.624 151.333 C 94.960 152.204,95.294 152.942,95.367 152.972 C 95.440 153.003,95.500 153.137,95.500 153.271 C 95.500 153.404,95.642 153.792,95.815 154.132 C 95.989 154.472,96.148 154.825,96.169 154.917 C 96.190 155.008,96.272 155.255,96.352 155.466 C 96.432 155.676,96.544 156.032,96.600 156.257 C 96.657 156.482,96.770 156.667,96.851 156.667 C 96.933 156.667,96.982 156.723,96.961 156.792 C 96.918 156.929,97.192 157.623,99.051 162.083 C 99.547 163.275,100.185 164.850,100.467 165.583 C 100.750 166.317,101.135 167.232,101.324 167.617 C 101.512 168.002,101.667 168.398,101.667 168.498 C 101.667 168.597,101.788 168.863,101.936 169.089 C 102.084 169.315,102.150 169.500,102.082 169.500 C 102.014 169.500,102.034 169.594,102.125 169.708 C 102.216 169.823,102.784 171.154,103.387 172.667 C 103.990 174.179,104.754 176.054,105.086 176.833 C 105.417 177.612,105.883 178.775,106.121 179.417 C 106.358 180.058,106.609 180.658,106.678 180.750 C 106.747 180.842,107.118 181.704,107.502 182.667 C 107.886 183.629,108.376 184.829,108.591 185.333 C 108.805 185.838,109.218 186.850,109.507 187.583 C 109.795 188.317,110.112 189.104,110.210 189.333 C 110.308 189.563,110.401 189.787,110.417 189.833 C 110.432 189.879,110.544 190.142,110.665 190.417 C 110.786 190.692,110.902 190.992,110.924 191.083 C 110.984 191.336,111.974 193.789,112.150 194.124 C 112.235 194.285,112.466 194.829,112.662 195.333 C 112.859 195.838,113.121 196.475,113.244 196.750 C 113.694 197.754,114.721 200.277,115.516 202.333 C 115.817 203.112,116.124 203.775,116.198 203.806 C 116.273 203.836,116.333 204.000,116.333 204.169 C 116.333 204.338,116.563 204.988,116.844 205.613 C 117.125 206.239,117.415 206.900,117.489 207.083 C 117.800 207.857,118.404 209.300,118.691 209.957 C 118.861 210.345,119.000 210.710,119.000 210.768 C 119.000 210.938,121.330 216.538,121.628 217.083 C 121.779 217.358,121.888 217.601,121.872 217.623 C 121.856 217.645,121.980 217.982,122.148 218.373 C 122.315 218.764,122.510 219.271,122.580 219.500 C 122.695 219.872,123.786 222.558,124.172 223.417 C 124.254 223.600,124.664 224.607,125.082 225.654 C 125.499 226.702,125.924 227.658,126.024 227.779 C 126.125 227.901,126.164 228.000,126.111 228.000 C 126.028 228.000,126.492 229.185,127.254 230.917 C 127.375 231.192,127.524 231.593,127.587 231.808 C 127.747 232.365,127.790 232.305,129.419 229.250 C 129.811 228.517,130.428 227.381,130.792 226.727 C 131.156 226.073,131.671 225.079,131.935 224.519 C 132.200 223.958,132.473 223.500,132.541 223.500 C 132.610 223.500,132.667 223.350,132.667 223.167 C 132.667 222.983,132.728 222.833,132.803 222.833 C 132.878 222.833,133.262 222.177,133.655 221.375 C 134.486 219.681,134.838 219.022,135.227 218.428 C 135.381 218.193,135.472 218.000,135.428 218.000 C 135.384 218.000,135.781 217.231,136.311 216.292 C 136.841 215.352,137.464 214.208,137.695 213.750 C 138.819 211.524,139.063 211.079,139.193 211.028 C 139.270 210.997,139.333 210.838,139.333 210.673 C 139.333 210.509,139.438 210.287,139.565 210.182 C 139.693 210.076,139.893 209.748,140.010 209.453 C 140.126 209.158,140.333 208.785,140.470 208.625 C 140.607 208.465,140.660 208.333,140.589 208.333 C 140.517 208.333,140.550 208.224,140.660 208.091 C 140.881 207.826,141.166 207.304,142.262 205.167 C 142.661 204.387,143.227 203.338,143.520 202.833 C 144.022 201.967,145.719 198.743,146.634 196.917 C 146.864 196.458,147.158 195.959,147.289 195.806 C 147.419 195.654,147.542 195.418,147.562 195.281 C 147.582 195.145,147.675 194.932,147.769 194.808 C 147.863 194.685,148.338 193.796,148.824 192.833 C 149.310 191.871,149.766 191.008,149.836 190.917 C 149.907 190.825,150.245 190.225,150.587 189.583 C 150.930 188.942,151.553 187.779,151.973 187.000 C 153.908 183.406,154.372 182.522,154.771 181.667 C 155.007 181.162,155.248 180.713,155.308 180.667 C 155.368 180.621,155.600 180.208,155.823 179.750 C 156.047 179.292,156.319 178.804,156.428 178.667 C 156.538 178.529,156.684 178.229,156.753 178.000 C 156.822 177.771,156.928 177.546,156.988 177.500 C 157.048 177.454,157.339 176.929,157.634 176.333 C 158.590 174.406,159.231 173.331,159.348 173.458 C 159.411 173.527,159.931 174.783,160.503 176.250 C 161.076 177.717,161.609 178.988,161.689 179.075 C 161.768 179.162,161.833 179.322,161.833 179.430 C 161.833 179.538,162.037 180.067,162.287 180.605 C 162.536 181.143,162.743 181.622,162.745 181.669 C 162.748 181.716,162.964 182.279,163.225 182.919 C 163.486 183.559,163.754 184.233,163.821 184.417 C 163.888 184.600,164.097 185.088,164.285 185.500 C 164.909 186.864,165.136 187.405,165.564 188.545 C 165.975 189.641,166.283 190.385,166.752 191.417 C 167.112 192.210,167.844 194.059,167.908 194.338 C 167.940 194.478,168.226 195.155,168.543 195.841 C 169.033 196.903,169.334 197.643,169.420 198.000 C 169.431 198.046,169.520 198.271,169.618 198.500 C 170.362 200.244,171.067 201.952,171.509 203.083 C 171.795 203.817,172.173 204.731,172.348 205.116 C 172.523 205.500,172.669 205.875,172.672 205.949 C 172.675 206.023,172.823 206.383,173.000 206.750 C 173.177 207.117,173.325 207.483,173.328 207.565 C 173.331 207.647,173.476 208.022,173.650 208.398 C 174.167 209.518,174.833 211.117,174.833 211.238 C 174.833 211.301,174.974 211.666,175.145 212.051 C 175.317 212.435,175.720 213.387,176.042 214.167 C 177.239 217.063,178.545 220.266,178.728 220.750 C 178.832 221.025,178.954 221.287,179.000 221.333 C 179.046 221.379,179.107 221.553,179.135 221.720 C 179.163 221.887,179.482 222.660,179.843 223.438 C 180.204 224.216,180.500 224.881,180.500 224.916 C 180.500 224.950,180.587 225.189,180.694 225.447 C 180.801 225.706,180.901 225.954,180.917 226.000 C 180.932 226.046,181.036 226.308,181.147 226.583 C 181.259 226.858,181.542 227.571,181.777 228.167 C 182.012 228.762,182.261 229.325,182.330 229.417 C 182.399 229.508,182.588 229.996,182.750 230.500 C 182.912 231.004,183.100 231.492,183.168 231.583 C 183.237 231.675,183.349 231.938,183.419 232.167 C 183.489 232.396,183.771 233.071,184.046 233.667 C 184.321 234.262,184.548 234.844,184.551 234.958 C 184.553 235.073,184.618 235.167,184.694 235.167 C 184.771 235.167,184.833 235.303,184.833 235.469 C 184.833 235.635,185.011 236.141,185.228 236.594 C 185.446 237.046,185.980 238.317,186.416 239.417 C 186.851 240.517,187.374 241.792,187.577 242.250 C 187.895 242.969,188.103 243.490,188.839 245.417 C 188.909 245.600,189.102 246.050,189.268 246.417 C 189.435 246.783,189.578 247.121,189.587 247.167 C 189.596 247.213,189.730 247.540,189.885 247.895 C 190.040 248.250,190.167 248.614,190.167 248.703 C 190.167 248.792,190.275 249.064,190.407 249.308 C 190.631 249.719,191.461 251.711,192.051 253.250 C 192.191 253.617,192.478 254.292,192.687 254.750 C 192.897 255.208,193.053 255.640,193.034 255.708 C 193.015 255.777,193.079 255.833,193.177 255.833 C 193.274 255.833,193.314 255.896,193.267 255.973 C 193.219 256.050,193.317 256.369,193.485 256.682 C 193.652 256.994,193.780 257.290,193.770 257.339 C 193.759 257.388,193.890 257.763,194.062 258.172 C 194.233 258.582,194.448 259.104,194.539 259.333 C 194.631 259.563,194.784 259.900,194.880 260.083 C 195.079 260.463,197.330 266.028,197.947 267.667 C 198.172 268.262,198.425 268.821,198.511 268.908 C 198.597 268.995,198.667 269.162,198.667 269.278 C 198.667 269.395,198.843 269.886,199.059 270.370 C 199.538 271.444,199.717 271.882,199.736 272.028 C 199.744 272.089,199.806 272.195,199.875 272.264 C 199.944 272.333,200.000 272.482,200.000 272.596 C 200.000 272.710,200.252 273.354,200.560 274.027 C 200.868 274.700,201.442 276.075,201.835 277.083 C 202.741 279.411,202.867 279.558,203.231 278.721 C 203.384 278.370,203.799 277.558,204.154 276.917 C 204.509 276.275,205.226 274.925,205.747 273.917 C 206.268 272.910,206.755 272.010,206.831 271.917 C 206.906 271.825,207.488 270.737,208.124 269.500 C 210.169 265.518,211.390 263.255,211.616 263.028 C 211.737 262.906,211.798 262.744,211.750 262.667 C 211.703 262.591,211.721 262.503,211.791 262.473 C 211.860 262.442,212.063 262.117,212.242 261.750 C 212.421 261.383,212.676 260.952,212.809 260.792 C 212.943 260.631,213.007 260.500,212.952 260.500 C 212.898 260.500,213.104 260.069,213.410 259.542 C 213.716 259.015,214.413 257.721,214.959 256.667 C 216.319 254.041,216.735 253.264,216.836 253.167 C 216.883 253.121,217.267 252.408,217.689 251.583 C 219.154 248.720,219.584 247.926,219.793 247.700 C 219.909 247.575,219.964 247.411,219.917 247.334 C 219.870 247.258,219.888 247.170,219.957 247.139 C 220.027 247.108,220.297 246.671,220.559 246.167 C 222.639 242.158,223.425 240.687,223.702 240.292 C 223.878 240.040,223.961 239.832,223.886 239.831 C 223.811 239.829,223.825 239.773,223.917 239.706 C 224.008 239.638,224.259 239.246,224.473 238.833 C 224.688 238.421,225.167 237.500,225.538 236.787 C 225.910 236.074,226.278 235.451,226.357 235.402 C 226.436 235.353,226.500 235.207,226.500 235.076 C 226.500 234.946,226.799 234.350,227.165 233.753 C 227.531 233.155,227.781 232.667,227.722 232.667 C 227.663 232.667,227.726 232.535,227.863 232.375 C 227.999 232.215,228.313 231.671,228.560 231.167 C 228.807 230.662,229.379 229.575,229.830 228.750 C 230.281 227.925,230.882 226.800,231.166 226.250 C 231.450 225.700,231.976 224.725,232.335 224.083 C 232.693 223.442,233.270 222.372,233.617 221.707 L 234.247 220.497 234.609 221.290 C 234.808 221.726,234.960 222.121,234.947 222.167 C 234.934 222.213,235.053 222.435,235.211 222.662 C 235.370 222.889,235.500 223.168,235.500 223.282 C 235.500 223.397,235.688 223.900,235.917 224.401 C 236.146 224.902,236.333 225.357,236.333 225.411 C 236.333 225.466,236.457 225.790,236.608 226.130 C 236.759 226.471,237.012 227.088,237.170 227.500 C 237.785 229.103,240.043 234.601,240.217 234.917 C 240.318 235.100,240.424 235.390,240.452 235.561 C 240.480 235.732,240.613 236.069,240.748 236.311 C 240.882 236.552,241.246 237.387,241.558 238.167 C 242.022 239.328,243.049 241.804,244.046 244.167 C 244.143 244.396,244.228 244.623,244.236 244.672 C 244.244 244.721,244.375 245.058,244.528 245.422 C 244.681 245.786,244.978 246.533,245.187 247.083 C 245.397 247.633,245.631 248.169,245.707 248.275 C 245.783 248.380,245.873 248.608,245.907 248.781 C 245.940 248.955,246.200 249.589,246.484 250.190 C 246.768 250.791,247.000 251.391,247.000 251.524 C 247.000 251.658,247.066 251.838,247.147 251.925 C 247.227 252.012,247.614 252.908,248.005 253.917 C 248.396 254.925,248.780 255.821,248.858 255.908 C 248.936 255.995,249.000 256.165,249.000 256.285 C 249.000 256.405,249.156 256.859,249.347 257.293 C 250.075 258.952,250.211 259.277,250.584 260.249 C 250.795 260.800,251.081 261.512,251.219 261.833 C 251.357 262.154,251.477 262.472,251.487 262.541 C 251.496 262.609,251.723 263.096,251.990 263.624 C 252.257 264.152,252.529 264.808,252.594 265.083 C 252.659 265.358,252.768 265.658,252.835 265.750 C 252.903 265.842,253.237 266.629,253.578 267.500 C 253.919 268.371,254.341 269.398,254.516 269.783 C 254.690 270.167,254.833 270.527,254.833 270.583 C 254.833 270.639,254.972 271.000,255.142 271.384 C 255.510 272.217,255.661 272.633,255.648 272.775 C 255.643 272.832,255.703 272.925,255.783 272.981 C 255.901 273.064,256.876 275.371,256.919 275.667 C 256.925 275.712,257.089 276.100,257.283 276.527 C 257.476 276.954,257.689 277.479,257.754 277.693 C 257.820 277.908,257.930 278.158,257.997 278.250 C 258.065 278.342,258.171 278.626,258.232 278.882 C 258.377 279.490,258.583 279.340,259.171 278.192 C 260.560 275.482,261.067 274.508,261.483 273.750 C 262.256 272.346,263.504 269.994,264.313 268.417 C 264.737 267.592,265.130 266.879,265.187 266.833 C 265.244 266.787,265.453 266.412,265.651 266.000 C 265.849 265.587,266.318 264.688,266.692 264.000 C 267.067 263.313,267.643 262.225,267.972 261.583 C 268.301 260.942,268.621 260.379,268.683 260.333 C 268.745 260.287,269.034 259.745,269.325 259.128 C 269.616 258.511,269.926 257.963,270.013 257.909 C 270.101 257.854,270.134 257.749,270.088 257.675 C 270.042 257.600,270.172 257.287,270.377 256.978 C 270.582 256.669,270.859 256.192,270.993 255.917 C 271.126 255.642,271.344 255.285,271.477 255.125 C 271.610 254.965,271.650 254.832,271.567 254.831 C 271.485 254.829,271.497 254.773,271.594 254.706 C 271.692 254.638,272.049 254.021,272.389 253.333 C 272.728 252.646,273.201 251.746,273.440 251.333 C 274.002 250.365,275.202 248.119,276.088 246.379 C 276.471 245.625,276.880 244.894,276.996 244.754 C 277.113 244.614,277.152 244.500,277.083 244.500 C 277.015 244.500,277.056 244.383,277.175 244.240 C 277.380 243.993,277.768 243.286,279.047 240.833 C 279.604 239.766,280.294 238.479,281.291 236.653 C 281.702 235.900,282.661 234.084,283.485 232.500 C 283.556 232.362,283.718 232.063,283.845 231.833 C 283.972 231.604,284.284 231.011,284.539 230.515 C 284.794 230.020,285.086 229.513,285.188 229.390 C 285.291 229.267,285.332 229.167,285.279 229.167 C 285.227 229.167,285.443 228.709,285.759 228.151 C 286.075 227.592,286.333 227.076,286.333 227.004 C 286.333 226.933,286.445 226.781,286.581 226.668 C 286.718 226.555,286.793 226.402,286.747 226.329 C 286.702 226.255,286.721 226.170,286.791 226.139 C 286.860 226.108,287.141 225.633,287.416 225.083 C 287.690 224.533,287.977 224.038,288.052 223.983 C 288.127 223.928,288.206 223.778,288.226 223.650 C 288.246 223.522,288.383 223.229,288.529 223.000 C 288.848 222.500,289.146 221.940,289.859 220.500 C 290.155 219.904,290.457 219.392,290.531 219.361 C 290.606 219.331,290.667 219.192,290.667 219.054 C 290.667 218.915,290.811 218.599,290.987 218.352 C 291.163 218.104,291.499 217.493,291.733 216.993 C 291.967 216.493,292.315 215.821,292.506 215.500 C 293.000 214.667,293.401 213.930,293.412 213.833 C 293.417 213.787,293.469 213.675,293.526 213.583 C 293.674 213.346,294.544 211.728,295.721 209.500 C 296.277 208.446,297.018 207.058,297.367 206.417 C 297.715 205.775,298.132 204.987,298.292 204.667 C 298.452 204.346,298.640 204.058,298.708 204.028 C 298.777 203.997,298.833 203.833,298.833 203.663 C 298.833 203.492,298.897 203.314,298.974 203.266 C 299.051 203.218,299.356 202.708,299.651 202.131 C 299.947 201.555,300.593 200.333,301.089 199.417 C 301.584 198.500,302.161 197.412,302.370 197.000 C 302.579 196.588,302.844 196.150,302.960 196.028 C 303.075 195.906,303.131 195.744,303.084 195.667 C 303.037 195.591,303.056 195.503,303.127 195.473 C 303.260 195.415,303.755 194.523,304.684 192.667 C 304.982 192.071,305.269 191.546,305.321 191.500 C 305.420 191.414,305.649 190.982,306.957 188.417 C 307.378 187.592,307.865 186.710,308.039 186.458 C 308.213 186.206,308.308 186.000,308.250 186.000 C 308.192 186.000,308.289 185.794,308.467 185.542 C 308.645 185.290,308.938 184.783,309.118 184.417 C 309.744 183.140,311.030 180.749,311.202 180.542 C 311.297 180.427,311.322 180.333,311.259 180.333 C 311.196 180.333,311.284 180.127,311.455 179.875 C 311.626 179.623,311.858 179.229,311.970 179.000 C 312.082 178.771,312.620 177.758,313.164 176.750 C 313.709 175.742,314.400 174.429,314.700 173.833 C 314.999 173.237,315.283 172.713,315.331 172.667 C 315.378 172.621,315.677 172.058,315.994 171.417 C 316.312 170.775,316.614 170.212,316.665 170.167 C 316.791 170.054,317.833 168.063,317.833 167.935 C 317.833 167.879,316.666 167.833,315.240 167.833 C 313.715 167.833,312.686 167.896,312.741 167.986 C 312.793 168.070,312.779 168.163,312.709 168.194 C 312.578 168.252,312.386 168.593,311.316 170.667 C 310.962 171.354,310.608 171.994,310.530 172.089 C 310.452 172.184,310.087 172.859,309.719 173.589 C 308.598 175.816,307.245 178.369,306.696 179.292 C 306.410 179.773,306.220 180.167,306.275 180.167 C 306.329 180.167,306.286 180.273,306.177 180.404 C 306.069 180.534,305.737 181.115,305.439 181.695 C 304.816 182.907,303.676 185.032,302.391 187.377 C 301.901 188.272,301.500 189.047,301.500 189.101 C 301.500 189.155,301.345 189.416,301.155 189.683 C 300.966 189.949,300.854 190.167,300.907 190.167 C 300.961 190.167,300.832 190.448,300.621 190.792 C 300.410 191.135,300.052 191.792,299.827 192.250 C 299.601 192.708,299.379 193.121,299.333 193.167 C 299.287 193.213,299.063 193.625,298.833 194.083 C 298.604 194.542,298.375 194.954,298.325 195.000 C 298.274 195.046,298.020 195.496,297.760 196.000 C 297.500 196.504,296.988 197.479,296.623 198.167 C 296.257 198.854,295.620 200.054,295.206 200.833 C 294.793 201.612,294.380 202.344,294.290 202.458 C 294.200 202.573,294.182 202.667,294.250 202.667 C 294.318 202.667,294.275 202.786,294.155 202.931 C 293.930 203.202,293.272 204.415,291.903 207.083 C 291.480 207.908,290.918 208.958,290.654 209.417 C 290.391 209.875,290.107 210.401,290.024 210.585 C 289.940 210.769,289.652 211.294,289.382 211.751 C 289.112 212.209,288.870 212.658,288.845 212.750 C 288.819 212.842,288.623 213.217,288.409 213.583 C 288.194 213.950,287.819 214.662,287.575 215.167 C 287.331 215.671,286.922 216.458,286.665 216.917 C 286.188 217.771,285.052 219.908,284.054 221.833 C 283.744 222.429,283.420 223.029,283.332 223.167 C 282.862 223.906,282.189 225.166,282.080 225.516 C 282.011 225.736,281.823 226.084,281.663 226.289 L 281.372 226.662 281.005 225.789 C 280.804 225.309,280.495 224.612,280.319 224.239 C 280.144 223.866,280.000 223.509,280.000 223.446 C 280.000 223.382,279.841 222.974,279.647 222.540 C 278.996 221.083,278.864 220.758,278.169 218.926 C 277.788 217.923,277.332 216.803,277.155 216.437 C 276.978 216.070,276.833 215.706,276.833 215.626 C 276.833 215.546,276.611 215.034,276.340 214.487 C 276.069 213.941,275.837 213.439,275.825 213.372 C 275.813 213.305,275.697 212.997,275.568 212.688 C 275.439 212.379,275.333 212.038,275.333 211.930 C 275.333 211.822,275.268 211.662,275.188 211.575 C 275.107 211.488,274.837 210.892,274.587 210.250 C 274.337 209.608,274.034 208.858,273.914 208.583 C 273.794 208.308,273.308 207.108,272.834 205.917 C 272.361 204.725,271.829 203.445,271.653 203.072 C 271.477 202.700,271.333 202.353,271.333 202.301 C 271.333 202.250,271.207 201.917,271.052 201.562 C 270.897 201.207,270.765 200.879,270.760 200.833 C 270.754 200.787,270.512 200.188,270.222 199.500 C 269.932 198.813,269.423 197.575,269.090 196.750 C 268.758 195.925,268.384 195.025,268.261 194.750 C 268.137 194.475,267.940 193.987,267.822 193.667 C 267.705 193.346,267.360 192.534,267.055 191.863 C 266.750 191.192,266.500 190.552,266.500 190.442 C 266.500 190.331,266.396 190.093,266.270 189.912 C 266.143 189.731,266.022 189.508,266.000 189.417 C 265.943 189.177,265.828 188.888,264.579 185.833 C 263.960 184.321,263.347 182.783,263.215 182.417 C 263.084 182.050,262.907 181.679,262.822 181.592 C 262.736 181.505,262.666 181.317,262.666 181.175 C 262.665 181.033,262.546 180.692,262.401 180.417 C 262.256 180.142,261.956 179.429,261.734 178.833 C 261.325 177.736,261.271 177.606,260.732 176.417 C 260.565 176.050,260.424 175.713,260.417 175.667 C 260.390 175.474,259.766 173.903,259.656 173.750 C 259.591 173.658,259.224 172.796,258.841 171.833 C 258.458 170.871,258.061 169.896,257.959 169.667 C 257.857 169.438,257.765 169.212,257.754 169.167 C 257.413 167.693,257.172 167.635,256.542 168.875 C 256.250 169.448,255.360 171.154,254.563 172.667 C 253.765 174.179,253.002 175.642,252.866 175.917 C 252.729 176.192,252.505 176.548,252.366 176.708 C 252.228 176.869,252.176 177.000,252.250 177.000 C 252.324 177.000,252.273 177.131,252.137 177.292 C 252.001 177.452,251.685 177.985,251.434 178.475 C 250.851 179.618,249.521 182.144,247.999 185.000 C 247.339 186.237,246.443 187.925,246.008 188.750 C 245.064 190.536,244.246 192.052,243.489 193.417 C 243.184 193.967,242.715 194.867,242.447 195.417 C 242.180 195.967,241.814 196.623,241.636 196.875 C 241.457 197.127,241.362 197.333,241.426 197.333 C 241.489 197.333,241.465 197.427,241.372 197.542 C 241.147 197.818,240.557 198.876,240.016 199.973 C 239.511 200.996,238.068 203.663,237.730 204.199 C 237.509 204.548,237.379 204.833,237.440 204.833 C 237.502 204.833,237.436 204.965,237.294 205.125 C 237.153 205.285,236.794 205.942,236.497 206.583 C 236.201 207.225,235.911 207.787,235.853 207.833 C 235.795 207.879,235.549 208.292,235.307 208.750 C 235.065 209.208,234.587 210.108,234.245 210.750 C 233.318 212.490,231.828 215.359,230.828 217.333 C 230.340 218.296,229.860 219.138,229.762 219.206 C 229.664 219.273,229.651 219.329,229.734 219.331 C 229.817 219.332,229.775 219.465,229.641 219.625 C 229.506 219.785,229.185 220.329,228.927 220.833 C 228.406 221.850,226.966 224.606,226.252 225.955 C 225.818 226.772,225.500 226.961,225.500 226.401 C 225.500 226.266,225.376 225.877,225.226 225.536 C 225.075 225.196,224.931 224.819,224.906 224.700 C 224.881 224.580,224.753 224.318,224.622 224.116 C 224.491 223.915,224.288 223.450,224.170 223.083 C 224.053 222.717,223.882 222.323,223.791 222.208 C 223.700 222.094,223.668 222.000,223.719 222.000 C 223.770 222.000,223.589 221.494,223.315 220.875 C 222.609 219.278,222.574 219.194,222.155 218.083 C 221.948 217.533,221.602 216.727,221.386 216.292 C 221.171 215.856,221.042 215.500,221.100 215.500 C 221.158 215.500,221.097 215.331,220.966 215.125 C 220.703 214.713,220.165 213.409,220.080 212.977 C 220.051 212.827,219.948 212.565,219.853 212.394 C 219.757 212.223,219.421 211.446,219.105 210.667 C 218.789 209.887,218.270 208.612,217.951 207.833 C 217.632 207.054,217.239 206.058,217.077 205.620 C 216.916 205.181,216.720 204.783,216.642 204.735 C 216.564 204.686,216.500 204.545,216.500 204.421 C 216.500 204.296,216.337 203.832,216.139 203.389 C 215.940 202.946,215.767 202.546,215.755 202.500 C 215.652 202.106,215.376 201.413,214.960 200.500 C 214.688 199.904,214.441 199.294,214.412 199.144 C 214.383 198.994,214.285 198.731,214.194 198.561 C 214.007 198.210,213.699 197.493,213.184 196.208 C 212.113 193.536,211.858 192.927,211.238 191.558 C 211.107 191.269,211.000 190.928,211.000 190.800 C 211.000 190.672,210.935 190.495,210.855 190.408 C 210.727 190.268,208.875 185.844,208.766 185.417 C 208.743 185.325,208.605 184.987,208.461 184.667 C 208.121 183.914,207.517 182.447,206.811 180.667 C 206.503 179.887,206.213 179.213,206.167 179.167 C 206.121 179.121,206.058 178.933,206.028 178.750 C 205.997 178.567,205.903 178.345,205.819 178.258 C 205.735 178.171,205.667 178.002,205.667 177.882 C 205.667 177.761,205.526 177.345,205.355 176.957 C 205.183 176.568,204.842 175.762,204.595 175.167 C 204.349 174.571,204.039 173.884,203.907 173.641 C 203.775 173.398,203.667 173.113,203.667 173.009 C 203.667 172.905,203.442 172.338,203.167 171.750 C 202.892 171.162,202.667 170.636,202.667 170.581 C 202.667 170.526,202.523 170.167,202.348 169.783 C 202.173 169.398,201.796 168.483,201.510 167.750 C 200.982 166.396,200.877 166.140,200.491 165.250 C 200.372 164.975,200.268 164.700,200.262 164.639 C 200.255 164.578,200.194 164.472,200.125 164.403 C 200.056 164.334,200.000 164.177,200.000 164.054 C 200.000 163.931,199.850 163.493,199.667 163.082 C 199.483 162.670,199.174 161.977,198.978 161.542 C 198.783 161.106,198.070 159.362,197.393 157.667 C 196.717 155.971,196.089 154.415,195.998 154.208 C 195.583 153.264,195.037 151.917,194.984 151.705 C 194.967 151.638,194.714 151.058,194.422 150.417 C 194.130 149.775,193.875 149.195,193.857 149.127 C 193.747 148.714,193.604 148.340,193.334 147.750 C 193.166 147.383,192.832 146.596,192.590 146.000 C 191.910 144.320,191.912 144.325,191.345 143.000 C 191.051 142.313,190.785 141.637,190.755 141.500 C 190.725 141.362,190.506 140.809,190.267 140.271 C 190.028 139.732,189.833 139.189,189.833 139.063 C 189.833 138.937,189.771 138.833,189.694 138.833 C 189.618 138.833,189.553 138.740,189.551 138.625 C 189.548 138.510,189.354 138.003,189.119 137.498 C 188.885 136.992,188.594 136.261,188.472 135.873 C 188.351 135.484,188.195 135.167,188.126 135.167 C 188.057 135.167,188.000 135.060,188.000 134.929 C 188.000 134.799,187.578 133.693,187.063 132.471 C 186.548 131.249,186.030 129.987,185.912 129.667 C 185.794 129.346,185.570 128.783,185.413 128.417 C 185.256 128.050,185.133 127.712,185.139 127.667 C 185.145 127.621,185.055 127.433,184.937 127.250 C 184.820 127.067,184.511 126.298,184.250 125.542 C 183.989 124.785,183.714 124.167,183.638 124.167 C 183.562 124.167,183.500 124.079,183.500 123.971 C 183.500 123.775,182.830 121.987,182.431 121.119 C 182.157 120.522,182.137 120.547,180.747 123.250 C 180.134 124.442,179.344 125.942,178.990 126.583 C 178.636 127.225,178.293 127.862,178.228 128.000 C 178.162 128.137,177.550 129.300,176.866 130.583 C 176.182 131.867,175.268 133.592,174.835 134.417 C 174.402 135.242,173.684 136.592,173.239 137.417 C 172.250 139.253,171.357 140.951,170.741 142.167 C 170.486 142.671,170.224 143.121,170.160 143.167 C 170.095 143.212,169.874 143.625,169.667 144.083 C 169.460 144.542,169.162 145.104,169.003 145.333 C 168.845 145.563,168.665 145.956,168.604 146.208 C 168.544 146.460,168.420 146.667,168.330 146.667 C 168.240 146.667,168.167 146.769,168.167 146.894 C 168.167 147.019,168.017 147.312,167.833 147.545 C 167.650 147.779,167.500 148.089,167.500 148.235 C 167.500 148.381,167.425 148.500,167.333 148.500 C 167.242 148.500,167.167 148.646,167.167 148.823 C 167.167 149.001,167.083 149.199,166.981 149.262 C 166.879 149.325,166.650 149.685,166.471 150.063 C 166.293 150.441,165.853 151.275,165.494 151.917 C 165.135 152.558,164.797 153.196,164.742 153.333 C 164.621 153.636,164.564 153.747,163.714 155.333 C 163.346 156.021,162.650 157.333,162.168 158.250 C 161.686 159.167,161.217 160.010,161.125 160.125 C 161.034 160.240,161.011 160.333,161.074 160.333 C 161.138 160.333,161.043 160.540,160.865 160.792 C 160.686 161.044,160.184 161.925,159.749 162.750 C 159.314 163.575,158.715 164.700,158.416 165.250 C 157.914 166.177,157.412 167.118,155.306 171.083 C 154.868 171.908,154.196 173.183,153.813 173.917 C 153.430 174.650,152.908 175.625,152.653 176.083 C 152.397 176.542,151.920 177.457,151.592 178.117 C 150.810 179.690,150.794 179.692,150.196 178.288 C 149.913 177.626,149.554 176.783,149.398 176.417 C 149.241 176.050,149.102 175.713,149.088 175.667 C 149.074 175.621,148.936 175.293,148.782 174.938 C 148.627 174.583,148.500 174.194,148.500 174.073 C 148.500 173.952,148.433 173.812,148.352 173.761 C 148.270 173.711,148.152 173.463,148.089 173.210 C 147.972 172.740,147.856 172.458,147.100 170.802 C 146.862 170.281,146.667 169.766,146.667 169.658 C 146.667 169.550,146.524 169.189,146.350 168.856 C 145.947 168.085,145.500 167.067,145.500 166.919 C 145.500 166.857,145.270 166.268,144.988 165.611 C 144.707 164.954,144.248 163.854,143.968 163.167 C 143.688 162.479,143.380 161.729,143.283 161.500 C 143.186 161.271,143.095 161.046,143.081 161.000 C 143.067 160.954,142.968 160.710,142.861 160.458 C 142.354 159.263,142.278 159.061,142.220 158.756 C 142.186 158.575,142.047 158.259,141.912 158.053 C 141.777 157.846,141.509 157.244,141.318 156.714 C 141.127 156.184,140.839 155.450,140.679 155.083 C 140.519 154.717,139.907 153.217,139.319 151.750 C 138.731 150.283,138.211 149.046,138.163 149.000 C 138.089 148.930,136.796 145.747,136.741 145.500 C 136.730 145.454,136.643 145.229,136.547 145.000 C 136.001 143.702,135.402 142.251,134.897 141.000 C 134.583 140.221,134.252 139.415,134.163 139.208 C 134.073 139.002,133.927 138.665,133.838 138.458 C 133.749 138.252,133.516 137.671,133.321 137.167 C 133.126 136.662,132.893 136.063,132.805 135.833 C 132.716 135.604,132.664 135.417,132.689 135.417 C 132.714 135.417,132.572 135.117,132.374 134.750 C 132.050 134.153,131.209 132.178,131.095 131.750 C 131.071 131.658,130.973 131.396,130.876 131.167 C 130.780 130.938,130.274 129.700,129.751 128.417 C 129.228 127.133,128.666 125.783,128.501 125.417 C 127.989 124.277,127.642 123.427,127.583 123.167 C 127.552 123.029,127.394 122.617,127.232 122.250 C 127.070 121.883,126.930 121.546,126.921 121.500 C 126.912 121.454,126.811 121.248,126.697 121.042 L 126.488 120.667 104.327 120.667 C 89.467 120.667,82.167 120.722,82.167 120.836 M237.306 121.544 C 235.650 124.797,234.911 126.202,234.417 127.042 C 234.107 127.569,233.896 128.000,233.947 128.000 C 233.999 128.000,233.949 128.111,233.836 128.246 C 233.724 128.382,233.408 128.925,233.134 129.455 C 232.859 129.984,232.352 130.942,232.005 131.583 C 231.658 132.225,231.019 133.425,230.584 134.250 C 230.149 135.075,229.578 136.139,229.314 136.615 C 229.050 137.091,228.550 138.029,228.203 138.699 C 227.856 139.369,227.502 140.029,227.416 140.167 C 227.330 140.304,227.243 140.528,227.222 140.664 C 227.202 140.799,227.106 140.937,227.009 140.969 C 226.912 141.001,226.833 141.086,226.833 141.157 C 226.833 141.229,226.539 141.823,226.179 142.477 C 225.820 143.131,225.569 143.667,225.622 143.667 C 225.675 143.667,225.612 143.798,225.482 143.958 C 225.353 144.119,225.125 144.475,224.977 144.750 C 224.197 146.199,222.888 148.680,222.537 149.374 C 222.318 149.809,222.069 150.207,221.986 150.259 C 221.902 150.311,221.833 150.499,221.833 150.677 C 221.833 150.854,221.777 151.001,221.708 151.001 C 221.640 151.002,221.504 151.171,221.408 151.376 C 221.311 151.582,220.793 152.575,220.257 153.583 C 219.720 154.592,219.175 155.642,219.046 155.917 C 218.917 156.192,218.728 156.567,218.624 156.750 C 218.247 157.420,217.602 158.607,217.085 159.583 C 215.655 162.281,214.553 164.345,214.060 165.250 C 213.761 165.800,213.209 166.850,212.834 167.583 C 212.458 168.317,211.926 169.320,211.650 169.813 C 211.336 170.375,211.193 170.811,211.268 170.980 C 211.334 171.129,211.401 171.287,211.417 171.333 C 211.466 171.477,211.705 172.058,211.999 172.750 C 212.154 173.117,212.494 173.942,212.754 174.583 C 213.375 176.117,213.378 176.119,213.816 175.294 C 214.024 174.903,214.521 173.983,214.920 173.250 C 215.320 172.517,215.887 171.429,216.182 170.833 C 216.476 170.237,216.768 169.712,216.830 169.667 C 216.892 169.621,217.338 168.796,217.822 167.833 C 218.305 166.871,218.823 165.858,218.973 165.583 C 219.123 165.308,219.615 164.408,220.066 163.583 C 220.517 162.758,221.300 161.296,221.806 160.333 C 222.313 159.371,223.085 157.908,223.521 157.083 C 223.958 156.258,224.507 155.208,224.740 154.750 C 224.973 154.292,225.497 153.317,225.903 152.583 C 226.310 151.850,226.887 150.762,227.185 150.167 C 227.484 149.571,227.845 148.944,227.989 148.774 C 228.133 148.604,228.230 148.435,228.205 148.397 C 228.163 148.335,228.460 147.731,228.933 146.917 C 229.040 146.733,229.438 145.983,229.820 145.250 C 230.201 144.517,230.806 143.392,231.166 142.750 C 231.525 142.108,232.052 141.136,232.336 140.589 C 232.619 140.043,232.932 139.499,233.030 139.381 C 233.127 139.263,233.152 139.167,233.083 139.167 C 233.015 139.167,233.037 139.073,233.131 138.958 C 233.305 138.749,234.077 137.339,235.119 135.333 C 235.428 134.737,235.908 133.837,236.184 133.333 C 236.461 132.829,237.216 131.404,237.863 130.167 C 238.510 128.929,239.249 127.542,239.506 127.083 C 239.762 126.625,240.152 125.912,240.371 125.500 C 242.049 122.346,242.833 120.836,242.833 120.758 C 242.833 120.708,241.690 120.668,240.292 120.669 L 237.750 120.672 237.306 121.544 " stroke="none" fill="#1cc47c" fill-rule="evenodd"></path><path id="path1" d="" stroke="none" fill="#20c47c" fill-rule="evenodd"></path><path id="path2" d="" stroke="none" fill="#20c47c" fill-rule="evenodd"></path><path id="path3" d="" stroke="none" fill="#20c47c" fill-rule="evenodd"></path><path id="path4" d="" stroke="none" fill="#20c47c" fill-rule="evenodd"></path></g></svg>