<svg width="802" height="535" viewBox="0 0 802 535" fill="none" xmlns="http://www.w3.org/2000/svg">
<g clip-path="url(#clip0_20_12236)">
<path vector-effect="non-scaling-stroke" d="M414.494 229.703C413.584 232.15 410.866 233.416 408.419 232.506C405.972 231.595 404.706 228.878 405.617 226.431C406.527 223.984 409.245 222.718 411.692 223.628C414.139 224.539 415.405 227.256 414.494 229.703Z" fill="#86bc25" stroke="#D1D3D4" stroke-width="1.42267" stroke-linecap="round" stroke-linejoin="round"/>
<path vector-effect="non-scaling-stroke" d="M403.852 0.709961C418.819 0.709961 418.819 28.7792 433.785 28.7792C448.751 28.7792 448.751 0.709961 463.718 0.709961C478.684 0.709961 478.684 28.7792 493.651 28.7792C508.617 28.7792 508.617 0.709961 523.598 0.709961C538.579 0.709961 538.579 28.7792 553.545 28.7792" stroke="#D1D3D4" stroke-width="1.42267" stroke-linecap="round" stroke-linejoin="round"/>
<path vector-effect="non-scaling-stroke" d="M404.308 0.709961C389.341 0.709961 389.341 28.7792 374.375 28.7792C359.408 28.7792 359.408 0.709961 344.442 0.709961C329.475 0.709961 329.475 28.7792 314.509 28.7792C299.528 28.7792 299.528 0.709961 284.562 0.709961C269.581 0.709961 269.581 28.7792 254.615 28.7792" stroke="#D1D3D4" stroke-width="1.42267" stroke-linecap="round" stroke-linejoin="round"/>
<path vector-effect="non-scaling-stroke" d="M551.098 28.7793H793.222C797.661 28.7793 801.288 32.4071 801.288 36.8458L801.26 130.913C801.26 141.326 776.918 141.326 776.918 151.755C776.918 162.183 801.26 162.169 801.26 172.597C801.26 183.011 776.918 183.011 776.918 193.425C776.918 203.838 801.26 203.838 801.26 214.252C801.26 224.666 776.918 224.666 776.918 235.08L776.107 483.449C776.036 506.966 754.867 525.987 728.789 525.987H26.0631C12.0641 525.987 0.711182 515.758 0.711182 503.125V48.9385C0.711182 37.799 10.7268 28.7793 23.0613 28.7793H256.179" stroke="#D1D3D4" stroke-width="1.42267" stroke-linecap="round" stroke-linejoin="round"/>
<path vector-effect="non-scaling-stroke" d="M677.488 98.5615H587.618C585.787 98.5615 584.303 100.046 584.303 101.876V126.175C584.303 128.006 585.787 129.49 587.618 129.49H677.488C679.319 129.49 680.803 128.006 680.803 126.175V101.876C680.803 100.046 679.319 98.5615 677.488 98.5615Z" fill="black" stroke="white" stroke-width="1.42267" stroke-miterlimit="10"/>
<path vector-effect="non-scaling-stroke" d="M439.092 462.792C439.092 469.92 436.204 476.364 431.524 481.031L413.285 462.792H439.092Z" fill="black" stroke="white" stroke-width="1.42267" stroke-miterlimit="10"/>
<path vector-effect="non-scaling-stroke" d="M439.092 462.793H413.285V436.985C427.526 436.985 439.092 448.537 439.092 462.793Z" fill="black" stroke="white" stroke-width="1.42267" stroke-miterlimit="10"/>
<path vector-effect="non-scaling-stroke" d="M431.524 481.031C426.857 485.697 420.398 488.585 413.285 488.585C399.03 488.585 387.478 477.033 387.478 462.793C387.478 448.552 399.03 436.985 413.285 436.985V462.793L431.524 481.031Z" fill="black" stroke="white" stroke-width="1.42267" stroke-miterlimit="10"/>
<path vector-effect="non-scaling-stroke" d="M583.393 54.4453H631.949" stroke="white" stroke-width="1.42267" stroke-miterlimit="10"/>
<path vector-effect="non-scaling-stroke" d="M583.393 65.8125H680.505" stroke="white" stroke-width="1.42267" stroke-miterlimit="10"/>
<path vector-effect="non-scaling-stroke" d="M583.393 77.165H680.505" stroke="white" stroke-width="1.42267" stroke-miterlimit="10"/>
<path vector-effect="non-scaling-stroke" d="M583.393 88.5176H680.505" stroke="white" stroke-width="1.42267" stroke-miterlimit="10"/>
<path vector-effect="non-scaling-stroke" d="M701.104 185.928L683.705 203.327" stroke="#D1D3D4" stroke-width="1.42267" stroke-linecap="round" stroke-linejoin="round"/>
<path vector-effect="non-scaling-stroke" d="M683.705 185.928L701.104 203.327" stroke="#D1D3D4" stroke-width="1.42267" stroke-linecap="round" stroke-linejoin="round"/>
<path vector-effect="non-scaling-stroke" d="M451.469 430.5L442.762 439.207" stroke="white" stroke-width="1.42267" stroke-miterlimit="10"/>
<path vector-effect="non-scaling-stroke" d="M442.762 430.5L451.469 439.207" stroke="white" stroke-width="1.42267" stroke-miterlimit="10"/>
<path vector-effect="non-scaling-stroke" d="M759.106 53.6904H700.948C696.076 53.6904 692.127 57.6395 692.127 62.511V120.67C692.127 125.541 696.076 129.49 700.948 129.49H759.106C763.978 129.49 767.927 125.541 767.927 120.67V62.511C767.927 57.6395 763.978 53.6904 759.106 53.6904Z" fill="black" stroke="white" stroke-width="1.42267" stroke-miterlimit="10"/>
<path vector-effect="non-scaling-stroke" d="M747.625 89.143C747.625 91.2058 749.304 92.8846 751.367 92.8846C753.43 92.8846 755.108 91.2058 755.108 89.143C755.108 87.0801 753.43 85.4014 751.367 85.4014C749.304 85.4014 747.625 87.0801 747.625 89.143Z" fill="black" stroke="white" stroke-width="1.42267" stroke-miterlimit="10"/>
<path vector-effect="non-scaling-stroke" d="M734.537 67.3477L740.213 72.3697L735.362 77.8327" fill="black"/>
<path vector-effect="non-scaling-stroke" d="M734.537 67.3477L740.213 72.3697L735.362 77.8327" stroke="white" stroke-width="1.42267" stroke-miterlimit="10"/>
<path vector-effect="non-scaling-stroke" d="M716.611 64.4043L709.768 71.2473" stroke="white" stroke-width="1.42267" stroke-miterlimit="10"/>
<path vector-effect="non-scaling-stroke" d="M709.768 64.4043L716.611 71.2473" stroke="white" stroke-width="1.42267" stroke-miterlimit="10"/>
<path vector-effect="non-scaling-stroke" d="M737.951 101.193L731.108 108.051" stroke="white" stroke-width="1.42267" stroke-miterlimit="10"/>
<path vector-effect="non-scaling-stroke" d="M731.108 101.193L737.951 108.051" stroke="white" stroke-width="1.42267" stroke-miterlimit="10"/>
<path vector-effect="non-scaling-stroke" d="M728.761 72.3701C719.756 72.3701 713.382 74.9451 708.203 79.0851C706.439 80.4935 704.803 82.1438 703.85 84.1925C702.897 86.2411 702.74 88.745 703.85 90.7225C704.547 91.9745 705.7 92.8992 706.667 93.9662C707.634 95.019 708.488 96.3563 708.388 97.779C708.218 100.027 705.913 101.393 704.576 103.199C702.598 105.874 702.854 109.8 704.675 112.589C706.496 115.377 709.612 117.127 712.856 117.924C716.085 118.721 721.719 118.891 725.048 118.735" stroke="white" stroke-width="1.42267" stroke-miterlimit="10"/>
<path vector-effect="non-scaling-stroke" d="M669.08 443.787V488.63" stroke="white" stroke-width="1.42267" stroke-miterlimit="10"/>
<path vector-effect="non-scaling-stroke" d="M691.501 466.209H646.659" stroke="white" stroke-width="1.42267" stroke-miterlimit="10"/>
<path vector-effect="non-scaling-stroke" d="M680.035 455.254L658.112 477.177" stroke="white" stroke-width="1.42267" stroke-miterlimit="10"/>
<path vector-effect="non-scaling-stroke" d="M680.035 477.177L658.112 455.254" stroke="white" stroke-width="1.42267" stroke-miterlimit="10"/>
<path vector-effect="non-scaling-stroke" d="M35.3675 72.2012H98.3063C100.198 72.2012 101.735 73.7377 101.735 75.6298V115.322C101.735 117.214 100.198 118.751 98.3063 118.751H92.7579V134.187H92.1746L77.322 118.751H35.3818C33.4896 118.751 31.9531 117.214 31.9531 115.322V75.6298C31.9531 73.7377 33.4896 72.2012 35.3818 72.2012H35.3675Z" fill="black" stroke="white" stroke-width="1.42267" stroke-miterlimit="10"/>
<path vector-effect="non-scaling-stroke" d="M87.11 95.2056H79.0862" stroke="white" stroke-width="1.42267" stroke-miterlimit="10"/>
<path vector-effect="non-scaling-stroke" d="M71.0053 95.2056H62.9814" stroke="white" stroke-width="1.42267" stroke-miterlimit="10"/>
<path vector-effect="non-scaling-stroke" d="M54.2606 95.2056H46.4075" stroke="white" stroke-width="1.42267" stroke-miterlimit="10"/>
<path vector-effect="non-scaling-stroke" d="M439.903 223.189C438.523 226.931 434.368 228.851 430.627 227.471C426.885 226.091 424.965 221.937 426.345 218.195C427.725 214.454 431.879 212.533 435.62 213.913C439.362 215.293 441.283 219.447 439.903 223.189Z" stroke="#D1D3D4" stroke-width="1.42267" stroke-linecap="round" stroke-linejoin="round"/>
<path vector-effect="non-scaling-stroke" d="M462.623 213.129C462.623 217.113 459.394 220.357 455.396 220.357C451.398 220.357 448.169 217.127 448.169 213.129C448.169 209.132 451.398 205.902 455.396 205.902C459.394 205.902 462.623 209.132 462.623 213.129Z" stroke="#D1D3D4" stroke-width="1.42267" stroke-linecap="round" stroke-linejoin="round"/>
<path vector-effect="non-scaling-stroke" d="M486.965 209.274C486.965 213.257 483.735 216.501 479.738 216.501C475.74 216.501 472.51 213.272 472.51 209.274C472.51 205.276 475.74 202.047 479.738 202.047C483.735 202.047 486.965 205.276 486.965 209.274Z" stroke="#D1D3D4" stroke-width="1.42267" stroke-linecap="round" stroke-linejoin="round"/>
<path vector-effect="non-scaling-stroke" d="M222.277 68.8716H209.004C207.205 68.8716 205.746 70.3302 205.746 72.1295V85.403C205.746 87.2023 207.205 88.6609 209.004 88.6609H222.277C224.077 88.6609 225.535 87.2023 225.535 85.403V72.1295C225.535 70.3302 224.077 68.8716 222.277 68.8716Z" stroke="#D1D3D4" stroke-width="1.42267" stroke-linecap="round" stroke-linejoin="round"/>
<path vector-effect="non-scaling-stroke" d="M249.692 68.8716H236.419C234.619 68.8716 233.161 70.3302 233.161 72.1295V85.403C233.161 87.2023 234.619 88.6609 236.419 88.6609H249.692C251.491 88.6609 252.95 87.2023 252.95 85.403V72.1295C252.95 70.3302 251.491 68.8716 249.692 68.8716Z" stroke="#D1D3D4" stroke-width="1.42267" stroke-linecap="round" stroke-linejoin="round"/>
<path vector-effect="non-scaling-stroke" d="M206.642 93.7402H215.633" stroke="#D1D3D4" stroke-width="1.42267" stroke-linecap="round" stroke-linejoin="round"/>
<path vector-effect="non-scaling-stroke" d="M206.642 99.9712H224.639" stroke="#D1D3D4" stroke-width="1.42267" stroke-linecap="round" stroke-linejoin="round"/>
<path vector-effect="non-scaling-stroke" d="M206.642 106.189H224.639" stroke="#D1D3D4" stroke-width="1.42267" stroke-linecap="round" stroke-linejoin="round"/>
<path vector-effect="non-scaling-stroke" d="M206.642 112.42H224.639" stroke="#D1D3D4" stroke-width="1.42267" stroke-linecap="round" stroke-linejoin="round"/>
<path vector-effect="non-scaling-stroke" d="M234.142 93.7402H243.062" stroke="#D1D3D4" stroke-width="1.42267" stroke-linecap="round" stroke-linejoin="round"/>
<path vector-effect="non-scaling-stroke" d="M234.142 99.9712H251.968" stroke="#D1D3D4" stroke-width="1.42267" stroke-linecap="round" stroke-linejoin="round"/>
<path vector-effect="non-scaling-stroke" d="M234.142 106.189H251.968" stroke="#D1D3D4" stroke-width="1.42267" stroke-linecap="round" stroke-linejoin="round"/>
<path vector-effect="non-scaling-stroke" d="M234.142 112.42H251.968" stroke="#D1D3D4" stroke-width="1.42267" stroke-linecap="round" stroke-linejoin="round"/>
<path vector-effect="non-scaling-stroke" d="M310.027 58.4585H202.901C198.728 58.4585 195.346 61.8407 195.346 66.0129V115.266C195.346 119.438 198.728 122.82 202.901 122.82H310.027C314.2 122.82 317.582 119.438 317.582 115.266V66.0129C317.582 61.8407 314.2 58.4585 310.027 58.4585Z" stroke="white" stroke-width="1.42267" stroke-miterlimit="10"/>
<path vector-effect="non-scaling-stroke" d="M409.813 172.569L443.644 160.562L443.004 126.517L409.159 138.51L381.616 123.146L382.271 157.204L409.813 172.569Z" stroke="white" stroke-width="1.42267" stroke-miterlimit="10"/>
<path vector-effect="non-scaling-stroke" d="M381.616 123.145L415.447 111.138L443.004 126.517" stroke="white" stroke-width="1.42267" stroke-miterlimit="10"/>
<path vector-effect="non-scaling-stroke" d="M409.159 138.511L409.814 172.57" stroke="white" stroke-width="1.42267" stroke-miterlimit="10"/>
<path vector-effect="non-scaling-stroke" d="M443.645 160.562L416.102 145.197" stroke="white" stroke-width="1.42267" stroke-miterlimit="10"/>
<path vector-effect="non-scaling-stroke" d="M382.271 157.204L416.102 145.197L415.86 132.706L415.448 111.138" stroke="white" stroke-width="1.42267" stroke-miterlimit="10"/>
<path vector-effect="non-scaling-stroke" d="M404.592 231.324C404.592 231.324 404.564 231.324 404.535 231.324L397.863 231.168C397.763 231.168 397.692 231.068 397.706 230.954C397.706 230.841 397.792 230.741 397.891 230.755L404.564 230.912C404.663 230.912 404.734 231.011 404.72 231.125C404.72 231.225 404.663 231.296 404.592 231.324Z" fill="white"/>
<path vector-effect="non-scaling-stroke" d="M406.584 222.663C406.584 222.663 406.47 222.634 406.442 222.591L403.867 218.067C403.81 217.982 403.839 217.854 403.924 217.783C404.009 217.712 404.109 217.726 404.166 217.811L406.741 222.335C406.798 222.421 406.769 222.549 406.684 222.62C406.655 222.648 406.613 222.663 406.584 222.663Z" fill="white"/>
<path vector-effect="non-scaling-stroke" d="M415.803 222.191C415.803 222.191 415.76 222.191 415.746 222.191C415.661 222.163 415.618 222.049 415.661 221.935L417.396 217.069C417.439 216.956 417.539 216.899 417.624 216.927C417.709 216.956 417.752 217.069 417.709 217.183L415.974 222.049C415.945 222.134 415.874 222.191 415.803 222.191Z" fill="white"/>
<path vector-effect="non-scaling-stroke" d="M487.078 82.7559C486.58 83.2396 486.082 83.7375 485.584 84.2212Z" fill="black"/>
<path vector-effect="non-scaling-stroke" d="M487.078 82.7559C486.58 83.2396 486.082 83.7375 485.584 84.2212" stroke="white" stroke-width="1.42267" stroke-miterlimit="10"/>
<path vector-effect="non-scaling-stroke" d="M488.971 87.6215C489.469 87.1236 489.966 86.6399 490.464 86.1562C490.92 85.7151 491.389 85.2741 491.844 84.8473C495.671 81.2764 499.698 78.3315 504.179 78.3315C507.536 78.3315 510.624 79.555 512.857 81.7886C515.005 83.9226 516.2 86.7395 516.2 89.7128C516.2 93.0134 515.105 95.9583 513.113 97.9927C511.15 99.9987 508.305 101.108 505.118 101.108C499.072 101.108 494.491 97.1961 489.867 92.6862C489.312 92.1456 488.757 91.5908 488.188 91.0359L482.056 84.8189C481.971 84.7335 481.886 84.6481 481.8 84.5628C476.551 79.3416 470.59 73.5371 462.879 73.5371C458.725 73.5371 454.841 74.9313 451.811 77.4779C451.469 77.7624 451.128 78.0754 450.815 78.3884C450.687 78.5164 450.544 78.6587 450.431 78.7868C447.614 81.7744 446.063 85.644 446.063 89.7128C446.063 94.2796 447.642 98.4195 450.53 101.35C453.404 104.281 457.459 105.903 461.954 105.903C468.228 105.903 473.037 102.901 477.347 99.1167L479.339 101.108V93.6109H471.842L473.933 95.7023C470.334 98.8037 466.564 101.094 461.94 101.094C458.753 101.094 455.908 99.9845 453.945 97.9785C451.953 95.9441 450.857 92.9992 450.857 89.6986C450.857 86.9102 451.91 84.2498 453.816 82.1585" fill="black"/>
<path vector-effect="non-scaling-stroke" d="M488.971 87.6215C489.469 87.1236 489.966 86.6399 490.464 86.1562C490.92 85.7151 491.389 85.2741 491.844 84.8473C495.671 81.2764 499.698 78.3315 504.179 78.3315C507.536 78.3315 510.624 79.555 512.857 81.7886C515.005 83.9226 516.2 86.7395 516.2 89.7128C516.2 93.0134 515.105 95.9583 513.113 97.9927C511.15 99.9987 508.305 101.108 505.118 101.108C499.072 101.108 494.491 97.1961 489.867 92.6862C489.312 92.1456 488.757 91.5908 488.188 91.0359L482.056 84.8189C481.971 84.7335 481.886 84.6481 481.8 84.5628C476.551 79.3416 470.59 73.5371 462.879 73.5371C458.725 73.5371 454.841 74.9313 451.811 77.4779C451.469 77.7624 451.128 78.0754 450.815 78.3884C450.687 78.5164 450.544 78.6587 450.431 78.7868C447.614 81.7744 446.063 85.644 446.063 89.7128C446.063 94.2796 447.642 98.4195 450.53 101.35C453.404 104.281 457.459 105.903 461.954 105.903C468.228 105.903 473.037 102.901 477.347 99.1167L479.339 101.108V93.6109H471.842L473.933 95.7023C470.334 98.8037 466.564 101.094 461.94 101.094C458.753 101.094 455.908 99.9845 453.945 97.9785C451.953 95.9441 450.857 92.9992 450.857 89.6986C450.857 86.9102 451.91 84.2498 453.816 82.1585" stroke="white" stroke-width="1.42267" stroke-miterlimit="10"/>
<path vector-effect="non-scaling-stroke" d="M457.444 79.4985C456.647 79.8684 455.908 80.3237 455.21 80.8643Z" fill="black"/>
<path vector-effect="non-scaling-stroke" d="M457.444 79.4985C456.647 79.8684 455.908 80.3237 455.21 80.8643" stroke="white" stroke-width="1.42267" stroke-miterlimit="10"/>
<path vector-effect="non-scaling-stroke" d="M488.458 81.433C492.94 77.2504 497.99 73.5088 504.193 73.5088C508.831 73.5088 513.113 75.2302 516.257 78.3743C519.316 81.4188 521.009 85.445 521.009 89.6987C521.009 94.2655 519.43 98.4055 516.542 101.336C513.668 104.267 509.613 105.889 505.118 105.889C496.368 105.889 490.493 100.056 484.802 94.4078L478.685 88.2049C473.805 83.3394 468.74 78.3174 462.893 78.3174C461.613 78.3174 460.361 78.5023 459.194 78.8438" fill="black"/>
<path vector-effect="non-scaling-stroke" d="M488.458 81.433C492.94 77.2504 497.99 73.5088 504.193 73.5088C508.831 73.5088 513.113 75.2302 516.257 78.3743C519.316 81.4188 521.009 85.445 521.009 89.6987C521.009 94.2655 519.43 98.4055 516.542 101.336C513.668 104.267 509.613 105.889 505.118 105.889C496.368 105.889 490.493 100.056 484.802 94.4078L478.685 88.2049C473.805 83.3394 468.74 78.3174 462.893 78.3174C461.613 78.3174 460.361 78.5023 459.194 78.8438" stroke="white" stroke-width="1.42267" stroke-miterlimit="10"/>
<path vector-effect="non-scaling-stroke" d="M703.21 452.891C702.684 451.07 702.399 449.163 702.399 447.2C702.399 436.061 711.419 427.041 722.559 427.041C729.373 427.041 735.391 430.413 739.033 435.577" fill="black"/>
<path vector-effect="non-scaling-stroke" d="M703.21 452.891C702.684 451.07 702.399 449.163 702.399 447.2C702.399 436.061 711.419 427.041 722.559 427.041C729.373 427.041 735.391 430.413 739.033 435.577" stroke="white" stroke-width="1.42267" stroke-miterlimit="10"/>
<path vector-effect="non-scaling-stroke" d="M704.448 455.068C704.903 455.964 705.43 456.818 706.013 457.629C709.484 462.452 715.232 465.61 721.748 465.61C732.375 465.61 740.982 457.202 740.982 446.816C740.982 444.967 740.712 443.174 740.2 441.481" fill="black"/>
<path vector-effect="non-scaling-stroke" d="M704.448 455.068C704.903 455.964 705.43 456.818 706.013 457.629C709.484 462.452 715.232 465.61 721.748 465.61C732.375 465.61 740.982 457.202 740.982 446.816C740.982 444.967 740.712 443.174 740.2 441.481" stroke="white" stroke-width="1.42267" stroke-miterlimit="10"/>
<path vector-effect="non-scaling-stroke" d="M727.254 434.039C725.803 433.527 724.295 433.256 722.801 433.242Z" fill="black"/>
<path vector-effect="non-scaling-stroke" d="M727.254 434.039C725.803 433.527 724.295 433.256 722.801 433.242" stroke="white" stroke-width="1.42267" stroke-miterlimit="10"/>
<path vector-effect="non-scaling-stroke" d="M719.728 433.542C715.118 434.495 711.107 437.767 709.414 442.505Z" fill="black"/>
<path vector-effect="non-scaling-stroke" d="M719.728 433.542C715.118 434.495 711.107 437.767 709.414 442.505" stroke="white" stroke-width="1.42267" stroke-miterlimit="10"/>
<path vector-effect="non-scaling-stroke" d="M717.893 460.344C719.344 460.856 720.852 461.126 722.346 461.14Z" fill="black"/>
<path vector-effect="non-scaling-stroke" d="M717.893 460.344C719.344 460.856 720.852 461.126 722.346 461.14" stroke="white" stroke-width="1.42267" stroke-miterlimit="10"/>
<path vector-effect="non-scaling-stroke" d="M725.419 460.843C730.028 459.889 734.04 456.617 735.733 451.88Z" fill="black"/>
<path vector-effect="non-scaling-stroke" d="M725.419 460.843C730.028 459.889 734.04 456.617 735.733 451.88" stroke="white" stroke-width="1.42267" stroke-miterlimit="10"/>
<path vector-effect="non-scaling-stroke" d="M726.144 443.501C726.144 441.652 724.65 440.158 722.801 440.158C720.951 440.158 719.458 441.652 719.458 443.501C719.458 445.351 720.951 446.845 722.801 446.845C724.65 446.845 726.144 448.339 726.144 450.188C726.144 452.037 724.65 453.531 722.801 453.531C720.951 453.531 719.458 452.037 719.458 450.188" fill="black"/>
<path vector-effect="non-scaling-stroke" d="M726.144 443.501C726.144 441.652 724.65 440.158 722.801 440.158C720.951 440.158 719.458 441.652 719.458 443.501C719.458 445.351 720.951 446.845 722.801 446.845C724.65 446.845 726.144 448.339 726.144 450.188C726.144 452.037 724.65 453.531 722.801 453.531C720.951 453.531 719.458 452.037 719.458 450.188" stroke="white" stroke-width="1.42267" stroke-miterlimit="10"/>
<path vector-effect="non-scaling-stroke" d="M722.801 440.158V437.654Z" fill="black"/>
<path vector-effect="non-scaling-stroke" d="M722.801 440.158V437.654" stroke="white" stroke-width="1.42267" stroke-miterlimit="10"/>
<path vector-effect="non-scaling-stroke" d="M722.801 456.021V453.517Z" fill="black"/>
<path vector-effect="non-scaling-stroke" d="M722.801 456.021V453.517" stroke="white" stroke-width="1.42267" stroke-miterlimit="10"/>
<path vector-effect="non-scaling-stroke" d="M261.528 474.373H289.555C291.945 474.373 293.894 476.322 293.894 478.712V506.739C293.894 509.129 291.945 511.078 289.555 511.078H261.528C259.138 511.078 257.189 509.129 257.189 506.739V478.712C257.189 476.322 259.138 474.373 261.528 474.373Z" fill="black" stroke="white" stroke-width="1.42267" stroke-miterlimit="10"/>
<path vector-effect="non-scaling-stroke" d="M266.081 483.265L285.017 502.186" stroke="white" stroke-width="1.42267" stroke-miterlimit="10"/>
<path vector-effect="non-scaling-stroke" d="M285.017 483.265L266.081 502.186" stroke="white" stroke-width="1.42267" stroke-miterlimit="10"/>
<path vector-effect="non-scaling-stroke" d="M261.529 426.97H289.555C291.945 426.97 293.894 428.919 293.894 431.309V459.335C293.894 461.725 291.945 463.675 289.555 463.675H261.529C259.139 463.675 257.189 461.725 257.189 459.335V431.309C257.189 428.919 259.139 426.97 261.529 426.97Z" fill="black" stroke="white" stroke-width="1.42267" stroke-miterlimit="10"/>
<path vector-effect="non-scaling-stroke" d="M264.502 444.623L272.611 452.732" stroke="white" stroke-width="1.42267" stroke-miterlimit="10"/>
<path vector-effect="non-scaling-stroke" d="M287.435 437.908L272.611 452.732" stroke="white" stroke-width="1.42267" stroke-miterlimit="10"/>
<path vector-effect="non-scaling-stroke" d="M241.313 426.97H132.223C130.046 426.97 128.282 428.734 128.282 430.911V507.123C128.282 509.299 130.046 511.064 132.223 511.064H241.313C243.489 511.064 245.253 509.299 245.253 507.123V430.911C245.253 428.734 243.489 426.97 241.313 426.97Z" fill="black" stroke="white" stroke-width="1.42267" stroke-miterlimit="10"/>
<path vector-effect="non-scaling-stroke" d="M164.361 451.426H233.986" stroke="white" stroke-width="1.42267" stroke-miterlimit="10"/>
<path vector-effect="non-scaling-stroke" d="M164.361 441.198H199.956" stroke="white" stroke-width="1.42267" stroke-miterlimit="10"/>
<path vector-effect="non-scaling-stroke" d="M155.568 441.198H140.943C140.173 441.198 139.549 441.822 139.549 442.592V450.318C139.549 451.088 140.173 451.712 140.943 451.712H155.568C156.338 451.712 156.963 451.088 156.963 450.318V442.592C156.963 441.822 156.338 441.198 155.568 441.198Z" fill="black" stroke="white" stroke-width="1.42267" stroke-miterlimit="10"/>
<path vector-effect="non-scaling-stroke" d="M155.568 461.669H140.943C140.173 461.669 139.549 462.293 139.549 463.063V470.788C139.549 471.558 140.173 472.182 140.943 472.182H155.568C156.338 472.182 156.963 471.558 156.963 470.788V463.063C156.963 462.293 156.338 461.669 155.568 461.669Z" fill="black" stroke="white" stroke-width="1.42267" stroke-miterlimit="10"/>
<path vector-effect="non-scaling-stroke" d="M152.211 496.995V490.11L165.498 486.155V481.488L178.786 474.788L192.074 474.759L205.362 466.508L212.432 461.955H218.564V496.967" fill="black"/>
<path vector-effect="non-scaling-stroke" d="M152.211 496.995V490.11L165.498 486.155V481.488L178.786 474.788L192.074 474.759L205.362 466.508L212.432 461.955H218.564V496.967" stroke="white" stroke-width="1.42267" stroke-miterlimit="10"/>
<path vector-effect="non-scaling-stroke" d="M165.499 481.489V496.996" stroke="white" stroke-width="1.42267" stroke-miterlimit="10"/>
<path vector-effect="non-scaling-stroke" d="M178.786 474.787V496.995" stroke="white" stroke-width="1.42267" stroke-miterlimit="10"/>
<path vector-effect="non-scaling-stroke" d="M192.074 474.76V496.968" stroke="white" stroke-width="1.42267" stroke-miterlimit="10"/>
<path vector-effect="non-scaling-stroke" d="M205.362 466.509V496.997" stroke="white" stroke-width="1.42267" stroke-miterlimit="10"/>
<path vector-effect="non-scaling-stroke" d="M218.564 461.952H230.998V496.964H139.549V490.107H152.211" stroke="white" stroke-width="1.42267" stroke-miterlimit="10"/>
<path vector-effect="non-scaling-stroke" d="M245.709 405.717H0.711426" stroke="#E5E5DC" stroke-width="1.42267" stroke-miterlimit="10"/>
<path vector-effect="non-scaling-stroke" d="M204.039 402.487C206.045 402.487 207.681 404.109 207.681 406.115C207.681 408.121 206.045 409.743 204.039 409.743C202.033 409.743 200.397 408.121 200.397 406.115C200.397 404.109 202.033 402.487 204.039 402.487Z" fill="black" stroke="#E5E5DC" stroke-width="1.42267" stroke-miterlimit="10"/>
<path vector-effect="non-scaling-stroke" d="M246.278 402.487C248.284 402.487 249.92 404.109 249.92 406.115C249.92 408.121 248.284 409.743 246.278 409.743C244.272 409.743 242.636 408.121 242.636 406.115C242.636 404.109 244.272 402.487 246.278 402.487Z" fill="black" stroke="#E5E5DC" stroke-width="1.42267" stroke-miterlimit="10"/>
<path vector-effect="non-scaling-stroke" d="M506.213 152.197H777.075Z" fill="black"/>
<path vector-effect="non-scaling-stroke" d="M506.213 152.197H777.075" stroke="white" stroke-width="1.42267" stroke-miterlimit="10"/>
<path vector-effect="non-scaling-stroke" d="M547.883 155.44C545.877 155.44 544.241 153.818 544.241 151.812C544.241 149.806 545.877 148.185 547.883 148.185C549.889 148.185 551.525 149.806 551.525 151.812C551.525 153.818 549.889 155.44 547.883 155.44Z" fill="black" stroke="white" stroke-width="1.42267" stroke-miterlimit="10"/>
<path vector-effect="non-scaling-stroke" d="M505.644 155.44C503.638 155.44 502.002 153.818 502.002 151.812C502.002 149.806 503.638 148.185 505.644 148.185C507.65 148.185 509.286 149.806 509.286 151.812C509.286 153.818 507.65 155.44 505.644 155.44Z" fill="black" stroke="white" stroke-width="1.42267" stroke-miterlimit="10"/>
<path vector-effect="non-scaling-stroke" d="M136.249 388.545H0.711426" stroke="#E5E5DC" stroke-width="1.42267" stroke-miterlimit="10"/>
<path vector-effect="non-scaling-stroke" d="M136.818 385.302C138.824 385.302 140.46 386.924 140.46 388.93C140.46 390.936 138.824 392.557 136.818 392.557C134.812 392.557 133.176 390.936 133.176 388.93C133.176 386.924 134.812 385.302 136.818 385.302Z" fill="black" stroke="#E5E5DC" stroke-width="1.42267" stroke-miterlimit="10"/>
<path vector-effect="non-scaling-stroke" d="M409.813 220.2V175.372" stroke="#939598" stroke-width="1.42267" stroke-linejoin="round"/>
<path vector-effect="non-scaling-stroke" d="M535.847 198.676C532.874 199.914 532.504 206.145 525.875 208.606C519.245 211.068 512.957 210.612 511.833 207.596C510.709 204.58 514.764 198.278 521.806 197.666C539.361 196.144 541.68 196.258 535.847 198.676Z" fill="#666666"/>
<path vector-effect="non-scaling-stroke" d="M673.178 289.911C672.295 290.579 670.019 291.604 669.009 291.902C663.432 293.553 661.298 294.605 656.902 294.634C657.229 295.857 659.989 297.55 661.284 298.902C662.166 299.827 662.422 301.135 661.369 301.875C660.374 302.572 659.264 302.074 658.41 301.221C656.305 299.158 649.504 295.928 645.336 291.845C644.596 291.12 643.003 289.626 642.462 288.844C642.704 289.114 647.456 286.411 649.575 284.689C650.187 284.191 650.657 283.836 650.856 283.765C651.752 285.059 654.242 286.24 655.963 286.809C660.388 288.289 664.727 286.98 668.981 284.405C669.208 284.277 669.493 284.376 669.564 284.647C669.72 285.244 669.521 286.027 669.023 286.34C670.432 286.055 672.608 283.978 673.263 285.458C673.533 286.069 673.178 286.496 672.082 287.122C672.95 287.023 673.775 285.984 674.671 286.823C675.112 287.947 674.045 289.242 673.163 289.911H673.178Z" fill="#202020" stroke="white" stroke-width="1.42267" stroke-miterlimit="10"/>
<path vector-effect="non-scaling-stroke" opacity="0.52" d="M659.178 290.522C659.036 290.522 658.908 290.522 658.766 290.522V290.337C663.062 290.408 666.093 289.299 669.607 288.018C670.418 287.72 671.257 287.421 672.125 287.122L672.182 287.307C671.314 287.606 670.474 287.905 669.664 288.203C666.249 289.455 663.276 290.536 659.178 290.536V290.522Z" fill="#202020" stroke="white" stroke-width="0.711333" stroke-miterlimit="10"/>
<path vector-effect="non-scaling-stroke" opacity="0.52" d="M660.729 288.914C660.33 288.914 659.918 288.885 659.505 288.828L659.534 288.643C662.45 289.013 664.741 287.96 667.159 286.836C667.757 286.566 668.369 286.267 669.009 285.997L669.08 286.168C668.44 286.438 667.828 286.723 667.23 286.993C665.139 287.96 663.133 288.885 660.729 288.885V288.914Z" fill="#202020" stroke="white" stroke-width="0.711333" stroke-miterlimit="10"/>
<path vector-effect="non-scaling-stroke" opacity="0.52" d="M660.331 301.732C660.146 301.732 659.961 301.689 659.776 301.618C659.235 301.404 658.823 300.906 658.566 300.565L658.51 300.494L658.581 300.437C658.666 300.366 658.766 300.309 658.851 300.252C659.32 299.925 659.818 299.569 660.003 299L660.188 299.057C659.989 299.683 659.463 300.053 658.965 300.394C658.908 300.437 658.837 300.48 658.78 300.522C659.022 300.849 659.377 301.248 659.847 301.433C660.245 301.589 660.814 301.575 661.156 301.177C661.326 300.978 661.426 300.65 661.383 300.366C661.355 300.138 661.255 299.953 661.099 299.854L661.198 299.697C661.398 299.825 661.526 300.053 661.554 300.337C661.597 300.693 661.497 301.063 661.284 301.305C661.042 301.575 660.686 301.732 660.316 301.732H660.331Z" fill="#202020" stroke="white" stroke-width="0.711333" stroke-miterlimit="10"/>
<path vector-effect="non-scaling-stroke" d="M438.879 243.049L432.022 253.862C432.022 253.862 431.851 253.705 431.566 253.435C431.339 253.221 431.04 252.937 430.684 252.61C430.286 252.24 429.831 251.827 429.333 251.372C427.782 249.978 425.918 248.37 424.723 247.573C422.262 245.923 421.892 246.393 419.63 245.07C419.459 244.984 419.303 244.885 419.147 244.785L418.905 244.629C416.685 243.277 414.836 241.726 414.48 241.456C413.925 241.043 409.06 240.688 408.775 239.507C408.548 238.497 409.743 238.056 410.113 237.942C410.184 237.928 410.212 237.914 410.212 237.914C410.212 237.899 410.212 237.871 410.212 237.857C409.785 235.723 410.923 234.826 411.222 234.627L411.279 234.585C411.279 234.528 411.265 234.485 411.251 234.428C410.795 231.924 413.072 230.644 413.328 230.516L413.356 230.501C413.356 230.501 413.356 230.473 413.37 230.416C413.37 230.402 413.37 230.388 413.37 230.373C411.905 230.117 410.426 229.875 408.96 229.619C408.704 229.577 408.562 229.278 408.69 229.036C409.33 227.841 410.867 227.372 412.204 227.215C414.196 226.987 416.358 227.073 418.449 227.5C418.563 227.5 418.677 227.5 418.791 227.5C420.484 227.528 422.347 228.481 424.112 229.747H424.083C424.211 229.833 424.339 229.918 424.467 230.018C426.089 231.184 427.569 232.664 428.934 234.158C429.333 234.585 430.186 235.296 430.585 235.936C430.77 236.064 430.94 236.178 431.125 236.306C431.154 236.32 431.168 236.334 431.197 236.349L437.84 242.153L438.381 242.623L438.708 242.907L438.85 243.035L438.879 243.049Z" fill="#202020" stroke="white" stroke-width="1.42267" stroke-miterlimit="10"/>
<path vector-effect="non-scaling-stroke" d="M419.388 231.27C419.388 231.27 419.474 231.227 419.474 231.184C419.474 231.127 419.445 231.085 419.388 231.085C418.706 231.042 417.966 230.885 417.198 230.729C415.903 230.459 414.566 230.174 413.413 230.43C413.371 230.43 413.328 230.487 413.342 230.544C413.342 230.587 413.399 230.629 413.456 230.615C414.58 230.373 415.903 230.658 417.169 230.914C417.952 231.07 418.691 231.227 419.388 231.27Z" fill="#202020" stroke="white" stroke-width="1.42267" stroke-miterlimit="10"/>
<path vector-effect="non-scaling-stroke" d="M417.354 234.898C417.354 234.898 417.425 234.87 417.439 234.827C417.439 234.784 417.425 234.727 417.368 234.713C415.419 234.3 413.199 233.831 411.179 234.471C411.137 234.485 411.108 234.542 411.122 234.585C411.137 234.628 411.193 234.656 411.236 234.642C413.214 234.002 415.405 234.471 417.325 234.884C417.325 234.884 417.325 234.884 417.339 234.884L417.354 234.898Z" fill="#202020" stroke="white" stroke-width="1.42267" stroke-miterlimit="10"/>
<path vector-effect="non-scaling-stroke" d="M417.212 238.511C417.212 238.511 417.297 238.468 417.297 238.426C417.297 238.369 417.254 238.34 417.212 238.326C416.387 238.298 415.504 238.17 414.665 238.042C413.171 237.828 411.635 237.601 410.198 237.871C410.155 237.871 410.113 237.928 410.127 237.971C410.127 238.013 410.184 238.056 410.226 238.042C411.635 237.771 413.157 237.999 414.637 238.212C415.49 238.34 416.372 238.468 417.212 238.497V238.511Z" fill="#202020" stroke="white" stroke-width="1.42267" stroke-miterlimit="10"/>
<path vector-effect="non-scaling-stroke" d="M657.756 358.241L680.191 342.677L712.998 395.301C710.323 398.73 702.755 394.718 701.133 392.783C695.172 385.656 674.358 379.339 668.227 384.162L657.756 358.241Z" fill="black" stroke="white" stroke-width="1.42267" stroke-miterlimit="10"/>
<path vector-effect="non-scaling-stroke" d="M674.671 365.496C676.871 365.496 678.655 363.713 678.655 361.513C678.655 359.313 676.871 357.529 674.671 357.529C672.471 357.529 670.688 359.313 670.688 361.513C670.688 363.713 672.471 365.496 674.671 365.496Z" fill="black" stroke="white" stroke-width="1.42267" stroke-miterlimit="10"/>
<path vector-effect="non-scaling-stroke" d="M555.537 456.689L567.388 479.139L519.402 518.405C515.66 516.2 518.662 508.176 520.369 506.326C526.671 499.497 532.319 476.095 526.757 470.632L555.537 456.704V456.689Z" fill="black" stroke="white" stroke-width="1.42267" stroke-miterlimit="10"/>
<path vector-effect="non-scaling-stroke" d="M549.576 480.362C551.776 480.362 553.56 478.579 553.56 476.379C553.56 474.179 551.776 472.396 549.576 472.396C547.376 472.396 545.593 474.179 545.593 476.379C545.593 478.579 547.376 480.362 549.576 480.362Z" fill="black" stroke="white" stroke-width="1.42267" stroke-miterlimit="10"/>
<path vector-effect="non-scaling-stroke" d="M551.725 328.607L508.404 367.488C508.404 367.488 498.929 375.029 503.027 388.601L520.284 476.593L560.574 458.553L546.66 391.446C546.66 391.446 543.886 382.654 551.241 373.378L567.36 360.162L566.321 434.411C566.236 435.762 570.746 457.714 592.199 449.747L676.379 395.102L661.554 355.154L607.066 395.842L610.466 336.104C611.192 325.392 603.026 316.358 601.617 313.868C600.209 311.378 551.71 328.607 551.71 328.607H551.725Z" fill="black" stroke="white" stroke-width="1.42267" stroke-miterlimit="10"/>
<path vector-effect="non-scaling-stroke" d="M534.795 246.293L533.415 235.182C533.415 235.182 523.242 243.106 518.164 239.236C514.607 236.505 515.517 231.568 516.186 225.564L515.702 225.735C514.436 226.205 513.241 224.924 513.768 223.701C514.621 221.709 515.745 219.675 516.599 218.223C516.599 217.953 516.584 217.654 516.556 217.384C516.015 207.824 524.779 202.873 529.403 201.379C534.026 199.885 540.528 197.467 546.076 202.176C551.724 206.97 546.147 216.644 548.409 230.288C548.879 233.09 550.259 237.102 554.143 242.338L534.78 246.321L534.795 246.293Z" fill="#202020" stroke="white" stroke-width="1.84947" stroke-miterlimit="10"/>
<path vector-effect="non-scaling-stroke" d="M515.788 228.723C520.412 229.007 521.593 225.166 521.607 225.124" stroke="white" stroke-width="1.84947" stroke-miterlimit="10"/>
<path vector-effect="non-scaling-stroke" d="M521.208 278.757C521.208 278.757 492.186 294.919 472.525 285.316C455.709 277.875 440.088 269.282 425.904 259.324L436.019 240.018C436.019 240.018 477.846 264.004 493.723 257.318L525.562 243.774C525.562 243.774 548.296 231.325 585.954 239.25C585.954 239.25 630.313 254.316 654.327 282.314L635.875 295.772L583.592 262.041C583.592 262.041 588.202 277.704 594.504 286.013L610.139 311.365L543.943 331.638L521.237 278.757H521.208Z" fill="#202020" stroke="white" stroke-width="1.42267" stroke-miterlimit="10"/>
<path vector-effect="non-scaling-stroke" d="M587.903 245.069C588.984 248.938 588.031 252.95 583.493 255.824C581.031 257.375 577.973 257.944 575.127 257.375C576.251 258.982 575.81 261.287 574.629 262.852C570.831 267.888 562.394 270.065 556.377 269.766C553.531 269.624 550.558 268.955 548.339 267.091C547.3 266.209 543.188 260.59 544.753 259.21C544.682 259.267 544.611 259.338 544.54 259.395C541.894 261.586 538.223 262.041 534.88 261.13C532.703 260.533 530.669 259.366 529.147 257.73C527.312 255.753 524.978 252.239 525.832 249.479C526.97 245.751 528.478 242.095 529.787 238.425C529.972 237.898 530.171 237.358 530.356 236.831C531.452 233.673 532.433 230.458 532.433 227.129C532.433 223.956 531.48 221.637 529.858 219.574C528.976 218.45 527.895 217.384 526.657 216.317C524.921 214.794 521.322 212.561 519.686 210.057C519.202 209.331 518.889 208.577 518.847 207.809C518.847 207.752 518.847 207.681 518.847 207.624C518.847 207.311 518.889 206.998 519.003 206.699C521.009 201.35 534.183 195.802 539.12 195.617C539.39 195.617 539.646 195.617 539.916 195.617C543.829 195.645 547.784 196.968 550.885 199.287C553.318 201.108 555.224 203.555 556.149 206.472C557.216 209.829 557.259 214.083 560.417 216.288C563.191 218.223 566.862 216.971 570.006 218.209C572.609 219.233 574.871 221.68 574.757 224.483C574.658 226.83 572.979 229.277 574.089 231.34C574.786 232.62 576.294 233.175 577.617 233.773C582.255 235.85 586.608 240.374 587.931 245.083L587.903 245.069Z" fill="#666666"/>
<path vector-effect="non-scaling-stroke" d="M529.986 219.959C529.986 219.959 533.017 217.498 534.738 219.746C536.929 222.605 532.419 226.034 530.968 226.176" fill="#202020"/>
<path vector-effect="non-scaling-stroke" d="M529.986 219.959C529.986 219.959 533.017 217.498 534.738 219.746C536.929 222.605 532.419 226.034 530.968 226.176" stroke="white" stroke-width="1.42267" stroke-miterlimit="10"/>
<path vector-effect="non-scaling-stroke" d="M563.106 363.775L578.783 350.658" stroke="#BCBEC0" stroke-width="1.42267"/>
<path vector-effect="non-scaling-stroke" d="M521.208 278.757L531.181 272.782" stroke="#BCBEC0" stroke-width="1.42267"/>
<path vector-effect="non-scaling-stroke" d="M531.764 214.552H511.449V221.225H531.764V214.552Z" fill="#86bc25" stroke="white" stroke-width="1.42267" stroke-linecap="round" stroke-linejoin="round"/>
<path vector-effect="non-scaling-stroke" d="M446.092 281.888C448.567 281.233 451.085 280.607 453.646 280.01" stroke="#E6E7E8" stroke-width="1.42267" stroke-linejoin="round"/>
<path vector-effect="non-scaling-stroke" d="M418.378 291.22C423.486 289.057 428.963 287.037 434.753 285.188" stroke="#E6E7E8" stroke-width="1.42267" stroke-linejoin="round"/>
<path vector-effect="non-scaling-stroke" d="M383.11 314.55C388.488 308.276 396.199 302.457 405.787 297.25" stroke="#E6E7E8" stroke-width="1.42267" stroke-linejoin="round"/>
<path vector-effect="non-scaling-stroke" d="M456.178 191.249C468.313 188.532 481.416 186.454 495.23 185.117V253.732" stroke="#E6E7E8" stroke-width="1.42267" stroke-linejoin="round"/>
<path vector-effect="non-scaling-stroke" d="M374.29 247.615V335.806C374.29 371.302 444.783 400.054 531.765 400.054C567.217 400.054 599.939 395.259 626.244 387.207V299.016C599.925 307.083 567.203 311.863 531.765 311.863C486.623 311.863 445.935 304.109 417.226 291.704C390.608 280.208 374.29 264.687 374.29 247.615ZM374.29 247.615C374.29 231.952 388.573 203.982 456.178 191.249" stroke="#E6E7E8" stroke-width="1.42267" stroke-linejoin="round"/>
<path vector-effect="non-scaling-stroke" d="M664.044 353.874V282.499C679.978 272.44 689.24 260.462 689.24 247.615C689.24 212.119 618.746 183.367 531.765 183.367V194.222" stroke="#E6E7E8" stroke-width="1.42267" stroke-linejoin="round"/>
<path vector-effect="non-scaling-stroke" d="M689.239 247.615V335.806C689.239 341.895 687.788 346.277 684.26 349.194" stroke="#E6E7E8" stroke-width="1.42267" stroke-linejoin="round"/>
<path vector-effect="non-scaling-stroke" d="M301.933 113.6C305.916 113.6 309.146 110.371 309.146 106.387C309.146 102.404 305.916 99.1743 301.933 99.1743C297.949 99.1743 294.72 102.404 294.72 106.387C294.72 110.371 297.949 113.6 301.933 113.6Z" fill="black" stroke="white" stroke-width="1.42267" stroke-miterlimit="10"/>
<path vector-effect="non-scaling-stroke" d="M278.871 106.388C278.871 110.371 282.1 113.601 286.084 113.601H301.947C301.363 113.601 300.794 113.529 300.254 113.401C299.656 113.259 299.087 113.046 298.561 112.761C296.284 111.552 294.734 109.162 294.734 106.402C294.734 103.642 296.284 101.252 298.561 100.042C299.087 99.758 299.656 99.5446 300.254 99.4023C300.794 99.26 301.363 99.2031 301.947 99.2031H286.084C282.1 99.2031 278.871 102.433 278.871 106.416V106.388Z" fill="#86bc25" stroke="white" stroke-width="1.42267" stroke-miterlimit="10"/>
<path vector-effect="non-scaling-stroke" d="M286.07 95.8594C290.053 95.8594 293.283 92.6301 293.283 88.6465C293.283 84.6629 290.053 81.4336 286.07 81.4336C282.086 81.4336 278.857 84.6629 278.857 88.6465C278.857 92.6301 282.086 95.8594 286.07 95.8594Z" fill="black" stroke="white" stroke-width="1.42267" stroke-miterlimit="10"/>
<path vector-effect="non-scaling-stroke" d="M309.145 88.6602C309.145 84.6767 305.915 81.4473 301.932 81.4473H286.069C286.652 81.4473 287.221 81.5184 287.762 81.6464C288.36 81.7887 288.929 82.0021 289.455 82.2866C291.731 83.4959 293.282 85.886 293.282 88.646C293.282 91.4059 291.731 93.796 289.455 95.0053C288.929 95.2898 288.36 95.5032 287.762 95.6455C287.221 95.7877 286.652 95.8447 286.069 95.8447H301.932C305.915 95.8447 309.145 92.6152 309.145 88.6317V88.6602Z" fill="black" stroke="white" stroke-width="1.42267" stroke-miterlimit="10"/>
<path vector-effect="non-scaling-stroke" d="M152.282 235.85C152.282 235.85 152.353 235.907 152.368 235.949C152.396 236.035 152.368 236.134 152.268 236.177C149.067 237.372 147.73 238.823 145.937 241.626C145.88 241.711 145.781 241.725 145.695 241.683C145.61 241.626 145.596 241.526 145.638 241.441C147.474 238.567 148.839 237.087 152.14 235.85C152.183 235.835 152.239 235.85 152.282 235.85Z" fill="black" stroke="white" stroke-width="1.42267" stroke-miterlimit="10"/>
<path vector-effect="non-scaling-stroke" d="M149.593 233.133C149.593 233.133 149.65 233.176 149.678 233.218C149.721 233.304 149.678 233.403 149.593 233.446C145.595 235.239 143.774 237.558 141.256 240.773C140.943 241.171 140.63 241.584 140.289 241.996C140.232 242.067 140.118 242.082 140.047 242.025C139.976 241.968 139.961 241.854 140.018 241.783C140.36 241.356 140.673 240.958 140.986 240.559C143.532 237.316 145.367 234.954 149.451 233.133C149.493 233.105 149.55 233.119 149.593 233.133Z" fill="black" stroke="white" stroke-width="1.42267" stroke-miterlimit="10"/>
<path vector-effect="non-scaling-stroke" d="M148.114 230.046C148.114 230.046 148.185 230.089 148.199 230.132C148.242 230.217 148.199 230.317 148.114 230.359C146.62 230.985 142.893 232.735 140.702 235.296C140.645 235.367 140.531 235.381 140.46 235.31C140.389 235.253 140.375 235.139 140.446 235.068C142.694 232.451 146.464 230.687 147.986 230.046C148.028 230.032 148.085 230.032 148.128 230.046H148.114Z" fill="black" stroke="white" stroke-width="1.42267" stroke-miterlimit="10"/>
<path vector-effect="non-scaling-stroke" d="M261.429 266.21C242.138 282.827 221.808 298.078 200.027 310.882Z" fill="black"/>
<path vector-effect="non-scaling-stroke" d="M261.429 266.21C242.138 282.827 221.808 298.078 200.027 310.882" stroke="white" stroke-width="1.42267" stroke-miterlimit="10"/>
<path vector-effect="non-scaling-stroke" d="M139.151 359.123L170.663 413.782C170.663 413.782 182.741 406 177.264 390.778C172.655 377.988 176.453 368.641 178.402 364.003L169.852 344.47L139.136 359.123H139.151Z" fill="black" stroke="white" stroke-width="1.42267" stroke-miterlimit="10"/>
<path vector-effect="non-scaling-stroke" d="M143.732 356.932L174.447 410.196" stroke="white" stroke-width="1.42267" stroke-miterlimit="10"/>
<path vector-effect="non-scaling-stroke" d="M309.614 412.844L372.425 418.805C372.425 418.805 377.589 408.504 361.997 404.151C348.894 400.495 332.96 381.218 330.314 376.936L303.938 379.112L309.614 412.844Z" fill="black" stroke="white" stroke-width="1.42267" stroke-miterlimit="10"/>
<path vector-effect="non-scaling-stroke" d="M308.718 407.537L373.25 413.783" stroke="white" stroke-width="1.42267" stroke-miterlimit="10"/>
<path vector-effect="non-scaling-stroke" d="M123.985 161.844L115.663 190.752L114.169 194.594L109.474 196.215L91.1076 202.589C91.1076 202.589 84.5917 238.269 84.2503 243.562C83.9231 248.84 77.6776 254.26 75.5151 255.484C73.3385 256.707 70.109 259.951 69.1274 258.87C68.3164 257.973 68.1173 256.821 71.5174 252.61C71.5174 252.61 66.4954 255.028 64.7598 256.721C63.0383 258.443 60.8759 262.497 59.254 261.288C57.6322 260.079 59.2683 257.803 59.567 257.362C59.2398 257.646 56.5368 260.534 55.0999 260.079C54.2747 259.809 52.9801 258.215 53.5349 257.106C51.3298 255.982 52.7525 253.279 54.6304 250.391C54.6304 250.391 51.6428 251.699 52.1976 248.683C52.6102 246.436 63.707 237.473 69.4119 236.747C69.4119 236.747 67.8896 199.672 71.6597 191.862C73.9644 187.053 93.1277 176.867 107.596 169.683C109.204 168.886 110.755 168.118 112.22 167.421C118.622 164.305 123.345 162.128 123.928 161.886C123.957 161.858 123.971 161.858 123.971 161.858L123.985 161.844Z" fill="black" stroke="white" stroke-width="1.42267" stroke-miterlimit="10"/>
<path vector-effect="non-scaling-stroke" opacity="0.76" d="M123.985 161.844L115.663 190.752L114.169 194.594L109.474 196.215C110.143 190.368 109.645 176.952 107.596 169.683C109.204 168.886 110.755 168.118 112.22 167.421C118.622 164.305 123.345 162.128 123.928 161.886C123.957 161.858 123.971 161.858 123.971 161.858L123.985 161.844Z" fill="black" stroke="white" stroke-width="1.42267" stroke-miterlimit="10"/>
<path vector-effect="non-scaling-stroke" d="M66.3674 251.044C66.3674 251.044 66.4385 251.101 66.4527 251.144C66.4812 251.229 66.4527 251.329 66.3531 251.372C63.1521 252.567 61.8148 254.018 60.0223 256.82C59.9654 256.906 59.8658 256.92 59.7804 256.877C59.695 256.82 59.6808 256.721 59.7235 256.635C61.5587 253.762 62.9245 252.282 66.2251 251.044C66.2678 251.03 66.3247 251.044 66.3674 251.044Z" fill="black" stroke="white" stroke-width="1.42267" stroke-miterlimit="10"/>
<path vector-effect="non-scaling-stroke" d="M63.6641 248.327C63.6641 248.327 63.721 248.37 63.7495 248.412C63.7921 248.498 63.7495 248.597 63.6641 248.64C59.6664 250.433 57.8454 252.751 55.3273 255.967C55.0143 256.365 54.7013 256.778 54.3599 257.19C54.303 257.261 54.1891 257.276 54.118 257.219C54.0469 257.162 54.0327 257.048 54.0896 256.977C54.431 256.55 54.744 256.152 55.057 255.753C57.6035 252.51 59.4388 250.148 63.5218 248.327C63.5645 248.299 63.6214 248.313 63.6641 248.327Z" fill="black" stroke="white" stroke-width="1.42267" stroke-miterlimit="10"/>
<path vector-effect="non-scaling-stroke" d="M62.1847 245.239C62.1847 245.239 62.2558 245.282 62.27 245.325C62.3127 245.41 62.27 245.509 62.1847 245.552C60.6909 246.178 56.9635 247.928 54.7726 250.489C54.7157 250.56 54.6019 250.574 54.5307 250.503C54.4596 250.446 54.4454 250.332 54.5165 250.261C56.7643 247.643 60.5344 245.879 62.0566 245.239C62.0993 245.225 62.1562 245.225 62.1989 245.239H62.1847Z" fill="black" stroke="white" stroke-width="1.42267" stroke-miterlimit="10"/>
<path vector-effect="non-scaling-stroke" d="M266.65 143.177C263.065 145.34 252.424 148.584 252.424 148.584C252.424 148.584 227.47 182.685 217.312 186.91C210.796 189.628 191.633 194.095 178.772 196.94C175.77 197.609 173.11 198.178 171.019 198.633C170.25 198.263 169.752 197.979 169.752 197.979L183.111 166.836L214.581 163.209L241.668 139.109C241.668 139.109 246.392 127.272 250.788 125.181C255.198 123.104 258.356 122.25 258.356 122.25C258.356 122.25 271.146 109.588 273.123 110.769C275.101 111.95 275.713 113.899 273.123 116.488C270.591 119.035 263.648 126.191 263.435 126.404C263.819 126.177 278.074 117.584 279.597 117.868C281.147 118.153 282.627 120.97 280.023 123.175C277.42 125.38 267.006 131.981 267.006 131.981C267.006 131.981 270.25 133.631 268.486 137.871C268.486 137.871 270.193 140.972 266.593 143.149L266.65 143.177Z" fill="black" stroke="white" stroke-width="1.42267" stroke-miterlimit="10"/>
<path vector-effect="non-scaling-stroke" d="M246.363 141.554C246.363 141.554 246.32 141.512 246.306 141.469C246.278 141.369 246.32 141.256 246.42 141.199C248.839 139.876 250.973 137.87 252.609 135.38L252.68 135.266L252.794 135.295C255.753 135.963 258.954 135.835 262.055 134.91C262.823 134.683 263.791 134.228 263.99 133.346C264.189 132.449 263.449 131.752 262.795 131.325C260.86 130.073 258.74 129.163 256.507 128.622C256.421 128.594 256.365 128.494 256.407 128.395C256.436 128.295 256.535 128.224 256.621 128.238C258.883 128.793 261.031 129.718 262.98 130.984C264.047 131.681 264.516 132.506 264.303 133.388C264.104 134.256 263.336 134.91 262.069 135.28C258.954 136.205 255.739 136.347 252.765 135.693C251.101 138.197 248.938 140.217 246.491 141.554C246.434 141.583 246.377 141.583 246.32 141.554H246.363Z" fill="black" stroke="white" stroke-width="1.42267" stroke-miterlimit="10"/>
<path vector-effect="non-scaling-stroke" d="M173.48 146.535C169.909 150.874 159.609 146.108 159.609 146.108L160.377 153.478C166.85 155.754 171.147 159.88 170.919 164.361C170.592 170.791 161.117 175.529 149.75 174.946C138.383 174.362 129.42 168.686 129.761 162.27C130.003 157.319 135.694 153.364 143.49 152.083C144.941 148.925 145.909 146.763 145.781 144.899C144.998 132.778 138.283 125.608 142.167 120.358C145.98 115.208 152.04 116.005 156.294 116.346C160.562 116.702 169.055 119.206 170.492 127.5C170.535 127.742 170.578 127.983 170.62 128.225C171.63 129.292 173.01 130.815 174.134 132.351C174.831 133.304 174.063 134.627 172.882 134.485L172.427 134.428C174.205 139.436 175.97 143.49 173.466 146.535H173.48Z" fill="black" stroke="white" stroke-width="1.42267" stroke-miterlimit="10"/>
<path vector-effect="non-scaling-stroke" d="M210.327 256.564L274.461 303.099C292.856 322.448 268.329 341.383 268.329 341.383L189.257 387.72L162.611 347.003L158.926 341.383L217.896 318.735L161.459 300.155C122.108 283.097 128.41 253.05 128.41 253.05L203.811 233.161L268.329 267.575C290.409 276.239 297.693 291.988 297.693 291.988L352.11 385.358L301.947 399.058L281.788 368.471L267.447 346.477" fill="black"/>
<path vector-effect="non-scaling-stroke" d="M210.327 256.564L274.461 303.099C292.856 322.448 268.329 341.383 268.329 341.383L189.257 387.72L162.611 347.003L158.926 341.383L217.896 318.735L161.459 300.155C122.108 283.097 128.41 253.05 128.41 253.05L203.811 233.161L268.329 267.575C290.409 276.239 297.693 291.988 297.693 291.988L352.11 385.358L301.947 399.058L281.788 368.471L267.447 346.477" stroke="white" stroke-width="1.42267" stroke-miterlimit="10"/>
<path vector-effect="non-scaling-stroke" d="M183.239 168.045L194.464 198.618L206.642 231.923L122.065 256.706L120.286 194.493L96.1438 206.358L78.1755 175.244C78.1755 175.244 107.596 159.253 143.476 152.083C143.476 152.083 145.212 159.481 151.841 159.481C151.841 159.481 160.263 160.292 160.377 153.477L214.624 162.227L216.829 193.013L192.131 192.302" fill="black"/>
<path vector-effect="non-scaling-stroke" d="M183.239 168.045L194.464 198.618L206.642 231.923L122.065 256.706L120.286 194.493L96.1438 206.358L78.1755 175.244C78.1755 175.244 107.596 159.253 143.476 152.083C143.476 152.083 145.212 159.481 151.841 159.481C151.841 159.481 160.263 160.292 160.377 153.477L214.624 162.227L216.829 193.013L192.131 192.302" stroke="white" stroke-width="1.42267" stroke-miterlimit="10"/>
<path vector-effect="non-scaling-stroke" d="M130.245 146.278L151.186 145.098C145.069 138.923 149.223 125.337 149.351 124.938C156.422 125.394 168.173 123.672 167.533 115.108C167.533 114.951 167.504 114.781 167.476 114.624C167.007 111.651 164.247 109.275 161.259 108.734C158.328 108.194 155.141 108.834 152.211 110.185C124.412 110.285 130.259 146.278 130.259 146.278H130.245Z" fill="black" stroke="white" stroke-width="1.42267" stroke-miterlimit="10"/>
<path vector-effect="non-scaling-stroke" d="M163.666 130.323L169.025 129.611C171.494 129.283 173.23 127.015 172.902 124.546L172.853 124.179C172.525 121.71 170.257 119.975 167.788 120.303L162.429 121.015C159.96 121.343 158.225 123.611 158.553 126.08L158.602 126.446C158.93 128.915 161.197 130.651 163.666 130.323Z" fill="#86bc25" stroke="white" stroke-width="1.42267" stroke-linecap="round" stroke-linejoin="round"/>
<path vector-effect="non-scaling-stroke" d="M163.45 120.883C161.871 121.096 160.747 122.59 160.961 124.212L161.416 127.626C161.629 129.248 163.109 130.4 164.688 130.187" fill="#86bc25"/>
<path vector-effect="non-scaling-stroke" d="M163.45 120.883C161.871 121.096 160.747 122.59 160.961 124.212L161.416 127.626C161.629 129.248 163.109 130.4 164.688 130.187" stroke="white" stroke-width="1.42267" stroke-linecap="round" stroke-linejoin="round"/>
<path vector-effect="non-scaling-stroke" d="M144.728 129.46L158.77 127.596L158.272 123.912L144.372 125.277L144.728 129.46Z" fill="#86bc25" stroke="white" stroke-width="1.42267" stroke-linecap="round" stroke-linejoin="round"/>
<path vector-effect="non-scaling-stroke" d="M149.949 129.59C149.949 129.59 146.25 126.788 144.088 129.42C141.342 132.763 146.848 136.661 148.64 136.803" fill="black"/>
<path vector-effect="non-scaling-stroke" d="M149.949 129.59C149.949 129.59 146.25 126.788 144.088 129.42C141.342 132.763 146.848 136.661 148.64 136.803" stroke="white" stroke-width="1.42267" stroke-miterlimit="10"/>
<path vector-effect="non-scaling-stroke" d="M167.547 134.513C167.547 134.513 169.112 139.535 173.38 137.073Z" fill="black"/>
<path vector-effect="non-scaling-stroke" d="M167.547 134.513C167.547 134.513 169.112 139.535 173.38 137.073" stroke="white" stroke-width="1.42267" stroke-miterlimit="10"/>
<path vector-effect="non-scaling-stroke" d="M223.06 203.982C267.902 181.12 304.607 173.167 313.712 186.626C326.004 204.807 283.253 255.184 218.223 299.144C153.193 343.105 90.51 363.989 78.2182 345.808C69.5541 332.989 88.2195 304.195 122.762 272.924" stroke="white" stroke-width="1.42267" stroke-miterlimit="10"/>
<path vector-effect="non-scaling-stroke" d="M224.667 231.909C254.814 215.207 282.271 204.594 301.62 201.905" stroke="white" stroke-width="1.42267" stroke-miterlimit="10"/>
<path vector-effect="non-scaling-stroke" d="M96.2859 341.397C102.859 329.504 114.724 315.234 130.515 300.183" stroke="white" stroke-width="1.42267" stroke-miterlimit="10"/>
</g>
<defs>
<clipPath id="clip0_20_12236">
<rect width="802" height="526.714" fill="white"/>
</clipPath>
</defs>
</svg>
