<svg width="802" height="535" viewBox="0 0 802 535" fill="none" xmlns="http://www.w3.org/2000/svg">
<g clip-path="url(#clip0_20_14628)">
<path vector-effect="non-scaling-stroke" d="M230.747 415.996C114.767 415.996 20.7588 323.044 20.7588 208.362C20.7588 93.6949 114.781 0.728516 230.747 0.728516C346.726 0.728516 440.735 93.6949 440.735 208.362C440.735 323.058 346.726 415.996 230.747 415.996Z" fill="#020202" stroke="white" stroke-width="1.42674" stroke-miterlimit="10"/>
<path vector-effect="non-scaling-stroke" d="M78.8271 116.964H453.447V422.672H78.8271V116.964Z" fill="#020202"/>
<path vector-effect="non-scaling-stroke" d="M301.085 60.9938L408.105 15.0527L422.972 127.722H301.085V60.9795V60.9938Z" fill="#020202"/>
<path vector-effect="non-scaling-stroke" d="M492.911 159.082C457.998 123.699 458.398 66.7146 493.781 31.8022C529.164 -3.1101 586.148 -2.73915 621.061 32.644C655.973 68.0272 655.574 125.011 620.19 159.924C584.807 194.836 527.823 194.465 492.911 159.082Z" fill="#020202" stroke="white" stroke-width="1.42674" stroke-miterlimit="10"/>
<path vector-effect="non-scaling-stroke" d="M687.019 127.707L490.115 27.4502L411.801 126.38L617.195 246.812L687.019 127.707Z" fill="#020202"/>
<path vector-effect="non-scaling-stroke" d="M491.413 132.074C582.353 69.9821 705.838 92.5103 767.245 182.438C828.637 272.351 804.711 395.579 713.77 457.685C622.83 519.776 499.345 497.22 437.938 407.321C376.531 317.393 400.472 194.18 491.413 132.074Z" fill="#020202" stroke="white" stroke-width="1.42674" stroke-miterlimit="10"/>
<path vector-effect="non-scaling-stroke" d="M771.296 284.735L477.559 485.321L313.869 245.614L607.606 45.043L771.296 284.75V284.735Z" fill="#020202"/>
<path vector-effect="non-scaling-stroke" d="M664.933 501.985L530.762 513.356L495.022 461.023L641.477 373.393L664.919 501.985H664.933Z" fill="#020202"/>
<path vector-effect="non-scaling-stroke" d="M265.588 92.8958L545.672 98.1034L547.284 97.4186L260.066 92.1396C262.463 92.6818 264.618 93.0528 265.588 92.8958Z" fill="#202020" stroke="white" stroke-width="1.42674" stroke-miterlimit="10"/>
<path vector-effect="non-scaling-stroke" d="M265.588 92.8958L545.672 98.1034L547.284 97.4186L260.066 92.1396C262.463 92.6818 264.618 93.0528 265.588 92.8958Z" fill="#202020" stroke="white" stroke-width="1.42674" stroke-miterlimit="10"/>
<path vector-effect="non-scaling-stroke" d="M611.045 83.6642L408.02 3.03906L204.994 83.6785H204.966V83.6927L218.192 106.792H597.862L611.088 83.6927L611.059 83.6785L611.045 83.6642ZM255.872 83.6642L408.02 22.4427L560.167 83.6642H255.886H255.872Z" fill="#202020" stroke="white" stroke-width="1.42674" stroke-miterlimit="10"/>
<path vector-effect="non-scaling-stroke" d="M276.174 124.312H229.648V344.115H276.174V124.312Z" fill="#202020" stroke="white" stroke-width="1.42674" stroke-miterlimit="10"/>
<path vector-effect="non-scaling-stroke" d="M243.473 148.923H238.522C238.183 148.923 237.909 149.198 237.909 149.536V318.905C237.909 319.244 238.183 319.518 238.522 319.518H243.473C243.812 319.518 244.086 319.244 244.086 318.905V149.536C244.086 149.198 243.812 148.923 243.473 148.923Z" fill="black" stroke="white" stroke-width="1.42674" stroke-miterlimit="10"/>
<path vector-effect="non-scaling-stroke" d="M256.414 148.923H251.463C251.124 148.923 250.85 149.198 250.85 149.536V318.905C250.85 319.244 251.124 319.518 251.463 319.518H256.414C256.753 319.518 257.027 319.244 257.027 318.905V149.536C257.027 149.198 256.753 148.923 256.414 148.923Z" fill="black" stroke="white" stroke-width="1.42674" stroke-miterlimit="10"/>
<path vector-effect="non-scaling-stroke" d="M269.354 148.923H264.404C264.065 148.923 263.79 149.198 263.79 149.536V318.905C263.79 319.244 264.065 319.518 264.404 319.518H269.354C269.693 319.518 269.968 319.244 269.968 318.905V149.536C269.968 149.198 269.693 148.923 269.354 148.923Z" fill="black" stroke="white" stroke-width="1.42674" stroke-miterlimit="10"/>
<path vector-effect="non-scaling-stroke" d="M287.76 327.821H218.092V344.115H287.76V327.821Z" fill="#202020" stroke="white" stroke-width="1.42674" stroke-miterlimit="10"/>
<path vector-effect="non-scaling-stroke" d="M285.291 124.312H220.56C215.138 124.312 210.744 128.706 210.744 134.128C210.744 139.549 215.138 143.943 220.56 143.943C225.125 143.943 228.935 140.805 230.019 136.582H275.817C276.916 140.805 280.711 143.943 285.291 143.943C290.713 143.943 295.107 139.549 295.107 134.128C295.107 128.706 290.713 124.312 285.291 124.312Z" fill="#202020" stroke="white" stroke-width="1.42674" stroke-miterlimit="10"/>
<path vector-effect="non-scaling-stroke" d="M585.492 124.312H538.966V344.115H585.492V124.312Z" fill="#202020" stroke="white" stroke-width="1.42674" stroke-miterlimit="10"/>
<path vector-effect="non-scaling-stroke" d="M552.791 148.924H547.841C547.502 148.924 547.227 149.199 547.227 149.537V318.906C547.227 319.245 547.502 319.519 547.841 319.519H552.791C553.13 319.519 553.405 319.245 553.405 318.906V149.537C553.405 149.199 553.13 148.924 552.791 148.924Z" fill="black" stroke="white" stroke-width="1.42674" stroke-miterlimit="10"/>
<path vector-effect="non-scaling-stroke" d="M565.732 148.924H560.781C560.442 148.924 560.167 149.199 560.167 149.537V318.906C560.167 319.245 560.442 319.519 560.781 319.519H565.732C566.071 319.519 566.345 319.245 566.345 318.906V149.537C566.345 149.199 566.071 148.924 565.732 148.924Z" fill="black" stroke="white" stroke-width="1.42674" stroke-miterlimit="10"/>
<path vector-effect="non-scaling-stroke" d="M578.673 148.924H573.722C573.383 148.924 573.108 149.199 573.108 149.537V318.906C573.108 319.245 573.383 319.519 573.722 319.519H578.673C579.012 319.519 579.286 319.245 579.286 318.906V149.537C579.286 149.199 579.012 148.924 578.673 148.924Z" fill="black" stroke="white" stroke-width="1.42674" stroke-miterlimit="10"/>
<path vector-effect="non-scaling-stroke" d="M597.063 327.821H527.395V344.115H597.063V327.821Z" fill="#202020" stroke="white" stroke-width="1.42674" stroke-miterlimit="10"/>
<path vector-effect="non-scaling-stroke" d="M594.595 124.312H529.863C524.442 124.312 520.047 128.706 520.047 134.128C520.047 139.549 524.442 143.943 529.863 143.943C534.429 143.943 538.238 140.805 539.323 136.582H585.121C586.22 140.805 590.015 143.943 594.595 143.943C600.016 143.943 604.411 139.549 604.411 134.128C604.411 128.706 600.016 124.312 594.595 124.312Z" fill="#202020" stroke="white" stroke-width="1.42674" stroke-miterlimit="10"/>
<path vector-effect="non-scaling-stroke" d="M378.943 124.312H332.417V344.115H378.943V124.312Z" fill="#202020" stroke="white" stroke-width="1.42674" stroke-miterlimit="10"/>
<path vector-effect="non-scaling-stroke" d="M346.242 148.923H341.291C340.952 148.923 340.678 149.198 340.678 149.536V318.905C340.678 319.244 340.952 319.518 341.291 319.518H346.242C346.581 319.518 346.856 319.244 346.856 318.905V149.536C346.856 149.198 346.581 148.923 346.242 148.923Z" fill="black" stroke="white" stroke-width="1.42674" stroke-miterlimit="10"/>
<path vector-effect="non-scaling-stroke" d="M359.182 148.923H354.232C353.893 148.923 353.618 149.198 353.618 149.536V318.905C353.618 319.244 353.893 319.518 354.232 319.518H359.182C359.521 319.518 359.796 319.244 359.796 318.905V149.536C359.796 149.198 359.521 148.923 359.182 148.923Z" fill="black" stroke="white" stroke-width="1.42674" stroke-miterlimit="10"/>
<path vector-effect="non-scaling-stroke" d="M372.123 148.923H367.172C366.833 148.923 366.559 149.198 366.559 149.536V318.905C366.559 319.244 366.833 319.518 367.172 319.518H372.123C372.462 319.518 372.736 319.244 372.736 318.905V149.536C372.736 149.198 372.462 148.923 372.123 148.923Z" fill="black" stroke="white" stroke-width="1.42674" stroke-miterlimit="10"/>
<path vector-effect="non-scaling-stroke" d="M390.513 327.821H320.846V344.115H390.513V327.821Z" fill="#202020" stroke="white" stroke-width="1.42674" stroke-miterlimit="10"/>
<path vector-effect="non-scaling-stroke" d="M388.045 124.312H323.314C317.892 124.312 313.498 128.706 313.498 134.128C313.498 139.549 317.892 143.943 323.314 143.943C327.88 143.943 331.689 140.805 332.773 136.582H378.572C379.67 140.805 383.465 143.943 388.045 143.943C393.467 143.943 397.861 139.549 397.861 134.128C397.861 128.706 393.467 124.312 388.045 124.312Z" fill="#202020" stroke="white" stroke-width="1.42674" stroke-miterlimit="10"/>
<path vector-effect="non-scaling-stroke" d="M481.853 124.312H435.327V344.115H481.853V124.312Z" fill="#202020" stroke="white" stroke-width="1.42674" stroke-miterlimit="10"/>
<path vector-effect="non-scaling-stroke" d="M449.152 148.923H444.201C443.863 148.923 443.588 149.198 443.588 149.536V318.905C443.588 319.244 443.863 319.518 444.201 319.518H449.152C449.491 319.518 449.766 319.244 449.766 318.905V149.536C449.766 149.198 449.491 148.923 449.152 148.923Z" fill="black" stroke="white" stroke-width="1.42674" stroke-miterlimit="10"/>
<path vector-effect="non-scaling-stroke" d="M462.093 148.923H457.142C456.803 148.923 456.529 149.198 456.529 149.536V318.905C456.529 319.244 456.803 319.518 457.142 319.518H462.093C462.432 319.518 462.707 319.244 462.707 318.905V149.536C462.707 149.198 462.432 148.923 462.093 148.923Z" fill="black" stroke="white" stroke-width="1.42674" stroke-miterlimit="10"/>
<path vector-effect="non-scaling-stroke" d="M475.034 148.923H470.083C469.744 148.923 469.47 149.198 469.47 149.536V318.905C469.47 319.244 469.744 319.518 470.083 319.518H475.034C475.373 319.518 475.648 319.244 475.648 318.905V149.536C475.648 149.198 475.373 148.923 475.034 148.923Z" fill="black" stroke="white" stroke-width="1.42674" stroke-miterlimit="10"/>
<path vector-effect="non-scaling-stroke" d="M493.438 327.821H423.771V344.115H493.438V327.821Z" fill="#202020" stroke="white" stroke-width="1.42674" stroke-miterlimit="10"/>
<path vector-effect="non-scaling-stroke" d="M490.97 124.312H426.239C420.817 124.312 416.423 128.706 416.423 134.128C416.423 139.549 420.817 143.943 426.239 143.943C430.804 143.943 434.614 140.805 435.698 136.582H481.497C482.595 140.805 486.39 143.943 490.97 143.943C496.392 143.943 500.786 139.549 500.786 134.128C500.786 128.706 496.392 124.312 490.97 124.312Z" fill="#202020" stroke="white" stroke-width="1.42674" stroke-miterlimit="10"/>
<path vector-effect="non-scaling-stroke" d="M603.055 114.796H213.141V124.327H603.055V114.796Z" fill="#202020" stroke="white" stroke-width="1.42674" stroke-miterlimit="10"/>
<path vector-effect="non-scaling-stroke" d="M616.995 344.13H199.045V364.561H616.995V344.13Z" fill="#202020" stroke="white" stroke-width="1.42674" stroke-miterlimit="10"/>
<path vector-effect="non-scaling-stroke" d="M172.308 364.547V393.881H643.717V380.683V364.547H172.308Z" fill="#202020" stroke="white" stroke-width="1.42674" stroke-miterlimit="10"/>
<path vector-effect="non-scaling-stroke" d="M146.84 113.183H134.185V131.274H146.84V113.183Z" fill="#020202" stroke="white" stroke-width="1.42674" stroke-miterlimit="10"/>
<path vector-effect="non-scaling-stroke" d="M154.445 180.44H126.581V237.467H154.445V180.44Z" fill="#020202" stroke="white" stroke-width="1.42674" stroke-miterlimit="10"/>
<path vector-effect="non-scaling-stroke" d="M105.85 227.137H67.6274V321.53H105.85V227.137Z" fill="#202020" stroke="white" stroke-width="1.42674" stroke-miterlimit="10"/>
<path vector-effect="non-scaling-stroke" d="M277.515 235.755L306.749 213.07V207.106C306.749 204.067 308.29 201.228 310.83 199.573L320.603 193.195C323.456 191.326 326.11 189.157 328.493 186.718L334.385 180.697C335.755 179.299 337.923 179.056 339.55 180.126L339.635 180.183C341.647 181.496 342.175 184.207 340.805 186.161C336.625 192.139 328.678 203.539 328.678 203.539L332.587 197.932C335.926 201.057 340.263 202.897 344.829 203.154L351.392 203.525C347.211 208.889 341.633 213.013 335.284 215.452C341.633 213.013 347.197 208.889 351.392 203.525L358.297 193.381C359.581 191.497 362.107 190.927 364.076 192.082L364.175 192.139C366.344 193.423 367.043 196.206 365.731 198.331C361.365 205.408 352.562 219.704 352.562 219.704L366.444 197.133C367.543 195.35 368.955 193.78 370.61 192.51L372.893 190.755C373.763 190.085 374.862 189.771 375.96 189.871C377.715 190.028 379.313 190.969 380.298 192.439L380.797 193.167C381.596 194.337 381.767 195.82 381.282 197.133C381.082 197.661 380.783 198.146 380.412 198.56L364.789 215.624L376.973 202.312L383.964 202.455C385.106 202.483 386.204 202.883 387.089 203.61C387.988 204.338 388.601 205.351 388.844 206.478L388.929 206.878C389.172 207.976 389.044 209.103 388.573 210.116L388.359 210.573C387.845 211.686 386.932 212.57 385.819 213.07L383.608 214.054C381.539 214.982 379.413 215.795 377.244 216.48L370.353 218.677L344.087 227.237C337.039 229.534 330.462 233.101 324.683 237.752L303.625 254.716L277.544 235.698L277.515 235.755Z" fill="#020202"/>
<path vector-effect="non-scaling-stroke" d="M351.392 203.525L344.829 203.154C340.263 202.897 335.926 201.057 332.587 197.932L328.678 203.539C328.678 203.539 336.625 192.139 340.805 186.161C342.175 184.207 341.647 181.496 339.635 180.183L339.55 180.126C337.923 179.056 335.755 179.299 334.385 180.697L328.493 186.718C326.11 189.157 323.456 191.326 320.603 193.195L310.83 199.573C308.29 201.228 306.749 204.067 306.749 207.106V213.07L277.515 235.755L277.544 235.698L303.625 254.716L324.683 237.752C330.462 233.101 337.039 229.534 344.087 227.237L370.353 218.677L377.244 216.48C379.413 215.795 381.539 214.982 383.608 214.054L385.819 213.07C386.932 212.57 387.845 211.686 388.359 210.573L388.573 210.116C389.044 209.103 389.172 207.976 388.929 206.878L388.844 206.478C388.601 205.351 387.988 204.338 387.089 203.61C386.204 202.883 385.106 202.483 383.964 202.455L376.973 202.312L364.789 215.624L380.412 198.56C380.783 198.146 381.082 197.661 381.282 197.133C381.767 195.82 381.596 194.337 380.797 193.167L380.298 192.439C379.313 190.969 377.715 190.028 375.96 189.871C374.862 189.771 373.763 190.085 372.893 190.755L370.61 192.51C368.955 193.78 367.543 195.35 366.444 197.133L352.562 219.704C352.562 219.704 361.365 205.408 365.731 198.331C367.043 196.206 366.344 193.423 364.175 192.139L364.076 192.082C362.107 190.927 359.581 191.497 358.297 193.381L351.392 203.525ZM351.392 203.525C347.211 208.889 341.633 213.013 335.284 215.452M351.392 203.525C347.197 208.889 341.633 213.013 335.284 215.452M335.284 215.452L332.031 216.708" stroke="white" stroke-width="1.42674" stroke-linecap="round" stroke-linejoin="round"/>
<path vector-effect="non-scaling-stroke" d="M103.995 310.644H107.462C122.785 310.644 126.423 311.129 129.305 313.954C131.246 315.865 133.6 321.287 134.071 323.969L136.011 327.978C136.753 329.519 131.117 366.015 132.53 367.456C132.587 367.513 122.029 432.102 122.086 432.145L202.768 429.391V247.296V307.961L212.641 318.22C215.138 320.802 218.149 322.842 221.473 324.198C224.669 325.496 228.107 326.138 231.56 326.067L233.472 326.038C238.408 325.952 243.216 324.426 247.311 321.672L252.077 318.462C252.918 317.891 253.732 317.278 254.502 316.607L307.905 270.495C310.43 268.312 311.886 265.13 311.886 261.792C311.886 253.774 308.961 246.026 303.653 240.02L293.623 228.634C290.984 225.638 287.189 223.926 283.208 223.926C273.82 223.926 264.775 227.479 257.898 233.856L229.391 260.051L238.608 251.748L211.186 214.881C205.879 207.747 197.504 203.538 188.615 203.538H154.445L148.338 224.012C148.338 225.41 146.583 226.024 145.699 224.939L126.566 203.552H88.415C79.9972 203.552 72.1501 207.79 67.5275 214.824L17.991 290.37C6.66269 307.647 19.0611 330.604 39.7203 330.604H77.3007L78.3993 327.479C80.3967 321.815 84.363 317.05 89.5707 314.039C93.4086 311.828 97.7459 310.658 102.169 310.658H103.981V308.989C103.981 301.755 100.057 295.092 93.7225 291.597L83.7353 286.075C79.2125 283.578 76.4018 278.813 76.4018 273.648V247.325" fill="#202020"/>
<path vector-effect="non-scaling-stroke" d="M103.995 310.644H107.462C122.785 310.644 126.423 311.129 129.305 313.954C131.246 315.865 133.6 321.287 134.071 323.969L136.011 327.978C136.753 329.519 131.117 366.015 132.53 367.456C132.587 367.513 122.029 432.102 122.086 432.145L202.768 429.391V247.296V307.961L212.641 318.22C215.138 320.802 218.149 322.842 221.473 324.198C224.669 325.496 228.107 326.138 231.56 326.067L233.472 326.038C238.408 325.952 243.216 324.426 247.311 321.672L252.077 318.462C252.918 317.891 253.732 317.278 254.502 316.607L307.905 270.495C310.43 268.312 311.886 265.13 311.886 261.792C311.886 253.774 308.961 246.026 303.653 240.02L293.623 228.634C290.984 225.638 287.189 223.926 283.208 223.926C273.82 223.926 264.775 227.479 257.898 233.856L229.391 260.051L238.608 251.748L211.186 214.881C205.879 207.747 197.504 203.538 188.615 203.538H154.445L148.338 224.012C148.338 225.41 146.583 226.024 145.699 224.939L126.566 203.552H88.415C79.9972 203.552 72.1501 207.79 67.5275 214.824L17.991 290.37C6.66269 307.647 19.0611 330.604 39.7203 330.604H77.3007L78.3993 327.479C80.3967 321.815 84.363 317.05 89.5707 314.039C93.4086 311.828 97.7459 310.658 102.169 310.658H103.981V308.989C103.981 301.755 100.057 295.092 93.7225 291.597L83.7353 286.075C79.2125 283.578 76.4018 278.813 76.4018 273.648V247.325" stroke="white" stroke-width="1.42674" stroke-miterlimit="10"/>
<path vector-effect="non-scaling-stroke" d="M140.506 197.404C156.194 197.404 168.912 181.946 168.912 162.877C168.912 143.808 156.194 128.35 140.506 128.35C124.817 128.35 112.099 143.808 112.099 162.877C112.099 181.946 124.817 197.404 140.506 197.404Z" fill="#020202" stroke="white" stroke-width="1.42674" stroke-miterlimit="10"/>
<path vector-effect="non-scaling-stroke" d="M141.076 139.906L141.119 139.735C143.002 147.496 148.395 153.931 155.715 157.113L168.926 162.877C168.926 143.801 156.214 128.35 140.52 128.35C124.826 128.35 112.113 143.801 112.113 162.877L126.167 157.041C133.543 153.974 139.064 147.639 141.076 139.906Z" fill="#404040" stroke="white" stroke-width="1.42674" stroke-miterlimit="10"/>
<path vector-effect="non-scaling-stroke" d="M135.868 105.293H145.156C151.42 105.293 156.513 110.386 156.513 116.65V118.975C156.513 121.843 154.173 124.183 151.306 124.183H129.705C126.837 124.183 124.497 121.843 124.497 118.975V116.65C124.497 110.386 129.591 105.293 135.854 105.293H135.868Z" fill="#404040" stroke="white" stroke-width="1.42674" stroke-miterlimit="10"/>
<path vector-effect="non-scaling-stroke" d="M132.843 360.109H154.858C161.706 360.109 167.271 365.674 167.271 372.522V444.786C167.271 451.635 161.706 457.199 154.858 457.199H132.843V360.109Z" fill="black"/>
<path vector-effect="non-scaling-stroke" d="M334.47 468.184L333.657 466.044L310.273 480.996H347.482L344.286 479.298C339.778 476.901 336.282 472.949 334.47 468.184Z" fill="#414040"/>
<path vector-effect="non-scaling-stroke" d="M333.101 416.637H265.088V480.997H333.101V416.637Z" fill="#414040"/>
<path vector-effect="non-scaling-stroke" d="M299.059 452.118C317.828 452.118 333.044 436.903 333.044 418.133C333.044 399.364 317.828 384.148 299.059 384.148C280.289 384.148 265.074 399.364 265.074 418.133C265.074 436.903 280.289 452.118 299.059 452.118Z" fill="#414040"/>
<path vector-effect="non-scaling-stroke" d="M250.293 487.373H225.524V506.577H250.293V487.373Z" fill="#414040"/>
<path vector-effect="non-scaling-stroke" d="M234.1 435.312H187.203V506.577H234.1V435.312Z" fill="#414040"/>
<path vector-effect="non-scaling-stroke" d="M210.658 455.672C223.604 455.672 234.1 445.177 234.1 432.23C234.1 419.284 223.604 408.789 210.658 408.789C197.712 408.789 187.217 419.284 187.217 432.23C187.217 445.177 197.712 455.672 210.658 455.672Z" fill="#414040"/>
<path vector-effect="non-scaling-stroke" d="M132.843 360.109H36.624V457.442H132.843V360.109Z" fill="#202020"/>
<path vector-effect="non-scaling-stroke" d="M132.843 527.337H63.8605C48.8227 527.337 36.624 515.138 36.624 500.1V457.198H132.843V500.357C132.843 515.252 144.928 527.337 159.823 527.323H160.793H132.843V527.337Z" fill="#414040"/>
<path vector-effect="non-scaling-stroke" d="M132.843 360.108H36.624V344.072C36.624 336.624 42.6591 330.589 50.1067 330.589H135.84L135.369 331.802C128.349 331.802 132.829 336.867 132.829 343.287V360.108H132.843Z" fill="#414040"/>
<path vector-effect="non-scaling-stroke" d="M249.594 506.579C258.151 506.579 265.088 499.642 265.088 491.084C265.088 482.527 258.151 475.59 249.594 475.59C241.036 475.59 234.099 482.527 234.099 491.084C234.099 499.642 241.036 506.579 249.594 506.579Z" fill="black"/>
<path vector-effect="non-scaling-stroke" d="M298.973 384.007H207.933C193.409 384.007 178.328 394.423 175.218 408.547L210.772 408.619C223.67 408.647 234.099 419.105 234.099 431.989V491.084H265.088V417.079C265.088 398.817 279.898 383.993 298.16 383.993H298.973V384.007Z" fill="black"/>
<path vector-effect="non-scaling-stroke" d="M154.401 360.109H22.3991C15.394 360.109 9.71533 365.788 9.71533 372.793V444.515C9.71533 451.52 15.394 457.199 22.3991 457.199H154.401C161.406 457.199 167.085 451.52 167.085 444.515V372.793C167.085 365.788 161.406 360.109 154.401 360.109Z" stroke="white" stroke-width="1.42674" stroke-miterlimit="10"/>
<path vector-effect="non-scaling-stroke" d="M50.2065 330.589H132.843" stroke="white" stroke-width="1.42674" stroke-miterlimit="10"/>
<path vector-effect="non-scaling-stroke" d="M63.8179 527.336H160.023" stroke="white" stroke-width="1.42674" stroke-miterlimit="10"/>
<path vector-effect="non-scaling-stroke" d="M207.933 384.006H299.088" stroke="white" stroke-width="1.42674" stroke-miterlimit="10"/>
<path vector-effect="non-scaling-stroke" d="M167.071 408.717H210.658" stroke="white" stroke-width="1.42674" stroke-miterlimit="10"/>
<path vector-effect="non-scaling-stroke" d="M265.074 491.083C265.074 499.643 258.14 506.577 249.579 506.577C241.019 506.577 234.085 499.643 234.085 491.083" stroke="white" stroke-width="1.42674" stroke-miterlimit="10"/>
<path vector-effect="non-scaling-stroke" d="M265.074 417.991C265.074 399.229 280.283 384.006 299.059 384.006C317.835 384.006 333.044 399.215 333.044 417.991" stroke="white" stroke-width="1.42674" stroke-miterlimit="10"/>
<path vector-effect="non-scaling-stroke" d="M207.933 384.006C192.424 384.006 179.327 394.393 175.246 408.589L175.218 408.703" stroke="white" stroke-width="1.42674" stroke-miterlimit="10"/>
<path vector-effect="non-scaling-stroke" d="M372.251 461.421C372.251 472.236 363.491 480.996 352.676 480.996C341.861 480.996 333.101 472.236 333.101 461.421" stroke="white" stroke-width="1.42674" stroke-miterlimit="10"/>
<path vector-effect="non-scaling-stroke" d="M187.203 432.158C187.203 419.203 197.703 408.717 210.644 408.717C223.585 408.717 234.085 419.218 234.085 432.158" stroke="white" stroke-width="1.42674" stroke-miterlimit="10"/>
<path vector-effect="non-scaling-stroke" d="M187.202 500.157C187.202 515.167 175.032 527.337 160.023 527.337C145.013 527.337 132.843 515.167 132.843 500.157" stroke="white" stroke-width="1.42674" stroke-miterlimit="10"/>
<path vector-effect="non-scaling-stroke" d="M63.8181 527.337C48.8088 527.337 36.6387 515.167 36.6387 500.157" stroke="white" stroke-width="1.42674" stroke-miterlimit="10"/>
<path vector-effect="non-scaling-stroke" d="M36.624 344.157C36.624 336.667 42.7019 330.589 50.1923 330.589" stroke="white" stroke-width="1.42674" stroke-miterlimit="10"/>
<path vector-effect="non-scaling-stroke" d="M36.624 344.157V500.157" stroke="white" stroke-width="1.42674" stroke-miterlimit="10"/>
<path vector-effect="non-scaling-stroke" d="M132.843 344.157V500.157" stroke="white" stroke-width="1.42674" stroke-miterlimit="10"/>
<path vector-effect="non-scaling-stroke" d="M265.074 491.083V417.991" stroke="white" stroke-width="1.42674" stroke-miterlimit="10"/>
<path vector-effect="non-scaling-stroke" d="M333.101 418.135V461.422" stroke="white" stroke-width="1.42674" stroke-miterlimit="10"/>
<path vector-effect="non-scaling-stroke" d="M187.203 500.157V432.158" stroke="white" stroke-width="1.42674" stroke-miterlimit="10"/>
<path vector-effect="non-scaling-stroke" d="M234.1 432.158V491.083" stroke="white" stroke-width="1.42674" stroke-miterlimit="10"/>
<path vector-effect="non-scaling-stroke" d="M352.676 480.996H265.074" stroke="white" stroke-width="1.42674" stroke-miterlimit="10"/>
<path vector-effect="non-scaling-stroke" d="M249.594 506.577H187.203" stroke="white" stroke-width="1.42674" stroke-miterlimit="10"/>
<path vector-effect="non-scaling-stroke" d="M9.71563 392.767H0.712891V424.554H9.71563V392.767Z" stroke="white" stroke-width="1.42674" stroke-miterlimit="10"/>
<path vector-effect="non-scaling-stroke" d="M27.1936 397.232H22.1572V420.103H27.1936V397.232Z" stroke="white" stroke-width="1.42674" stroke-miterlimit="10"/>
<path vector-effect="non-scaling-stroke" d="M147.696 414.41C150.872 414.41 153.446 411.835 153.446 408.66C153.446 405.484 150.872 402.91 147.696 402.91C144.521 402.91 141.946 405.484 141.946 408.66C141.946 411.835 144.521 414.41 147.696 414.41Z" stroke="white" stroke-width="1.42674" stroke-miterlimit="10"/>
<path vector-effect="non-scaling-stroke" d="M102.882 346.953H121.116" stroke="white" stroke-width="1.42674" stroke-miterlimit="10"/>
<path vector-effect="non-scaling-stroke" d="M52.8608 346.953H89.8848" stroke="white" stroke-width="1.42674" stroke-miterlimit="10"/>
<path vector-effect="non-scaling-stroke" d="M109.388 470.366H121.116" stroke="white" stroke-width="1.42674" stroke-miterlimit="10"/>
<path vector-effect="non-scaling-stroke" d="M52.8608 470.366H89.8848" stroke="white" stroke-width="1.42674" stroke-miterlimit="10"/>
<path vector-effect="non-scaling-stroke" d="M79.041 483.536H121.116" stroke="white" stroke-width="1.42674" stroke-miterlimit="10"/>
<path vector-effect="non-scaling-stroke" d="M52.8608 483.536H61.0646" stroke="white" stroke-width="1.42674" stroke-miterlimit="10"/>
<path vector-effect="non-scaling-stroke" d="M113.711 496.705H121.116" stroke="white" stroke-width="1.42674" stroke-miterlimit="10"/>
<path vector-effect="non-scaling-stroke" d="M86.9878 496.705H96.1617" stroke="white" stroke-width="1.42674" stroke-miterlimit="10"/>
<path vector-effect="non-scaling-stroke" d="M52.8608 496.705H72.7639" stroke="white" stroke-width="1.42674" stroke-miterlimit="10"/>
<path vector-effect="non-scaling-stroke" d="M107.219 509.873H121.116" stroke="white" stroke-width="1.42674" stroke-miterlimit="10"/>
<path vector-effect="non-scaling-stroke" d="M61.0645 509.873H86.9884" stroke="white" stroke-width="1.42674" stroke-miterlimit="10"/>
<path vector-effect="non-scaling-stroke" d="M84.7769 422.642V428.263" stroke="white" stroke-width="1.42674" stroke-miterlimit="10"/>
<path vector-effect="non-scaling-stroke" d="M84.7769 389.513V395.134" stroke="white" stroke-width="1.42674" stroke-miterlimit="10"/>
<path vector-effect="non-scaling-stroke" d="M93.7082 401.769C93.537 397.988 89.7418 395.135 84.7054 395.135C80.7105 395.135 76.3875 397.674 76.3875 401.769C76.3875 405.521 80.2683 408.817 84.7054 408.817C89.8417 408.817 93.7082 411.885 93.7082 415.951C93.7082 418.919 91.0259 421.558 87.1737 422.371C86.4175 422.528 85.6328 422.642 84.8481 422.642C84.0634 422.642 83.2359 422.542 82.4512 422.371C78.7844 421.544 76.2163 418.904 76.2163 415.951" stroke="white" stroke-width="1.42674" stroke-miterlimit="10"/>
<path vector-effect="non-scaling-stroke" d="M84.9617 437.865C101.091 437.865 114.167 424.789 114.167 408.659C114.167 392.53 101.091 379.454 84.9617 379.454C68.832 379.454 55.7563 392.53 55.7563 408.659C55.7563 424.789 68.832 437.865 84.9617 437.865Z" stroke="white" stroke-width="1.42674" stroke-miterlimit="10"/>
<path vector-effect="non-scaling-stroke" d="M394.708 515.167C391.212 518.905 392.853 524.769 396.848 527.08C397.462 527.437 411.586 527.28 411.586 527.28L442.062 515.167L446.556 527.337H460.852C460.852 527.337 463.42 511.072 459.354 494.808C457.428 487.132 472.865 472.907 478.814 463.833C479.642 462.563 464.747 464.66 441.89 460.081C439.707 459.367 425.925 489.842 409.061 509.517C405.309 513.897 398.403 511.244 394.722 515.167H394.708Z" fill="#202020" stroke="white" stroke-width="1.42674" stroke-miterlimit="10"/>
<path vector-effect="non-scaling-stroke" d="M500.886 515.166C497.761 519.375 499.174 524.069 503.026 527.08C503.597 527.522 517.636 527.279 517.636 527.279L548.111 515.166L552.605 526.823L566.901 526.523C566.901 526.523 567.872 507.077 562.065 493.551C557.371 482.594 559.868 466.329 559.868 466.329C559.868 466.329 548.297 472.792 525.44 468.212C523.257 467.499 530.134 501.07 514.155 509.274C508.291 512.284 504.11 510.801 500.872 515.166H500.886Z" fill="#202020" stroke="white" stroke-width="1.42674" stroke-miterlimit="10"/>
<path vector-effect="non-scaling-stroke" d="M573.15 201.326C567.7 194.221 559.311 185.989 550.822 191.938C547.027 194.592 545.258 199.557 545.7 204.165C546.142 208.774 548.51 213.04 551.592 216.492C556.415 221.914 563.434 224.939 568.128 230.332C572.551 235.397 577.573 239.192 583.038 243.23C587.018 239.506 590.999 235.782 594.965 232.058C588.588 223.312 582.31 214.466 576.161 205.507C575.305 204.265 574.292 202.824 573.165 201.34L573.15 201.326Z" fill="#404040" stroke="white" stroke-width="1.42674" stroke-miterlimit="10"/>
<path vector-effect="non-scaling-stroke" d="M486.605 196.532L560.082 132.728C563.549 129.718 568.799 130.089 571.81 133.556L575.719 138.064L584.337 147.995L604.525 171.25C607.535 174.717 607.165 179.968 603.698 182.978L530.22 246.782C526.753 249.793 521.503 249.422 518.493 245.955L498.147 222.527L489.53 212.597L485.763 208.26C482.753 204.793 483.124 199.543 486.591 196.532H486.605Z" fill="#86bc25" stroke="white" stroke-width="1.42674" stroke-miterlimit="10"/>
<path vector-effect="non-scaling-stroke" d="M575.719 138.063L584.337 147.979L498.161 222.527L489.544 212.596L575.719 138.063Z" fill="#404040" stroke="white" stroke-width="1.42674" stroke-miterlimit="10"/>
<path vector-effect="non-scaling-stroke" d="M579.086 200.498C578.059 196.517 577.189 192.48 576.161 188.542C575.662 186.63 575.02 184.519 573.308 183.534C571.753 182.635 569.67 183.006 568.271 184.133C561.837 189.312 567.201 199.628 567.087 206.291C567.016 210.043 566.117 213.538 566.816 217.334C568.671 227.421 578.216 234.183 585.221 240.946C585.606 241.317 591.798 233.042 592.269 232.229C595.565 226.422 587.718 221 585.15 216.577C582.268 211.584 580.513 206.091 579.072 200.498H579.086Z" fill="#404040" stroke="white" stroke-width="1.42674" stroke-miterlimit="10"/>
<path vector-effect="non-scaling-stroke" d="M577.517 233.143C575.519 234.984 569.841 239.321 567.915 241.233C579.956 254.502 606.836 286.989 632.218 287.331C655.217 287.645 664.091 284.392 663.492 281.781C663.021 279.712 657.685 256.299 657.6 256.314C655.131 256.827 639.209 253.845 635.028 252.747C617.194 248.053 592.94 219.318 592.94 219.318C592.94 219.318 582.296 228.706 577.502 233.129L577.517 233.143Z" fill="#020202" stroke="white" stroke-width="1.42674" stroke-miterlimit="10"/>
<path vector-effect="non-scaling-stroke" d="M568.386 357.912C568.871 355.4 570.255 353.16 571.81 351.134C586.891 331.602 612.287 338.907 633.502 335.312C656.23 331.445 675.363 321.929 690.9 304.837C714.17 279.241 709.191 235.198 710.646 203.495C710.903 197.931 711.759 192.024 715.654 188.044C721.789 181.795 730.178 183.621 733.702 184.976V353.731C723.23 367.085 709.862 378.086 693.497 385.362C684.38 389.414 674.678 392.153 664.805 393.551C664.905 430.861 665.019 485.048 664.933 501.998C665.747 502.184 700.16 513.712 700.16 513.712C704.155 515.053 706.837 518.791 706.837 523.014V526.153H614.741V522.429C614.741 518.805 616.995 515.552 620.391 514.268C620.391 514.268 652.407 502.326 653.377 502.098C653.377 490.87 653.42 433.9 653.448 394.564C644.945 394.878 636.399 394.208 628.052 392.553C609.134 388.786 587.49 384.149 573.765 369.539C570.797 366.372 567.473 362.591 568.386 357.94V357.912Z" fill="#020202" stroke="white" stroke-width="1.42674" stroke-miterlimit="10"/>
<path vector-effect="non-scaling-stroke" d="M415.739 475.189C428.223 455.785 490.001 360.493 513.485 324.782C515.982 320.972 519.121 315.907 522.844 313.296C527.524 310.015 542.805 308.017 551.707 306.962C588.032 302.624 624.771 301.811 661.352 302.553C671.368 302.753 688.489 305.849 693.254 309.886C700.031 315.622 700.203 325.124 699.389 333.799C697.406 355.371 675.834 364.117 656.387 365.287C631.748 366.771 612.016 364.131 585.963 357.568C582.411 356.669 576.49 355.057 571.996 354.957C568.443 390.897 567.872 433.071 569.328 467.085C569.542 472.221 570.754 477.814 568.857 479.283C564.634 482.565 510.817 482.593 510.917 479.783C511.202 472.107 511.716 450.977 512.258 428.192C497.349 451.719 480.698 479.469 480.698 479.469C480.698 479.469 450.038 480.468 441.577 479.783C435.3 479.269 423.087 478.527 417.237 478.171C415.753 478.085 414.926 476.444 415.725 475.203L415.739 475.189Z" fill="#020202" stroke="white" stroke-width="1.42674" stroke-miterlimit="10"/>
<path vector-effect="non-scaling-stroke" d="M663.877 213.525C657.1 220.459 651.493 228.506 647.213 237.209C640.75 250.349 637.311 265.016 637.525 279.669C637.597 284.748 637.055 292.652 639.28 297.303C641.863 302.696 650.494 309.445 666.474 311.428C671.311 312.027 690.786 316.222 697.163 310.058C700.459 306.862 701.886 302.225 702.884 297.745C707.15 278.599 705.781 258.296 699.432 239.763C696.421 230.96 693.054 221.315 686.463 214.467C678.587 206.277 671.91 205.364 664.163 213.225C664.063 213.325 663.963 213.425 663.863 213.525H663.877Z" fill="#020202" stroke="white" stroke-width="1.42674" stroke-miterlimit="10"/>
<path vector-effect="non-scaling-stroke" d="M607.564 288.2C595.693 288.272 584.094 286.203 573.151 281.652C571.268 280.867 569.356 280.054 567.358 279.255C564.776 278.213 561.865 277.157 559.283 278.199C557.014 279.112 555.63 281.395 554.461 283.549C552.363 287.401 539.894 306.891 543.075 310.187C546.799 314.039 549.339 310.5 550.979 307.319C550.722 308.546 550.965 309.901 551.835 310.8C553.191 312.212 555.659 312.298 557.114 311C558.127 310.101 558.541 308.774 558.769 307.404C558.826 308.617 559.34 309.816 560.267 310.6C563.934 313.682 571.51 311.656 569.213 298.915C569.413 300.042 572.052 306.605 584.65 306.677C592.412 306.72 600.316 306.52 608.063 306.42C608.02 304.679 607.678 288.215 607.564 288.215V288.2Z" fill="#404040" stroke="white" stroke-width="1.42674" stroke-miterlimit="10"/>
<path vector-effect="non-scaling-stroke" d="M693.467 218.932C694.694 221.015 695.75 223.198 696.621 225.381C705.566 247.666 706.508 281.737 681.055 303.894C668.385 314.923 655.702 313.767 639.508 313.981C622.145 314.21 609.932 313.981 591.156 312.811C590.3 301.669 592.012 289.213 591.156 278.07C607.977 278.013 621.046 279.055 637.867 279.012C641.862 279.012 647.327 278.199 650.779 276.201C665.332 267.755 661.708 249.279 658.969 238.435C657.114 231.088 653.219 223.997 656.444 217.148C659.682 210.3 666.688 204.978 674.249 205.121C682.567 205.292 689.102 211.498 693.453 218.932H693.467Z" fill="#020202" stroke="white" stroke-width="1.42674" stroke-miterlimit="10"/>
<path vector-effect="non-scaling-stroke" d="M658.2 195.362C673.851 198.03 686.692 176.614 674.493 165.286C664.834 156.312 647.4 158.366 643.604 172.077C640.851 182.022 648.027 193.621 658.2 195.362Z" fill="#404040" stroke="white" stroke-width="1.42674" stroke-miterlimit="10"/>
<path vector-effect="non-scaling-stroke" d="M661.752 174.003C659.769 179.267 660.967 185.731 663.421 190.995C666.503 197.587 671.268 203.351 673.751 210.185C676.647 218.175 676.176 226.935 677.061 235.381C678.73 251.175 685.407 266.399 695.894 278.312C698.191 280.923 700.773 283.448 704.026 284.675C707.279 285.888 711.374 285.488 713.671 282.892C718.622 277.299 711.944 268.211 714.413 261.148C716.111 256.311 721.76 253.572 723.016 248.621C724.757 241.759 717.38 236.266 714.841 229.646C712.044 222.327 715.411 213.723 712.587 206.404C709.976 199.656 702.813 195.761 699.175 189.511C695.894 183.876 695.822 177.013 694.567 170.621C691.756 156.254 672.723 145.283 658.484 148.407C647.613 150.79 632.218 167.397 648.683 174.302C653.862 176.471 660.411 174.759 663.849 170.308C662.922 171.435 662.237 172.676 661.737 173.989L661.752 174.003Z" fill="#202020" stroke="white" stroke-width="1.42674" stroke-miterlimit="10"/>
<path vector-effect="non-scaling-stroke" d="M681.669 69.754C673.622 69.754 667.073 67.1858 662.008 62.0638C656.943 56.9418 654.404 50.4787 654.404 42.6459C654.404 34.8131 656.943 28.1359 662.008 22.8998C667.073 17.6637 673.636 15.0527 681.669 15.0527C689.701 15.0527 696.45 17.6637 701.586 22.8998C706.708 28.1359 709.262 34.7132 709.262 42.6459C709.262 50.5786 706.708 56.9418 701.586 62.0638C696.464 67.1858 689.83 69.754 681.669 69.754ZM681.669 58.8537C685.963 58.8537 689.487 57.3413 692.241 54.3166C694.995 51.292 696.379 47.4112 696.379 42.6602C696.379 37.9091 694.995 33.7145 692.241 30.6755C689.487 27.6509 685.963 26.1385 681.669 26.1385C677.374 26.1385 673.879 27.6509 671.168 30.6755C668.471 33.7002 667.116 37.6951 667.116 42.6602C667.116 47.6252 668.486 51.2777 671.254 54.3166C674.007 57.3556 677.474 58.8537 681.669 58.8537ZM685.336 128.921H669.427L741.492 16.722H757.571L685.35 128.921H685.336ZM765.747 121.231C760.625 126.353 754.033 128.921 746.001 128.921C737.968 128.921 731.405 126.353 726.34 121.231C721.275 116.109 718.736 109.646 718.736 101.813C718.736 93.98 721.275 87.3029 726.34 82.0668C731.405 76.8306 737.968 74.2197 746.001 74.2197C754.033 74.2197 760.625 76.8592 765.747 82.1524C770.869 87.4456 773.423 93.9943 773.423 101.813C773.423 109.631 770.869 116.109 765.747 121.231ZM735.5 113.469C738.196 116.494 741.692 118.006 745.986 118.006C750.281 118.006 753.805 116.494 756.559 113.469C759.312 110.445 760.682 106.564 760.682 101.813C760.682 97.0618 759.298 92.8672 756.559 89.8282C753.805 86.8035 750.281 85.2912 745.986 85.2912C741.692 85.2912 738.196 86.8035 735.5 89.8282C732.803 92.8529 731.448 96.8478 731.448 101.813C731.448 106.778 732.789 110.43 735.5 113.469Z" fill="#86bc25" stroke="white" stroke-width="1.42674" stroke-miterlimit="10"/>
<path vector-effect="non-scaling-stroke" d="M38.3936 54.7871C34.3416 63.262 32.972 72.9353 34.7269 82.3945L79.0415 74.2193L38.3793 54.7871H38.3936Z" fill="#A2A2A0" stroke="white" stroke-width="1.42674" stroke-miterlimit="10"/>
<path vector-effect="non-scaling-stroke" d="M39.0358 94.9356C41.4042 99.5155 44.4717 103.51 48.01 106.877C54.9583 113.483 63.804 117.635 73.1349 118.876C81.9807 120.061 91.2546 118.634 99.7722 114.225C100.029 114.097 100.272 113.954 100.514 113.811C109.203 109.103 115.737 101.941 119.704 93.6373L79.0417 74.2051L34.7271 82.3803C35.5118 86.6463 36.9385 90.8694 39.0358 94.9214V94.9356Z" fill="#404040" stroke="white" stroke-width="1.42674" stroke-miterlimit="10"/>
<path vector-effect="non-scaling-stroke" d="M58.3247 34.1992C58.0678 34.3276 57.8253 34.4703 57.5827 34.6129C48.8939 39.3212 42.3594 46.4834 38.3931 54.7871L79.0552 74.2193L84.9762 29.548C76.1304 28.3638 66.8566 29.7906 58.3389 34.1992H58.3247Z" fill="#020202" stroke="white" stroke-width="1.42674" stroke-linejoin="round"/>
<path vector-effect="non-scaling-stroke" d="M79.0405 74.2195L119.703 93.6517C123.755 85.1769 125.124 75.5036 123.369 66.0443C122.585 61.7783 121.158 57.5552 119.061 53.5032C116.692 48.9234 113.625 44.9285 110.086 41.5614C103.138 34.9556 94.2924 30.8038 84.9615 29.5625L79.0405 74.2338V74.2195Z" fill="#404040" stroke="white" stroke-width="1.42674" stroke-miterlimit="10"/>
</g>
<defs>
<clipPath id="clip0_20_14628">
<rect width="802" height="528.051" fill="white"/>
</clipPath>
</defs>
</svg>
