<svg width="802" height="535" viewBox="0 0 802 535" fill="none" xmlns="http://www.w3.org/2000/svg">
<g clip-path="url(#clip0_20_13877)">
<path vector-effect="non-scaling-stroke" d="M123.322 196.314C175.704 196.314 218.169 153.849 218.169 101.466C218.169 49.0837 175.704 6.61914 123.322 6.61914C70.9391 6.61914 28.4746 49.0837 28.4746 101.466C28.4746 153.849 70.9391 196.314 123.322 196.314Z" stroke="white" stroke-width="1.36177" stroke-miterlimit="10"/>
<mask id="mask0_20_13877" style="mask-type:luminance" maskUnits="userSpaceOnUse" x="28" y="5" width="191" height="190">
<path vector-effect="non-scaling-stroke" d="M123.322 194.776C175.704 194.776 218.169 152.312 218.169 99.9292C218.169 47.5466 175.704 5.08203 123.322 5.08203C70.9389 5.08203 28.4744 47.5466 28.4744 99.9292C28.4744 152.312 70.9389 194.776 123.322 194.776Z" fill="white"/>
</mask>
<g mask="url(#mask0_20_13877)">
<path vector-effect="non-scaling-stroke" d="M132.146 106.821L134.788 92.6717C134.788 92.6717 147.22 103.634 154.043 99.0448C158.823 95.831 158.033 89.4171 157.638 81.6686L158.251 81.941C159.83 82.6355 161.478 81.0967 160.893 79.4762C159.953 76.8616 158.673 74.1653 157.692 72.2452C157.72 71.8775 157.761 71.5235 157.801 71.1558C159.245 58.9407 148.378 51.9004 142.55 49.6262C136.721 47.3521 128.578 43.7298 121.075 49.3539C113.449 55.0733 119.863 67.9012 115.9 85.2092C115.083 88.7771 112.999 93.8156 107.593 100.23L132.132 106.834L132.146 106.821Z" fill="#404040" stroke="white" stroke-width="1.36177" stroke-miterlimit="10"/>
<path vector-effect="non-scaling-stroke" d="M155.119 58.9264C151.061 52.921 144.565 50.0476 142.686 49.3123L141.869 48.9855C136.108 46.7113 128.21 43.6065 120.911 49.0672C116.445 52.4035 116.649 58.1638 116.894 65.4492C117.03 69.4256 117.18 73.9194 116.649 78.8763L116.608 79.1895L116.921 79.2303C117.643 79.312 118.337 79.3393 119.018 79.3393C133.371 79.3393 140.112 62.93 140.984 60.6558C149.222 62.1129 154.942 59.403 154.996 59.3757L155.323 59.2123L155.119 58.9127V58.9264Z" fill="#020202" stroke="white" stroke-width="1.36177" stroke-miterlimit="10"/>
<path vector-effect="non-scaling-stroke" d="M118.568 49.1488C125.581 49.1488 131.274 43.4566 131.274 36.4299C131.274 29.4031 125.581 23.7109 118.568 23.7109C111.555 23.7109 105.863 29.4031 105.863 36.4299C105.863 43.4566 111.555 49.1488 118.568 49.1488Z" fill="#020202" stroke="white" stroke-width="1.36177" stroke-miterlimit="10"/>
<path vector-effect="non-scaling-stroke" d="M138.247 67.5871C138.247 67.5871 134.134 62.9163 130.593 65.8032C126.1 69.4527 130.593 75.1041 132.908 75.7441" fill="#404040"/>
<path vector-effect="non-scaling-stroke" d="M138.247 67.5871C138.247 67.5871 134.134 62.9163 130.593 65.8032C126.1 69.4527 130.593 75.1041 132.908 75.7441" stroke="white" stroke-width="1.36177" stroke-miterlimit="10"/>
<path vector-effect="non-scaling-stroke" d="M138.247 67.5871C138.247 67.5871 134.134 62.9163 130.593 65.8032C126.1 69.4527 130.593 75.1041 132.908 75.7441" stroke="white" stroke-width="1.36177" stroke-miterlimit="10"/>
<path vector-effect="non-scaling-stroke" d="M157.801 85.8763C151.837 85.8763 150.625 80.865 150.625 80.8105" stroke="white" stroke-width="1.36177" stroke-miterlimit="10"/>
<path vector-effect="non-scaling-stroke" d="M60.4212 200.197C60.4212 200.197 57.4117 114.542 107.606 100.202L132.146 106.807C132.146 106.807 172.263 125.626 173.448 196.615" fill="#020202"/>
<path vector-effect="non-scaling-stroke" d="M60.4212 200.197C60.4212 200.197 57.4117 114.542 107.606 100.202L132.146 106.807C132.146 106.807 172.263 125.626 173.448 196.615" stroke="white" stroke-width="1.36177" stroke-miterlimit="10"/>
<path vector-effect="non-scaling-stroke" d="M90.5708 136.738L111.188 200.197" stroke="white" stroke-width="1.36177" stroke-miterlimit="10"/>
</g>
<path vector-effect="non-scaling-stroke" d="M123.322 194.775C175.704 194.775 218.169 152.311 218.169 99.9282C218.169 47.5456 175.704 5.08105 123.322 5.08105C70.9389 5.08105 28.4744 47.5456 28.4744 99.9282C28.4744 152.311 70.9389 194.775 123.322 194.775Z" stroke="white" stroke-width="1.36177" stroke-miterlimit="10"/>
<path vector-effect="non-scaling-stroke" d="M5.03857 66.2497L24.8115 81.1202L66.359 70.4848L48.5471 55.6143L5.03857 66.2497Z" fill="#A100FF" stroke="white" stroke-width="1.36177" stroke-miterlimit="10"/>
<path vector-effect="non-scaling-stroke" d="M66.359 70.4989L62.3962 23.7357L44.5979 8.86523L3.06396 21.6114L5.03853 66.2365L24.8114 81.1207L66.359 70.4989Z" fill="#020202" stroke="white" stroke-width="1.36177" stroke-miterlimit="10"/>
<path vector-effect="non-scaling-stroke" d="M66.359 70.4989L48.547 55.6148L44.5979 8.86523" fill="#020202"/>
<path vector-effect="non-scaling-stroke" d="M66.359 70.4989L48.547 55.6148L44.5979 8.86523" stroke="white" stroke-width="1.36177" stroke-miterlimit="10"/>
<path vector-effect="non-scaling-stroke" d="M5.03857 66.237L48.5471 55.6152" stroke="white" stroke-width="1.36177" stroke-miterlimit="10"/>
<path vector-effect="non-scaling-stroke" d="M744.846 371.069V418.826C744.846 459.352 718.101 492.212 685.119 492.212H96.7264C63.7444 492.212 36.9993 459.352 36.9993 418.826V183.948" stroke="white" stroke-width="1.36177" stroke-miterlimit="10"/>
<path vector-effect="non-scaling-stroke" d="M197.225 37.3809H693.78C721.982 37.3809 744.86 60.245 744.86 88.4608L744.697 269.127" fill="#020202"/>
<path vector-effect="non-scaling-stroke" d="M197.225 37.3809H693.78C721.982 37.3809 744.86 60.245 744.86 88.4608L744.697 269.127" stroke="white" stroke-width="1.36177" stroke-miterlimit="10"/>
<path vector-effect="non-scaling-stroke" d="M41.2889 507.899L1.06226 369.271H209.481L248.237 507.899H41.2889Z" fill="#202020" stroke="white" stroke-width="1.36177" stroke-miterlimit="10"/>
<path vector-effect="non-scaling-stroke" d="M48.3156 507.899L10.8669 381.309H206.063L241.128 507.899H48.3156Z" fill="#020202" stroke="white" stroke-width="1.36177" stroke-miterlimit="10"/>
<path vector-effect="non-scaling-stroke" d="M133.957 345.535H146.24V320.001V330.964C146.24 330.964 151.851 332.108 153.703 326.756C155.541 321.404 158.796 306.969 150.72 301.318C142.645 295.653 132.554 304.777 132.554 304.777L133.957 345.535Z" fill="#020202" stroke="white" stroke-width="1.36177" stroke-miterlimit="10"/>
<path vector-effect="non-scaling-stroke" d="M129.845 426.737H143.98C171.024 426.737 192.99 448.703 192.99 475.747V507.912H80.8481V475.747C80.8481 448.703 102.813 426.737 129.858 426.737H129.845Z" fill="#404040" stroke="white" stroke-width="1.36177" stroke-miterlimit="10"/>
<path vector-effect="non-scaling-stroke" d="M50.4534 391.903L34.7386 409.279C25.0837 419.942 32.6551 437.005 47.0354 437.005H87.8476V390.664L50.4534 391.917V391.903Z" fill="#020202" stroke="white" stroke-width="1.36177" stroke-miterlimit="10"/>
<path vector-effect="non-scaling-stroke" d="M200.411 409.607L219.081 426.725C227.02 433.996 239.685 431.831 244.751 422.326L274.9 365.799C276.698 362.435 280.892 361.169 284.242 362.994L297.832 370.361C298.595 370.77 299.426 371.028 300.283 371.096L315.1 372.472C317.442 372.69 319.457 370.851 319.457 368.495C319.457 366.385 317.823 364.642 315.712 364.505L295.122 363.212L310.715 364.192L320.233 360.978C322.385 360.243 323.638 357.996 323.107 355.776C322.521 353.312 319.975 351.841 317.551 352.576L307.841 355.504L322.031 351.228L323.665 350.833C325.749 350.329 327.083 348.314 326.729 346.203C326.32 343.738 323.801 342.213 321.432 343.003L309.135 347.075L325.953 341.505C327.601 340.92 328.363 339.013 327.573 337.461C326.048 334.465 322.535 333.076 319.389 334.233L305.472 339.313L284.528 335.949C283.302 335.758 283.221 334.029 284.419 333.702L295.585 330.747C298.963 329.848 300.706 326.103 299.194 322.944C297.968 320.384 295.013 319.158 292.331 320.098L274.178 326.458C270.529 327.738 267.301 329.971 264.823 332.926L226.026 379.117L216.153 383.134L200.425 409.607H200.411Z" fill="#020202"/>
<path vector-effect="non-scaling-stroke" d="M307.841 355.504L317.551 352.576C319.975 351.841 322.521 353.312 323.107 355.776C323.638 357.996 322.385 360.243 320.233 360.978L310.715 364.192L295.122 363.212L315.712 364.505C317.823 364.642 319.457 366.385 319.457 368.495C319.457 370.851 317.442 372.69 315.1 372.472L300.283 371.096C299.426 371.028 298.595 370.77 297.832 370.361L284.242 362.994C280.892 361.169 276.698 362.435 274.9 365.799L244.751 422.326C239.685 431.831 227.02 433.996 219.081 426.725L200.411 409.607H200.425L216.153 383.134L226.026 379.117L264.823 332.926C267.301 329.971 270.529 327.738 274.178 326.458L292.331 320.098C295.013 319.158 297.968 320.384 299.194 322.944C300.706 326.103 298.963 329.848 295.585 330.747L284.419 333.702C283.221 334.029 283.302 335.758 284.528 335.949L305.472 339.313L319.389 334.233C322.535 333.076 326.048 334.465 327.573 337.461C328.363 339.013 327.601 340.92 325.953 341.505L309.135 347.075M307.841 355.504L293.72 354.592M307.841 355.504L322.031 351.228L323.665 350.833C325.749 350.329 327.083 348.314 326.729 346.203C326.32 343.738 323.801 342.213 321.432 343.003L309.135 347.075M309.135 347.075L292.263 346.285" stroke="white" stroke-width="1.36177" stroke-miterlimit="10"/>
<path vector-effect="non-scaling-stroke" d="M48.3154 389.983C48.3154 389.983 70.3625 360.024 90.1217 347.55C109.881 335.076 167.92 337.773 184.342 349.007C200.765 360.242 226.013 379.116 226.013 379.116L207.152 419.22L159.599 376.406L185.023 399.297L188.305 439.279H83.2584L89.291 377.495L86.3496 407.659L77.8522 416.401L48.3154 389.983Z" fill="#020202" stroke="white" stroke-width="1.36177" stroke-miterlimit="10"/>
<path vector-effect="non-scaling-stroke" d="M48.3154 507.898H342.621V510.445C342.621 520.182 334.723 528.08 324.986 528.08H65.9367C56.2 528.08 48.3018 520.182 48.3018 510.445V507.898H48.3154Z" fill="#202020" stroke="white" stroke-width="1.36177" stroke-miterlimit="10"/>
<path vector-effect="non-scaling-stroke" d="M297.056 504.889H280.647V507.898H297.056V504.889Z" fill="#020202" stroke="white" stroke-width="1.36177" stroke-miterlimit="10"/>
<path vector-effect="non-scaling-stroke" d="M278.413 504.889H262.004V507.898H278.413V504.889Z" fill="#020202" stroke="white" stroke-width="1.36177" stroke-miterlimit="10"/>
<path vector-effect="non-scaling-stroke" d="M259.771 504.889H243.362V507.898H259.771V504.889Z" fill="#020202" stroke="white" stroke-width="1.36177" stroke-miterlimit="10"/>
<path vector-effect="non-scaling-stroke" d="M241.128 504.889H224.719V507.898H241.128V504.889Z" fill="#020202" stroke="white" stroke-width="1.36177" stroke-miterlimit="10"/>
<path vector-effect="non-scaling-stroke" d="M222.472 504.889H206.063V507.898H222.472V504.889Z" fill="#020202" stroke="white" stroke-width="1.36177" stroke-miterlimit="10"/>
<path vector-effect="non-scaling-stroke" d="M203.829 504.889H187.42V507.898H203.829V504.889Z" fill="#020202" stroke="white" stroke-width="1.36177" stroke-miterlimit="10"/>
<path vector-effect="non-scaling-stroke" d="M185.187 504.889H168.778V507.898H185.187V504.889Z" fill="#020202" stroke="white" stroke-width="1.36177" stroke-miterlimit="10"/>
<path vector-effect="non-scaling-stroke" d="M166.544 504.889H150.135V507.898H166.544V504.889Z" fill="#020202" stroke="white" stroke-width="1.36177" stroke-miterlimit="10"/>
<path vector-effect="non-scaling-stroke" d="M147.902 504.889H131.492V507.898H147.902V504.889Z" fill="#020202" stroke="white" stroke-width="1.36177" stroke-miterlimit="10"/>
<path vector-effect="non-scaling-stroke" d="M129.245 504.889H112.836V507.898H129.245V504.889Z" fill="#020202" stroke="white" stroke-width="1.36177" stroke-miterlimit="10"/>
<path vector-effect="non-scaling-stroke" d="M110.603 504.889H94.1936V507.898H110.603V504.889Z" fill="#020202" stroke="white" stroke-width="1.36177" stroke-miterlimit="10"/>
<path vector-effect="non-scaling-stroke" d="M91.9603 504.889H75.551V507.898H91.9603V504.889Z" fill="#020202" stroke="white" stroke-width="1.36177" stroke-miterlimit="10"/>
<path vector-effect="non-scaling-stroke" d="M138.955 456.206H169.091V473.174C169.091 480.446 163.194 486.342 155.922 486.342H152.123C144.851 486.342 138.955 480.446 138.955 473.174V456.206Z" fill="#404040" stroke="white" stroke-width="1.36177" stroke-miterlimit="10"/>
<path vector-effect="non-scaling-stroke" d="M140.889 292.181C130.948 291.432 126.372 297.152 122.627 303.716C119.4 309.367 114.103 319.294 110.317 329.698C104.516 345.658 93.7305 369.285 93.7305 369.285H135.591L141.815 311.26C141.815 311.26 147.343 310.429 151.279 307.106C155.214 303.784 155.078 300.066 149.686 295.708C147.534 293.965 144.361 292.454 140.875 292.195L140.889 292.181Z" fill="#404040" stroke="white" stroke-width="1.36177" stroke-miterlimit="10"/>
<path vector-effect="non-scaling-stroke" d="M463.26 391.303C446.02 374.063 403.792 360.609 403.928 374.975C404.01 383.963 441.064 384.535 441.064 384.535L463.26 391.303Z" fill="#404040" stroke="white" stroke-width="1.36177" stroke-miterlimit="10"/>
<path vector-effect="non-scaling-stroke" d="M387.124 404.621C373.166 398.262 350.901 397.118 343.397 396.914C341.763 396.873 340.469 395.443 340.687 393.822C341.395 388.539 347.714 378.965 386.783 386.891L387.11 404.621H387.124Z" fill="#404040" stroke="white" stroke-width="1.36177" stroke-miterlimit="10"/>
<path vector-effect="non-scaling-stroke" d="M382.848 400.836L352.099 381.499C350.016 380.191 349.661 377.332 351.336 375.52C354.196 372.429 360.869 370.4 369.802 374.268C384.387 380.586 382.848 400.836 382.848 400.836Z" fill="#404040" stroke="white" stroke-width="1.36177" stroke-miterlimit="10"/>
<path vector-effect="non-scaling-stroke" d="M424.245 430.277C424.245 430.277 424.205 430.318 424.191 430.331C415.966 421.085 405.766 413.677 394.654 408.244C390.787 406.351 386.742 404.662 383.488 401.83C378.967 397.894 376.434 392.216 374.051 386.714C371.205 380.15 368.359 373.586 365.512 367.023C365.104 366.07 364.641 364.898 365.226 363.918C366.261 362.216 369.271 362.747 370.878 363.033C372.907 363.4 374.841 364.258 376.543 365.416C379.402 367.363 381.636 370.1 383.583 372.96C386.089 376.637 388.186 380.559 390.228 384.508C391.223 386.442 392.258 388.443 393.973 389.778C396.901 392.066 401.136 391.848 404.582 390.445C408.013 389.043 410.941 386.646 414.114 384.712C421.658 380.109 430.782 378.148 439.538 379.238C447.518 380.246 455.43 383.786 461.299 389.342C461.939 389.941 462.62 390.69 462.416 391.644C462.198 392.651 461.081 393.441 460.4 394.136C458.671 395.865 456.955 397.608 455.226 399.338C451.78 402.796 448.322 406.269 444.863 409.714C437.999 416.578 431.136 423.427 424.245 430.277Z" fill="#404040" stroke="white" stroke-width="1.36177" stroke-miterlimit="10"/>
<path vector-effect="non-scaling-stroke" d="M455.226 399.338C455.226 399.338 449.234 376.038 409.307 387.872Z" fill="#404040"/>
<path vector-effect="non-scaling-stroke" d="M455.226 399.338C455.226 399.338 449.234 376.038 409.307 387.872" stroke="white" stroke-width="1.36177" stroke-miterlimit="10"/>
<path vector-effect="non-scaling-stroke" d="M481.196 409.232L463.267 391.303L424.278 430.291L442.208 448.221L481.196 409.232Z" fill="#020202" stroke="white" stroke-width="1.36177" stroke-miterlimit="10"/>
<path vector-effect="non-scaling-stroke" d="M517.567 526.282C518.915 527.439 520.631 528.066 522.402 528.066H645.546V510.622C645.546 477.599 618.774 450.826 585.751 450.826H543.101C541.507 450.826 539.955 450.309 538.675 449.369L486.955 411.049C483.986 408.857 479.874 409.156 477.259 411.771L446.987 442.043C438.312 450.717 439.987 458.725 446.919 465.819C447.096 465.996 517.581 526.295 517.581 526.295L517.567 526.282Z" fill="#202020" stroke="white" stroke-width="1.36177" stroke-miterlimit="10"/>
<path vector-effect="non-scaling-stroke" d="M712.395 501.948L716.018 528.067H679.549C679.549 528.067 677.983 523.587 689 516.424C699.064 509.874 688.333 486.71 688.333 486.71L712.395 501.948Z" fill="#020202" stroke="white" stroke-width="1.36177" stroke-miterlimit="10"/>
<path vector-effect="non-scaling-stroke" d="M679.55 528.067H716.018L714.942 520.318H683.853C678.528 525.166 679.536 528.067 679.536 528.067H679.55Z" fill="#020202" stroke="white" stroke-width="1.36177" stroke-miterlimit="10"/>
<path vector-effect="non-scaling-stroke" d="M699.84 505.679H693.29V505.271H699.84V505.679ZM693.058 509.397V509.805H699.609V509.397H693.058ZM698.165 513.523H691.615V513.931H698.165V513.523Z" fill="#020202" stroke="white" stroke-width="1.36177" stroke-miterlimit="10"/>
<path vector-effect="non-scaling-stroke" d="M757.238 501.948L760.861 528.067H724.392C724.392 528.067 722.826 523.587 733.843 516.424C743.907 509.874 733.176 486.71 733.176 486.71L757.238 501.948Z" fill="#020202" stroke="white" stroke-width="1.36177" stroke-miterlimit="10"/>
<path vector-effect="non-scaling-stroke" d="M724.393 528.067H760.861L759.785 520.318H728.696C723.371 525.166 724.379 528.067 724.379 528.067H724.393Z" fill="#020202" stroke="white" stroke-width="1.36177" stroke-miterlimit="10"/>
<path vector-effect="non-scaling-stroke" d="M744.683 505.679H738.133V505.271H744.683V505.679ZM737.901 509.397V509.805H744.451V509.397H737.901ZM743.008 513.523H736.458V513.931H743.008V513.523Z" fill="#020202" stroke="white" stroke-width="1.36177" stroke-miterlimit="10"/>
<path vector-effect="non-scaling-stroke" d="M654.082 290.239L654.997 289.487C656.257 288.45 656.439 286.588 655.402 285.327L643.481 270.835C642.444 269.575 640.582 269.393 639.321 270.43L638.406 271.183C637.146 272.22 636.965 274.082 638.002 275.342L649.923 289.834C650.959 291.095 652.822 291.276 654.082 290.239Z" fill="#A100FF" stroke="white" stroke-width="1.36177" stroke-miterlimit="10"/>
<path vector-effect="non-scaling-stroke" d="M659.123 289.894C659.123 289.894 659.259 280.865 654.071 277.583C654.071 277.583 650.19 276.807 653.023 286.843C653.023 286.843 641.979 283.548 639.459 278.441C639.459 278.441 634.856 284.174 639.378 289.294C639.378 289.294 641.802 292.345 652.682 298.568" fill="#020202"/>
<path vector-effect="non-scaling-stroke" d="M659.123 289.894C659.123 289.894 659.259 280.865 654.071 277.583C654.071 277.583 650.19 276.807 653.023 286.843C653.023 286.843 641.979 283.548 639.459 278.441C639.459 278.441 634.856 284.174 639.378 289.294C639.378 289.294 641.802 292.345 652.682 298.568" stroke="white" stroke-width="1.36177" stroke-miterlimit="10"/>
<path vector-effect="non-scaling-stroke" d="M644.117 287.673C644.117 287.673 638.207 284.705 637.757 281.872Z" fill="white"/>
<path vector-effect="non-scaling-stroke" d="M644.117 287.673C644.117 287.673 638.207 284.705 637.757 281.872" stroke="white" stroke-width="1.36177" stroke-miterlimit="10"/>
<path vector-effect="non-scaling-stroke" d="M677.112 238.364C677.112 238.364 660.458 224.175 658.919 225.727C656.195 228.451 664.611 234.293 664.611 234.293C664.611 234.293 658.797 241.374 660.649 243.022C662.501 244.669 669.99 248.115 669.99 248.115L677.126 238.364H677.112Z" fill="#020202" stroke="white" stroke-width="1.36177" stroke-miterlimit="10"/>
<path vector-effect="non-scaling-stroke" d="M710.898 256.681L677.82 235.818L668.411 250.457L699.309 272.736L710.898 256.681Z" fill="#404040" stroke="white" stroke-width="1.36177" stroke-miterlimit="10"/>
<path vector-effect="non-scaling-stroke" d="M716.318 346.584L724.992 428.739L731.406 508.417L762.291 508.185L756.327 425.662L753.14 346.584H716.318Z" fill="#020202" stroke="white" stroke-width="1.36177" stroke-miterlimit="10"/>
<path vector-effect="non-scaling-stroke" d="M696.558 346.584L686.549 429.121V508.566L717.856 508.417L718.142 431.558L732.059 346.584H696.558Z" fill="#020202" stroke="white" stroke-width="1.36177" stroke-miterlimit="10"/>
<path vector-effect="non-scaling-stroke" d="M728.655 252.159L727.552 244.084L716.753 245.187V245.881V214.07H713.131V276.017H716.753V252.036L728.655 252.159Z" fill="#020202" stroke="white" stroke-width="1.36177" stroke-miterlimit="10"/>
<path vector-effect="non-scaling-stroke" d="M694.761 284.678C694.829 290.915 694.924 297.683 695.047 304.451C695.333 321.309 695.728 338.114 695.918 346.393C695.918 346.951 695.946 347.482 695.959 347.959C695.959 348.463 695.986 348.912 695.986 349.321C696.027 350.846 696.041 351.704 696.041 351.704C696.041 351.704 714.357 358.908 736.826 355.245C751.329 352.889 753.14 348.463 753.14 348.463C753.14 348.463 753.14 348.15 753.167 347.578C753.167 347.292 753.181 346.924 753.208 346.502C753.426 339.366 754.079 314.146 753.276 293.202C752.84 282.009 751.996 272.04 750.444 266.702C748.142 258.818 742.845 255.577 737.534 253.956C733.952 252.867 730.357 252.513 727.688 251.982C727.62 251.982 727.552 251.954 727.484 251.941C720.702 250.62 714.003 251.982 708.474 255.291C706.526 256.462 704.729 257.864 703.122 259.485C699.731 262.903 697.212 267.261 696.027 272.272C695.183 275.799 694.706 279.912 694.761 284.691V284.678Z" fill="#404040" stroke="white" stroke-width="1.36177" stroke-miterlimit="10"/>
<path vector-effect="non-scaling-stroke" d="M705.532 221.642C705.532 221.642 700.998 256.748 723.589 246.712C730.221 244.22 732.917 234.715 732.917 234.715L731.283 229.377C731.283 229.377 733.843 211.224 721.751 211.428C705.914 211.701 705.546 221.642 705.546 221.642H705.532Z" fill="#020202" stroke="white" stroke-width="1.36177" stroke-miterlimit="10"/>
<path vector-effect="non-scaling-stroke" d="M708.487 223.725L712.396 230.575C712.396 230.575 714.942 227.824 716.236 229.023C717.53 230.235 716.358 236.594 713.24 235.559C713.24 235.559 713.009 241.837 715.024 243.294C717.039 244.737 725.714 245.459 729.99 243.185C736.186 239.89 739.195 229.472 735.26 220.294C729.826 207.602 708.841 203.694 703.994 210.503C697.947 218.986 708.501 223.725 708.501 223.725H708.487Z" fill="#020202" stroke="white" stroke-width="1.36177" stroke-miterlimit="10"/>
<path vector-effect="non-scaling-stroke" d="M732.359 252.772L731.909 249.163C731.909 249.163 716.821 250.389 712.395 250.007L713.131 253.071C715.269 253.725 720.212 253.807 723.929 253.848C727.402 253.888 730.289 253.33 732.372 252.772H732.359Z" fill="#020202" stroke="white" stroke-width="1.36177" stroke-miterlimit="10"/>
<path vector-effect="non-scaling-stroke" d="M699.623 263.367C694.761 272.545 693.304 274.343 678.651 297.561L661.18 286.245L650.054 300.952C650.054 300.952 666.695 319.608 680 319.608C685.188 319.608 690.24 315.523 694.639 310.103C699.84 303.716 714.942 289.69 722.378 282.568C730.943 274.356 714.643 251.424 699.623 263.353V263.367Z" fill="#404040" stroke="white" stroke-width="1.36177" stroke-miterlimit="10"/>
<path vector-effect="non-scaling-stroke" d="M695.878 347.959V349.321C695.878 349.321 695.85 351.976 695.878 351.99C696.49 352.208 708.379 356.906 730.861 356.293C741.388 356.007 748.66 354.21 753.099 351.432C753.14 353.801 753.113 346.938 753.14 346.516L753.058 346.611C751.724 346.897 734.647 356.211 695.878 347.986V347.959Z" fill="#020202" stroke="white" stroke-width="1.36177" stroke-miterlimit="10"/>
<path vector-effect="non-scaling-stroke" d="M627.299 224.229C625.964 227.851 621.947 229.703 618.325 228.368C614.703 227.034 612.851 223.017 614.185 219.394C615.52 215.772 619.537 213.92 623.159 215.254C626.781 216.589 628.634 220.606 627.299 224.229Z" stroke="white" stroke-width="1.36177" stroke-linecap="round" stroke-linejoin="round"/>
<path vector-effect="non-scaling-stroke" d="M649.305 214.478C649.305 218.345 646.173 221.477 642.306 221.477C638.438 221.477 635.306 218.345 635.306 214.478C635.306 210.611 638.438 207.479 642.306 207.479C646.173 207.479 649.305 210.611 649.305 214.478Z" stroke="white" stroke-width="1.36177" stroke-linecap="round" stroke-linejoin="round"/>
<path vector-effect="non-scaling-stroke" d="M672.864 210.747C672.864 214.614 669.732 217.746 665.864 217.746C661.997 217.746 658.865 214.614 658.865 210.747C658.865 206.879 661.997 203.747 665.864 203.747C669.732 203.747 672.864 206.879 672.864 210.747Z" stroke="white" stroke-width="1.36177" stroke-linecap="round" stroke-linejoin="round"/>
<path vector-effect="non-scaling-stroke" d="M610.385 290.205C615.329 288.108 620.626 286.161 626.236 284.363" stroke="white" stroke-width="1.36177" stroke-linejoin="round"/>
<path vector-effect="non-scaling-stroke" d="M576.232 312.797C581.448 306.723 588.897 301.085 598.184 296.047" stroke="white" stroke-width="1.36177" stroke-linejoin="round"/>
<path vector-effect="non-scaling-stroke" d="M646.963 193.425C658.715 190.796 671.393 188.781 684.765 187.487V234.005" stroke="white" stroke-width="1.36177" stroke-linejoin="round"/>
<path vector-effect="non-scaling-stroke" d="M567.694 248.005V333.374C567.694 367.731 635.946 395.579 720.144 395.579C754.461 395.579 786.135 390.949 800.488 387.123V301.754C786.135 305.58 754.461 310.21 720.144 310.21C676.445 310.21 637.049 302.707 609.255 290.696C583.491 279.557 567.694 264.536 567.694 248.005ZM567.694 248.005C567.694 232.848 581.53 205.762 646.963 193.438" stroke="white" stroke-width="1.36177" stroke-linejoin="round"/>
<path vector-effect="non-scaling-stroke" d="M710.244 31.6191H620.476V59.9984H710.244V31.6191Z" fill="#202020" stroke="white" stroke-width="1.36177" stroke-miterlimit="10"/>
<path vector-effect="non-scaling-stroke" d="M710.244 3.24023H620.476V31.6195H710.244V3.24023Z" fill="#020202" stroke="white" stroke-width="1.36177" stroke-miterlimit="10"/>
<path vector-effect="non-scaling-stroke" d="M695.319 22.4825C696.749 22.4825 697.906 21.0662 697.906 19.2959C697.906 17.5256 696.749 16.1094 695.319 16.1094C693.889 16.1094 692.732 17.5392 692.732 19.2959C692.732 21.0526 693.889 22.4825 695.319 22.4825Z" fill="#020202" stroke="white" stroke-width="1.36177" stroke-miterlimit="10"/>
<path vector-effect="non-scaling-stroke" d="M695.319 48.9815C696.749 48.9815 697.906 47.5516 697.906 45.7949C697.906 44.0383 696.749 42.6084 695.319 42.6084C693.889 42.6084 692.732 44.0246 692.732 45.7949C692.732 47.5652 693.889 48.9815 695.319 48.9815Z" fill="#020202" stroke="white" stroke-width="1.36177" stroke-miterlimit="10"/>
<path vector-effect="non-scaling-stroke" d="M632.637 19.2949H680.462" stroke="white" stroke-width="1.36177" stroke-miterlimit="10"/>
<path vector-effect="non-scaling-stroke" d="M632.637 45.8223H680.462" stroke="white" stroke-width="1.36177" stroke-miterlimit="10"/>
<path vector-effect="non-scaling-stroke" d="M712.763 116.2H624.534C622.782 116.2 621.361 117.621 621.361 119.373V143.34C621.361 145.093 622.782 146.513 624.534 146.513H712.763C714.516 146.513 715.936 145.093 715.936 143.34V119.373C715.936 117.621 714.516 116.2 712.763 116.2Z" stroke="white" stroke-width="1.36177" stroke-linecap="round" stroke-linejoin="round"/>
<path vector-effect="non-scaling-stroke" d="M620.476 72.9648H668.056" stroke="white" stroke-width="1.36177" stroke-linecap="round" stroke-linejoin="round"/>
<path vector-effect="non-scaling-stroke" d="M620.476 84.0898H715.65" stroke="white" stroke-width="1.36177" stroke-linecap="round" stroke-linejoin="round"/>
<path vector-effect="non-scaling-stroke" d="M620.476 95.2295H715.65" stroke="white" stroke-width="1.36177" stroke-linecap="round" stroke-linejoin="round"/>
<path vector-effect="non-scaling-stroke" d="M620.476 106.355H715.65" stroke="white" stroke-width="1.36177" stroke-linecap="round" stroke-linejoin="round"/>
<path vector-effect="non-scaling-stroke" d="M792.876 72.2285H735.478C730.815 72.2285 727.035 76.0086 727.035 80.6715V138.07C727.035 142.733 730.815 146.513 735.478 146.513H792.876C797.539 146.513 801.319 142.733 801.319 138.07V80.6715C801.319 76.0086 797.539 72.2285 792.876 72.2285Z" fill="#020202" stroke="white" stroke-width="1.36177" stroke-linecap="round" stroke-linejoin="round"/>
<path vector-effect="non-scaling-stroke" d="M781.424 106.968C781.424 108.983 783.058 110.631 785.087 110.631C787.116 110.631 788.75 108.997 788.75 106.968C788.75 104.939 787.116 103.305 785.087 103.305C783.058 103.305 781.424 104.939 781.424 106.968Z" stroke="white" stroke-width="1.36177" stroke-linecap="round" stroke-linejoin="round"/>
<path vector-effect="non-scaling-stroke" d="M768.596 85.6143L774.152 90.5302L769.413 95.8956" stroke="white" stroke-width="1.36177" stroke-linecap="round" stroke-linejoin="round"/>
<path vector-effect="non-scaling-stroke" d="M751.029 82.7139L744.315 89.4274" stroke="white" stroke-width="1.36177" stroke-linecap="round" stroke-linejoin="round"/>
<path vector-effect="non-scaling-stroke" d="M744.315 82.7139L751.029 89.4274" stroke="white" stroke-width="1.36177" stroke-linecap="round" stroke-linejoin="round"/>
<path vector-effect="non-scaling-stroke" d="M771.946 118.773L765.232 125.487" stroke="white" stroke-width="1.36177" stroke-linecap="round" stroke-linejoin="round"/>
<path vector-effect="non-scaling-stroke" d="M765.232 118.773L771.946 125.487" stroke="white" stroke-width="1.36177" stroke-linecap="round" stroke-linejoin="round"/>
<path vector-effect="non-scaling-stroke" d="M774.152 90.5303C765.328 90.5303 759.077 93.0632 754.011 97.1076C752.282 98.4966 750.675 100.104 749.749 102.119C748.823 104.134 748.66 106.586 749.749 108.519C750.443 109.745 751.56 110.657 752.513 111.692C753.467 112.727 754.297 114.034 754.202 115.423C754.039 117.629 751.778 118.964 750.457 120.734C748.51 123.363 748.768 127.203 750.552 129.94C752.336 132.677 755.387 134.393 758.56 135.169C761.732 135.945 767.248 136.122 770.516 135.972" stroke="white" stroke-width="1.36177" stroke-linecap="round" stroke-linejoin="round"/>
<path vector-effect="non-scaling-stroke" d="M318.109 25.4512L345.317 52.6593V88.5419" fill="#020202"/>
<path vector-effect="non-scaling-stroke" d="M318.109 25.4512L345.317 52.6593V88.5419" stroke="white" stroke-width="1.36177" stroke-linecap="round" stroke-linejoin="round"/>
<path vector-effect="non-scaling-stroke" d="M380.015 88.5425V57.0039" stroke="white" stroke-width="1.36177" stroke-linecap="round" stroke-linejoin="round"/>
<path vector-effect="non-scaling-stroke" d="M414.74 88.5425V36.6455" stroke="white" stroke-width="1.36177" stroke-linecap="round" stroke-linejoin="round"/>
<path vector-effect="non-scaling-stroke" d="M449.438 88.5423V66.9992L489.174 27.2764" fill="#020202"/>
<path vector-effect="non-scaling-stroke" d="M449.438 88.5423V66.9992L489.174 27.2764" stroke="white" stroke-width="1.36177" stroke-linecap="round" stroke-linejoin="round"/>
<path vector-effect="non-scaling-stroke" d="M481.303 120.408H517.254L532.383 105.278" fill="#020202"/>
<path vector-effect="non-scaling-stroke" d="M481.303 120.408H517.254L532.383 105.278" stroke="white" stroke-width="1.36177" stroke-linecap="round" stroke-linejoin="round"/>
<path vector-effect="non-scaling-stroke" d="M521.598 155.105H481.303" stroke="white" stroke-width="1.36177" stroke-linecap="round" stroke-linejoin="round"/>
<path vector-effect="non-scaling-stroke" d="M481.303 189.83H519.392L569.069 239.426" fill="#020202"/>
<path vector-effect="non-scaling-stroke" d="M481.303 189.83H519.392L569.069 239.426" stroke="white" stroke-width="1.36177" stroke-linecap="round" stroke-linejoin="round"/>
<path vector-effect="non-scaling-stroke" d="M423.006 36.6458C423.006 41.2213 419.302 44.9253 414.726 44.9253C410.151 44.9253 406.433 41.2213 406.433 36.6458C406.433 32.0702 410.137 28.3662 414.713 28.3662C419.288 28.3662 422.992 32.0702 422.992 36.6458H423.006Z" fill="#020202" stroke="white" stroke-width="1.36177" stroke-linecap="round" stroke-linejoin="round"/>
<path vector-effect="non-scaling-stroke" d="M388.308 57.0042C388.308 61.5797 384.591 65.2837 380.015 65.2837C375.44 65.2837 371.736 61.5797 371.736 57.0042C371.736 52.4286 375.44 48.7246 380.015 48.7246C384.591 48.7246 388.295 52.4286 388.295 57.0042H388.308Z" fill="#020202" stroke="white" stroke-width="1.36177" stroke-linecap="round" stroke-linejoin="round"/>
<path vector-effect="non-scaling-stroke" d="M538.171 155.119C538.171 159.695 534.467 163.399 529.891 163.399C525.316 163.399 521.612 159.681 521.612 155.106C521.612 150.53 525.316 146.826 529.891 146.826C534.467 146.826 538.171 150.53 538.171 155.106V155.119Z" fill="#020202" stroke="white" stroke-width="1.36177" stroke-linecap="round" stroke-linejoin="round"/>
<path vector-effect="non-scaling-stroke" d="M484.436 46.2461C492.295 46.2461 498.666 39.8749 498.666 32.0156C498.666 24.1564 492.295 17.7852 484.436 17.7852C476.576 17.7852 470.205 24.1564 470.205 32.0156C470.205 39.8749 476.576 46.2461 484.436 46.2461Z" fill="#020202"/>
<path vector-effect="non-scaling-stroke" d="M484.435 18.4653C491.898 18.4653 497.985 24.5388 497.985 32.0149C497.985 39.491 491.911 45.5645 484.435 45.5645C476.959 45.5645 470.886 39.491 470.886 32.0149C470.886 24.5388 476.959 18.4653 484.435 18.4653ZM484.435 17.1035C476.197 17.1035 469.524 23.7762 469.524 32.0149C469.524 40.2536 476.197 46.9263 484.435 46.9263C492.674 46.9263 499.347 40.2536 499.347 32.0149C499.347 23.7762 492.674 17.1035 484.435 17.1035Z" fill="white"/>
<path vector-effect="non-scaling-stroke" d="M307.569 29.1289C299.725 29.1289 293.338 22.7422 293.338 14.8985C293.338 7.05466 299.725 0.667969 307.569 0.667969C315.413 0.667969 321.799 7.05466 321.799 14.8985C321.799 22.7422 315.413 29.1289 307.569 29.1289Z" fill="#020202"/>
<path vector-effect="non-scaling-stroke" d="M307.569 1.36177C315.031 1.36177 321.118 7.43526 321.118 14.9114C321.118 22.3875 315.045 28.461 307.569 28.461C300.093 28.461 294.019 22.3875 294.019 14.9114C294.019 7.43526 300.093 1.36177 307.569 1.36177ZM307.569 0C299.33 0 292.657 6.67267 292.657 14.9114C292.657 23.1501 299.33 29.8227 307.569 29.8227C315.808 29.8227 322.48 23.1501 322.48 14.9114C322.48 6.67267 315.808 0 307.569 0Z" fill="white"/>
<path vector-effect="non-scaling-stroke" d="M542.909 108.97C550.769 108.97 557.14 102.599 557.14 94.7393C557.14 86.88 550.769 80.5088 542.909 80.5088C535.05 80.5088 528.679 86.88 528.679 94.7393C528.679 102.599 535.05 108.97 542.909 108.97Z" fill="#020202"/>
<path vector-effect="non-scaling-stroke" d="M542.91 81.2026C550.372 81.2026 556.459 87.2761 556.459 94.7522C556.459 102.228 550.386 108.302 542.91 108.302C535.434 108.302 529.36 102.228 529.36 94.7522C529.36 87.2761 535.434 81.2026 542.91 81.2026ZM542.91 79.8408C534.671 79.8408 527.998 86.5135 527.998 94.7522C527.998 102.991 534.671 109.664 542.91 109.664C551.148 109.664 557.821 102.991 557.821 94.7522C557.821 86.5135 551.148 79.8408 542.91 79.8408Z" fill="white"/>
<path vector-effect="non-scaling-stroke" d="M469.156 100.689H325.612V244.234H469.156V100.689Z" fill="#020202" stroke="white" stroke-width="1.36177" stroke-linecap="round" stroke-linejoin="round"/>
<path vector-effect="non-scaling-stroke" d="M262.372 239.658L277.501 224.528H313.452" fill="#020202"/>
<path vector-effect="non-scaling-stroke" d="M262.372 239.658L277.501 224.528H313.452" stroke="white" stroke-width="1.36177" stroke-linecap="round" stroke-linejoin="round"/>
<path vector-effect="non-scaling-stroke" d="M313.452 189.817H273.143" stroke="white" stroke-width="1.36177" stroke-linecap="round" stroke-linejoin="round"/>
<path vector-effect="non-scaling-stroke" d="M218.155 101.465L275.363 155.105H313.452" fill="#020202"/>
<path vector-effect="non-scaling-stroke" d="M218.155 101.465L275.363 155.105H313.452" stroke="white" stroke-width="1.36177" stroke-linecap="round" stroke-linejoin="round"/>
<path vector-effect="non-scaling-stroke" d="M313.452 120.407H294.06" stroke="white" stroke-width="1.36177" stroke-linecap="round" stroke-linejoin="round"/>
<path vector-effect="non-scaling-stroke" d="M277.501 120.407C277.501 115.832 281.205 112.128 285.781 112.128C290.356 112.128 294.06 115.832 294.06 120.407C294.06 124.983 290.356 128.701 285.781 128.701C281.205 128.701 277.501 124.997 277.501 120.421V120.407Z" fill="#020202" stroke="white" stroke-width="1.36177" stroke-linecap="round" stroke-linejoin="round"/>
<path vector-effect="non-scaling-stroke" d="M256.584 189.817C256.584 185.241 260.288 181.537 264.864 181.537C269.439 181.537 273.143 185.255 273.143 189.83C273.143 194.406 269.439 198.11 264.864 198.11C260.288 198.11 256.584 194.406 256.584 189.83V189.817Z" fill="#020202" stroke="white" stroke-width="1.36177" stroke-linecap="round" stroke-linejoin="round"/>
<path vector-effect="non-scaling-stroke" d="M251.832 264.415C243.988 264.415 237.601 258.028 237.601 250.185C237.601 242.341 243.988 235.954 251.832 235.954C259.676 235.954 266.062 242.341 266.062 250.185C266.062 258.028 259.676 264.415 251.832 264.415Z" fill="#020202"/>
<path vector-effect="non-scaling-stroke" d="M251.832 236.634C259.294 236.634 265.381 242.708 265.381 250.184C265.381 257.66 259.308 263.733 251.832 263.733C244.356 263.733 238.282 257.66 238.282 250.184C238.282 242.708 244.356 236.634 251.832 236.634ZM251.832 235.272C243.593 235.272 236.92 241.945 236.92 250.184C236.92 258.423 243.593 265.095 251.832 265.095C260.07 265.095 266.743 258.423 266.743 250.184C266.743 241.945 260.07 235.272 251.832 235.272Z" fill="white"/>
<path vector-effect="non-scaling-stroke" d="M449.438 256.394V292.276L476.646 319.484" stroke="white" stroke-width="1.36177" stroke-linecap="round" stroke-linejoin="round"/>
<path vector-effect="non-scaling-stroke" d="M414.74 287.932V256.394" stroke="white" stroke-width="1.36177" stroke-linecap="round" stroke-linejoin="round"/>
<path vector-effect="non-scaling-stroke" d="M380.015 308.291V256.394" stroke="white" stroke-width="1.36177" stroke-linecap="round" stroke-linejoin="round"/>
<path vector-effect="non-scaling-stroke" d="M371.736 316.571C371.736 311.995 375.44 308.291 380.015 308.291C384.591 308.291 388.308 311.995 388.308 316.571C388.308 321.146 384.604 324.85 380.029 324.85C375.453 324.85 371.749 321.146 371.749 316.571H371.736Z" fill="#020202" stroke="white" stroke-width="1.36177" stroke-linecap="round" stroke-linejoin="round"/>
<path vector-effect="non-scaling-stroke" d="M406.447 296.211C406.447 291.636 410.165 287.932 414.74 287.932C419.316 287.932 423.02 291.636 423.02 296.211C423.02 300.787 419.316 304.491 414.74 304.491C410.165 304.491 406.461 300.787 406.461 296.211H406.447Z" fill="#020202" stroke="white" stroke-width="1.36177" stroke-linecap="round" stroke-linejoin="round"/>
<path vector-effect="non-scaling-stroke" d="M487.186 344.257C495.046 344.257 501.417 337.886 501.417 330.026C501.417 322.167 495.046 315.796 487.186 315.796C479.327 315.796 472.956 322.167 472.956 330.026C472.956 337.886 479.327 344.257 487.186 344.257Z" fill="#020202"/>
<path vector-effect="non-scaling-stroke" d="M487.187 316.476C494.649 316.476 500.736 322.55 500.736 330.026C500.736 337.502 494.663 343.575 487.187 343.575C479.71 343.575 473.637 337.502 473.637 330.026C473.637 322.55 479.71 316.476 487.187 316.476ZM487.187 315.114C478.948 315.114 472.275 321.787 472.275 330.026C472.275 338.264 478.948 344.937 487.187 344.937C495.425 344.937 502.098 338.264 502.098 330.026C502.098 321.787 495.425 315.114 487.187 315.114Z" fill="white"/>
<path vector-effect="non-scaling-stroke" d="M403.029 115.764H391.74C363.537 115.764 340.673 138.627 340.673 166.83V178.119C340.673 206.322 363.537 229.185 391.74 229.185H403.029C431.232 229.185 454.095 206.322 454.095 178.119V166.83C454.095 138.627 431.232 115.764 403.029 115.764Z" fill="#020202" stroke="white" stroke-width="1.36177" stroke-linecap="round" stroke-linejoin="round"/>
<path vector-effect="non-scaling-stroke" d="M371.355 179.276C371.355 179.276 359.766 179.575 359.766 169.553C359.766 159.53 371.355 160.116 371.355 160.116C371.355 160.116 367.882 153.13 374.405 147.124C382.698 139.485 391.481 146.716 391.481 146.716C391.481 146.716 398.331 136.938 408.081 141.065C418.227 145.354 417.233 154.56 417.233 154.56C417.233 154.56 432.062 152.544 432.062 165.713C432.062 178.881 415.19 179.276 415.19 179.276H371.355Z" stroke="white" stroke-width="1.36177" stroke-miterlimit="10"/>
<path vector-effect="non-scaling-stroke" d="M395.894 202.521V179.275" stroke="white" stroke-width="1.36177" stroke-miterlimit="10"/>
<path vector-effect="non-scaling-stroke" d="M395.894 207.437C394.532 207.437 393.429 206.334 393.429 204.973C393.429 203.611 394.532 202.521 395.894 202.521C397.255 202.521 398.345 203.625 398.345 204.973C398.345 206.321 397.242 207.437 395.894 207.437Z" stroke="white" stroke-width="1.36177" stroke-miterlimit="10"/>
<path vector-effect="non-scaling-stroke" d="M387.846 179.275V198.694H387.832L384.005 202.521" stroke="white" stroke-width="1.36177" stroke-miterlimit="10"/>
<path vector-effect="non-scaling-stroke" d="M384.005 212.353C385.367 212.353 386.47 211.249 386.47 209.901C386.47 208.553 385.367 207.437 384.005 207.437C382.643 207.437 381.554 208.54 381.554 209.901C381.554 211.263 382.657 212.353 384.005 212.353Z" stroke="white" stroke-width="1.36177" stroke-miterlimit="10"/>
<path vector-effect="non-scaling-stroke" d="M373.778 199.375C375.14 199.375 376.243 198.272 376.243 196.924C376.243 195.576 375.14 194.459 373.778 194.459C372.417 194.459 371.313 195.562 371.313 196.924C371.313 198.286 372.417 199.375 373.778 199.375Z" stroke="white" stroke-width="1.36177" stroke-miterlimit="10"/>
<path vector-effect="non-scaling-stroke" d="M379.797 179.275V190.891L375.521 195.194" stroke="white" stroke-width="1.36177" stroke-miterlimit="10"/>
<path vector-effect="non-scaling-stroke" d="M384.005 207.437V202.521" stroke="white" stroke-width="1.36177" stroke-miterlimit="10"/>
<path vector-effect="non-scaling-stroke" d="M407.795 202.521L403.969 198.694H403.955V179.275" stroke="white" stroke-width="1.36177" stroke-miterlimit="10"/>
<path vector-effect="non-scaling-stroke" d="M407.795 212.353C406.434 212.353 405.331 211.249 405.331 209.901C405.331 208.553 406.434 207.437 407.795 207.437C409.157 207.437 410.247 208.54 410.247 209.901C410.247 211.263 409.144 212.353 407.795 212.353Z" stroke="white" stroke-width="1.36177" stroke-miterlimit="10"/>
<path vector-effect="non-scaling-stroke" d="M418.022 199.375C416.66 199.375 415.557 198.272 415.557 196.924C415.557 195.576 416.66 194.459 418.022 194.459C419.384 194.459 420.487 195.562 420.487 196.924C420.487 198.286 419.384 199.375 418.022 199.375Z" stroke="white" stroke-width="1.36177" stroke-miterlimit="10"/>
<path vector-effect="non-scaling-stroke" d="M416.279 195.194L412.003 190.891V179.275" stroke="white" stroke-width="1.36177" stroke-miterlimit="10"/>
<path vector-effect="non-scaling-stroke" d="M407.795 202.521V207.437" stroke="white" stroke-width="1.36177" stroke-miterlimit="10"/>
<path vector-effect="non-scaling-stroke" d="M2.88672 262.563L24.6614 276.861L70.4168 266.635L50.8074 252.35L2.88672 262.563Z" fill="#202020" stroke="white" stroke-width="1.36177" stroke-miterlimit="10"/>
<path vector-effect="non-scaling-stroke" d="M66.0593 221.724L46.4634 207.439L0.708008 219.682L2.88684 262.564L50.8211 252.351" fill="#020202"/>
<path vector-effect="non-scaling-stroke" d="M66.0593 221.724L46.4634 207.439L0.708008 219.682L2.88684 262.564L50.8211 252.351" stroke="white" stroke-width="1.36177" stroke-miterlimit="10"/>
<path vector-effect="non-scaling-stroke" d="M70.4169 266.649L66.0593 221.724L46.4634 207.439L0.708008 219.682L2.88684 262.564L24.6751 276.862L70.4169 266.649Z" stroke="white" stroke-width="1.36177" stroke-miterlimit="10"/>
<path vector-effect="non-scaling-stroke" d="M70.4169 266.649L50.821 252.351L46.4634 207.439" stroke="white" stroke-width="1.36177" stroke-miterlimit="10"/>
<path vector-effect="non-scaling-stroke" d="M78.5195 295.069L95.9365 300.802L99.2184 279.082L82.278 274.37L78.5195 295.069Z" fill="#202020" stroke="white" stroke-width="1.36177" stroke-miterlimit="10"/>
<path vector-effect="non-scaling-stroke" d="M113.163 278.332L96.7127 273.838L83.0678 274.573L79.3093 295.259L96.7127 300.992L109.404 299.017L113.163 278.332Z" stroke="white" stroke-width="1.36177" stroke-miterlimit="10"/>
<path vector-effect="non-scaling-stroke" d="M113.163 278.332L99.9947 279.271L83.0679 274.573" stroke="white" stroke-width="1.36177" stroke-miterlimit="10"/>
<path vector-effect="non-scaling-stroke" d="M99.9945 279.271L96.7126 300.992" stroke="white" stroke-width="1.36177" stroke-miterlimit="10"/>
<path vector-effect="non-scaling-stroke" d="M174.77 250.089L172.005 264.592L187.271 286.326L190.498 272.967L174.77 250.089Z" fill="#202020" stroke="white" stroke-width="1.36177" stroke-miterlimit="10"/>
<path vector-effect="non-scaling-stroke" d="M209.835 274.314L213.076 260.942L196.735 239.657L174.77 250.088L190.498 272.966" fill="#020202"/>
<path vector-effect="non-scaling-stroke" d="M209.835 274.314L213.076 260.942L196.735 239.657L174.77 250.088L190.498 272.966" stroke="white" stroke-width="1.36177" stroke-miterlimit="10"/>
<path vector-effect="non-scaling-stroke" d="M187.271 286.325L209.835 274.314L213.076 260.942L196.735 239.657L174.77 250.088L172.005 264.591L187.271 286.325Z" stroke="white" stroke-width="1.36177" stroke-miterlimit="10"/>
<path vector-effect="non-scaling-stroke" d="M187.271 286.325L190.498 272.966L213.076 260.941" stroke="white" stroke-width="1.36177" stroke-miterlimit="10"/>
<path vector-effect="non-scaling-stroke" d="M174.143 296.729L174.92 307.092L187.012 304.096L185.8 294.21L174.143 296.729Z" fill="#202020" stroke="white" stroke-width="1.36177" stroke-miterlimit="10"/>
<path vector-effect="non-scaling-stroke" d="M190.43 311.232L189.205 301.659L185.868 294.673L174.225 297.179L174.988 307.542L178.773 313.751L190.43 311.232Z" stroke="white" stroke-width="1.36177" stroke-miterlimit="10"/>
<path vector-effect="non-scaling-stroke" d="M190.43 311.232L187.08 304.546L185.868 294.673" stroke="white" stroke-width="1.36177" stroke-miterlimit="10"/>
<path vector-effect="non-scaling-stroke" d="M187.081 304.546L174.988 307.542" stroke="white" stroke-width="1.36177" stroke-miterlimit="10"/>
</g>
<defs>
<clipPath id="clip0_20_13877">
<rect width="802" height="528.748" fill="white"/>
</clipPath>
</defs>
</svg>
