<svg width="802" height="535" viewBox="0 0 802 535" fill="none" xmlns="http://www.w3.org/2000/svg">
<g clip-path="url(#clip0_20_10418)">
<path vector-effect="non-scaling-stroke" d="M800.093 245.874C800.093 111.065 690.811 1.76904 556.002 1.76904C440.445 1.76904 343.657 82.0685 318.351 189.899C286.356 157.365 241.838 137.186 192.595 137.186C95.1709 137.186 16.1982 216.159 16.1982 313.582C16.1982 411.006 95.1709 489.979 192.595 489.979H556.997C691.35 489.426 800.093 380.351 800.093 245.874Z" fill="#020202" stroke="white" stroke-width="1.38378"/>
<path vector-effect="non-scaling-stroke" d="M276.75 117.464C276.75 51.4551 322.442 0.690918 388.451 0.690918C450.147 0.690918 500.151 50.6949 500.151 112.391C500.151 168.242 479.848 183.472 479.848 224.092C479.848 234.25 492.121 449.359 507.352 489.978H431.89L352.931 264.712H300.812C295.754 264.712 291.469 260.994 290.764 255.991L281.85 193.631H256.461V188.558L276.764 117.478L276.75 117.464Z" fill="#202020" stroke="white" stroke-width="1.38378" stroke-linecap="round" stroke-linejoin="round"/>
<path vector-effect="non-scaling-stroke" d="M371.769 382.024H284.269V506.688H371.769V382.024Z" fill="#020202" stroke="white" stroke-width="1.38378" stroke-miterlimit="10"/>
<path vector-effect="non-scaling-stroke" d="M469.4 257.068H381.9V506.688H469.4V257.068Z" fill="#020202" stroke="white" stroke-width="1.38378" stroke-miterlimit="10"/>
<path vector-effect="non-scaling-stroke" d="M523.274 42.3057L444.771 136.011H479.517V506.688H567.017V136.011H601.777L523.274 42.3057Z" fill="#020202" stroke="white" stroke-width="1.38378" stroke-miterlimit="10"/>
<path vector-effect="non-scaling-stroke" d="M422.173 249.591L422.615 252.894C422.615 252.894 416.521 252.798 416.521 256.75H429.678L428.779 249.591H422.187H422.173Z" fill="#020202" stroke="white" stroke-width="1.38378" stroke-miterlimit="10"/>
<path vector-effect="non-scaling-stroke" d="M394.947 249.591L394.905 252.894C394.905 252.894 388.119 252.798 388.119 256.75H401.359V249.591H394.96H394.947Z" fill="#020202" stroke="white" stroke-width="1.38378" stroke-miterlimit="10"/>
<path vector-effect="non-scaling-stroke" d="M410.467 141.387C409.361 139.562 408.297 137.683 406.638 136.301C406.127 135.872 405.588 135.402 404.98 135.001V136.743C405.394 137.351 405.574 138.014 405.712 138.774C405.519 138.553 405.298 138.332 405.035 138.153C404.717 137.931 404.137 137.531 403.75 137.849C403.335 138.166 403.612 138.83 403.75 139.203C403.902 139.631 404.081 140.018 404.151 140.474C404.206 140.82 404.233 141.152 404.358 141.483C404.62 142.202 405.215 142.865 405.712 143.432C406.265 144.068 406.942 144.441 407.606 144.952C408.393 145.56 408.739 146.486 409.126 147.385C409.416 148.048 409.693 148.711 409.983 149.389L412.692 145.201C411.973 143.93 411.24 142.672 410.48 141.414L410.467 141.387Z" fill="#020202" stroke="white" stroke-width="1.38378" stroke-miterlimit="10"/>
<path vector-effect="non-scaling-stroke" d="M430.535 59.4022C421.98 16.433 359.026 15.7005 350.125 58.6006C349.531 61.4339 349.199 64.3501 349.144 67.3354C348.937 78.9311 352.903 89.6285 359.648 97.9763C364.845 104.417 368.272 112.046 369.709 120.104C370.083 122.232 371.52 123.96 373.441 124.706L405.989 125.01C407.91 124.319 409.417 122.674 409.832 120.574C410.26 118.376 410.896 116.026 411.684 113.76C411.684 113.718 411.711 113.677 411.725 113.635C413.66 108.162 416.549 103.035 420.335 98.5292C427.149 90.4025 431.295 79.9539 431.406 68.524C431.434 65.4143 431.13 62.3599 430.549 59.3884L430.535 59.4022Z" fill="#86bc25" stroke="white" stroke-width="1.38378" stroke-miterlimit="10"/>
<path vector-effect="non-scaling-stroke" d="M373.648 124.719L373.552 135.914L373.496 141.069V141.248C373.469 144.469 375.998 147.108 379.204 147.246H379.121V147.716C379.066 153.535 383.737 158.303 389.57 158.358C395.402 158.413 400.156 153.728 400.212 147.91V147.426H399.866C403.059 147.343 405.657 144.759 405.684 141.539V141.359L405.74 136.204L405.837 125.009L373.648 124.705V124.719Z" fill="#020202" stroke="white" stroke-width="1.38378" stroke-miterlimit="10"/>
<path vector-effect="non-scaling-stroke" d="M372.902 139.342C372.943 139.065 373.178 138.305 373.634 138.582C374.09 138.844 373.966 140.047 374.021 140.489C374.159 141.622 374.823 142.424 375.624 143.17C375.541 142.88 375.472 142.576 375.459 142.272C375.445 141.885 375.417 141.18 375.887 141.014C376.384 140.834 376.799 141.415 377.034 141.746C377.31 142.106 377.545 142.465 377.891 142.769C378.154 143.004 378.43 143.198 378.637 143.474C379.093 144.082 379.342 144.939 379.549 145.658C379.784 146.473 379.743 147.233 379.812 148.076C379.895 149.071 380.503 149.859 381.042 150.661C381.457 151.255 381.857 151.849 382.272 152.444L377.283 152.485C376.592 151.2 375.928 149.901 375.279 148.588C374.325 146.68 373.316 144.759 373.04 142.631C372.902 141.608 372.722 140.378 372.888 139.355L372.902 139.342Z" fill="#020202" stroke="white" stroke-width="1.38378" stroke-miterlimit="10"/>
<path vector-effect="non-scaling-stroke" d="M408.034 128.977C408.2 128.769 409.043 128.051 409.278 127.539C409.9 126.157 409.665 124.872 410.522 123.752L420.487 124.665C420.487 124.665 420.57 124.761 420.611 124.803C421.468 125.95 421.938 127.387 422.228 128.769C422.574 130.428 422.643 132.169 422.366 133.841C422.283 134.298 421.91 136.011 421.247 136.454C421.233 136.993 421.205 137.545 421.178 138.084C421.15 138.692 421.205 139.397 421.095 139.992L411.006 139.079C411.047 138.375 411.102 137.67 411.199 136.965C410.453 136.357 409.762 135.652 409.444 134.74C409.25 134.159 409.264 133.565 409.278 132.957C409.292 131.92 409.168 131.146 408.366 130.428C408.062 130.165 407.799 129.958 407.841 129.516C407.855 129.308 407.924 129.129 408.048 128.977H408.034Z" fill="#020202" stroke="white" stroke-width="1.38378" stroke-miterlimit="10"/>
<path vector-effect="non-scaling-stroke" d="M421.482 249.813C421.565 245.943 421.593 242.073 421.164 238.217C420.667 233.794 419.188 229.579 418.953 225.115C418.828 222.737 414.033 202.932 412.72 198.634C411.31 203.747 409.969 208.875 408.214 213.864C407.274 216.532 407.081 219.158 406.887 221.991C406.707 224.562 406.459 227.119 406.113 229.662C405.394 235.052 401.69 249.785 401.635 249.965L394.31 250.02C394.462 245.003 396.217 229.938 395.982 227.257C395.747 224.589 395.167 198.274 397.71 187.978L426.223 187.771C426.886 192.401 427.605 197.058 427.923 201.716C428.31 207.327 427.701 212.925 427.743 218.536C427.784 224.147 429.111 229.523 429.484 235.093C429.816 239.972 429.636 244.878 429.401 249.757L421.482 249.813Z" fill="#020202" stroke="white" stroke-width="1.38378" stroke-miterlimit="10"/>
<path vector-effect="non-scaling-stroke" d="M430.037 145.23C427.937 143.129 425.007 142.646 422.629 141.07C422.491 140.711 421.938 139.398 421.745 139.218C421.344 138.845 410.937 138.831 410.743 139.038C410.149 139.674 409.61 140.448 409.251 141.305C408.504 141.692 407.703 141.982 406.832 142.12C405.795 142.272 404.787 142.59 403.791 142.95C402.423 143.447 401.055 144.041 399.728 144.774V159.521C400.461 169.873 396.48 179.934 395.375 190.162C397.766 190.217 423.417 192.166 427.729 193.271C428.711 188.724 428.904 184.053 428.918 179.409C428.918 175.277 428.807 171.144 429.015 167.026C429.111 165.022 429.305 163.031 429.623 161.055C429.968 158.871 430.563 156.798 431.157 154.684C432.069 151.422 432.484 147.718 430.024 145.271L430.037 145.23Z" fill="#020202" stroke="white" stroke-width="1.38378" stroke-miterlimit="10"/>
<path vector-effect="non-scaling-stroke" d="M400.487 157.461L401.8 143.862C401.289 144.041 400.778 144.221 400.28 144.442C398.262 145.327 396.424 146.667 394.627 148.008C392.775 149.404 390.924 150.8 388.906 151.878C387.358 152.707 385.755 153.357 384.11 153.854C383.53 152.541 380.738 149.279 380.738 149.279C378.872 151.698 376.205 151.864 376.205 151.864C376.26 153.398 376.315 154.932 376.384 156.48C376.495 158.871 376.992 161.082 380.268 162.464C380.517 162.575 380.779 162.644 381.042 162.685C383.115 163.017 385.299 162.34 387.316 161.635C389.403 160.903 391.435 159.99 393.536 159.286C394.6 158.926 395.664 158.636 396.742 158.429C397.364 158.318 399.838 157.544 400.46 157.461H400.487Z" fill="#020202" stroke="white" stroke-width="1.38378" stroke-miterlimit="10"/>
<path vector-effect="non-scaling-stroke" d="M424.605 125.065C424.702 122.84 423.638 120.725 421.772 119.509C420.832 118.901 419.741 118.555 418.635 118.459C417.267 118.348 415.912 118.721 414.53 118.652C412.333 118.542 409.859 118.058 408.601 120.366C408.076 121.319 407.772 122.605 407.772 123.697C407.772 124.305 408.104 124.844 408.518 125.327C409.113 126.516 410.287 127.677 410.743 128.81C411.13 129.805 411.711 130.787 411.932 131.851C412.125 132.763 411.973 133.717 412.153 134.643C412.457 136.315 414.116 136.992 415.456 137.794C416.203 138.236 416.659 138.208 417.46 137.932C418.345 137.628 419.312 137.628 420.183 137.282C423.044 136.135 423.887 132.487 423.928 129.584C423.956 129.46 423.984 129.335 423.997 129.211C424.232 127.857 424.536 126.461 424.605 125.079V125.065Z" fill="#020202" stroke="white" stroke-width="1.38378" stroke-miterlimit="10"/>
<path vector-effect="non-scaling-stroke" d="M619.73 469.219L615.183 506.688H677.64C677.64 506.688 680.238 497.303 662.644 490.559C648.035 487.56 649.169 477.968 647.413 470.588C645.658 463.193 619.73 469.219 619.73 469.219Z" fill="#202020" stroke="white" stroke-width="1.38378" stroke-miterlimit="10"/>
<path vector-effect="non-scaling-stroke" d="M654.158 486.8H642.797" stroke="white" stroke-width="1.38378" stroke-miterlimit="10"/>
<path vector-effect="non-scaling-stroke" d="M650.467 482.46H640.71" stroke="white" stroke-width="1.38378" stroke-miterlimit="10"/>
<path vector-effect="non-scaling-stroke" d="M568.772 470.933L560.991 506.687H501.782C501.782 506.687 499.184 497.303 516.778 490.558C531.386 487.559 535.325 479.405 537.081 472.011C538.836 464.617 568.772 470.946 568.772 470.946V470.933Z" fill="#202020" stroke="white" stroke-width="1.38378" stroke-miterlimit="10"/>
<path vector-effect="non-scaling-stroke" d="M540.882 485.21H529.521" stroke="white" stroke-width="1.38378" stroke-miterlimit="10"/>
<path vector-effect="non-scaling-stroke" d="M543.715 479.806H533.943" stroke="white" stroke-width="1.38378" stroke-miterlimit="10"/>
<path vector-effect="non-scaling-stroke" d="M562.871 497.994H505.017" stroke="white" stroke-width="1.38378" stroke-miterlimit="10"/>
<path vector-effect="non-scaling-stroke" d="M632.957 204.176L631.589 191.834C631.589 191.834 644.594 197.764 649.072 192.263C652.21 188.407 649.943 183.307 647.676 177.005L648.243 177.074C649.722 177.253 650.689 175.567 649.805 174.379C648.381 172.444 646.64 170.55 645.341 169.21C645.285 168.906 645.216 168.588 645.161 168.284C643.281 157.835 632.556 154.753 627.18 154.338C621.804 153.924 614.175 152.984 609.406 159.493C604.541 166.128 613.055 175.125 614.147 190.397C614.368 193.534 613.912 198.22 611.065 204.867L632.971 204.163L632.957 204.176Z" fill="#202020" stroke="white" stroke-width="1.38378" stroke-miterlimit="10"/>
<path vector-effect="non-scaling-stroke" d="M667.509 289.659L660.875 233.477L662.202 244.741L674.475 250.725L687.881 223.028C687.881 223.028 666.39 208.862 658.996 205.71C652.569 202.974 634.159 199.242 634.159 199.242H607.305C607.305 199.242 587.583 200.375 580.41 204.798C562.443 215.869 551.179 232.868 551.179 232.868L581.308 247.643L592.531 232.882L585.303 242.391L588.398 260.787L591.328 278.215L593.25 289.659" fill="#202020"/>
<path vector-effect="non-scaling-stroke" d="M667.509 289.659L660.875 233.477L662.202 244.741L674.475 250.725L687.881 223.028C687.881 223.028 666.39 208.862 658.996 205.71C652.569 202.974 634.159 199.242 634.159 199.242H607.305C607.305 199.242 587.583 200.375 580.41 204.798C562.443 215.869 551.179 232.868 551.179 232.868L581.308 247.643L592.531 232.882L585.303 242.391L588.398 260.787L591.328 278.215L593.25 289.659" stroke="white" stroke-width="1.38378" stroke-miterlimit="10"/>
<path vector-effect="non-scaling-stroke" d="M666.68 289.659L663.626 479.461L605.288 479.102L622.039 337.327C594.798 385.106 580.161 423.003 571.454 479.102L516.765 479.821C532.576 411.614 557.937 348.024 594.079 289.659H666.68Z" fill="#020202" stroke="white" stroke-width="1.38378"/>
<path vector-effect="non-scaling-stroke" d="M774.11 183.845C774.11 183.845 774.097 183.845 774.083 183.859C769.439 186.72 753.033 186.679 747.947 188.641C744.838 189.844 741.507 193.727 740.194 196.796C728.239 221.48 716.823 255.659 698.759 255.659C697.28 255.659 695.718 255.493 694.142 255.12C689.07 253.945 682.657 250.918 676.175 247.256L686.417 226.096C691.06 228.819 695.234 230.947 698.178 231.914C704.232 227.837 726.483 197.998 731.68 187.287C734.223 182.339 734.251 179.257 734.513 177.239C734.79 175.221 734.348 173.037 732.952 171.545C732.316 170.881 731.514 170.384 730.878 169.72C730.243 169.057 729.731 168.145 729.953 167.246C730.118 166.528 730.713 165.961 731.404 165.699C732.095 165.45 732.855 165.45 733.574 165.588C735.882 166.044 737.817 167.703 739.088 169.665C740.373 171.642 741.106 173.908 741.825 176.119C745.639 174.378 756.447 172.153 760.566 171.407C761.823 171.185 763.095 171.006 764.297 171.379C765.5 171.752 766.578 172.816 766.55 174.088L766.785 174.281H767.048C767.96 174.295 768.9 174.364 769.674 174.82C770.434 175.276 770.876 176.493 770.614 177.336H770.6C771.153 177.432 771.678 177.585 772.148 177.861C772.963 178.358 773.544 179.381 773.226 180.28L759.308 181.924C764.049 181.344 767.504 181.04 772.231 180.459C772.479 180.432 772.742 180.39 772.991 180.39C774.912 180.28 775.727 182.809 774.097 183.832L774.11 183.845Z" fill="#202020" stroke="white" stroke-width="1.38378" stroke-miterlimit="10"/>
<path vector-effect="non-scaling-stroke" d="M766.979 174.295H766.786L766.55 174.102L766.979 174.295Z" fill="#202020" stroke="white" stroke-width="1.38378" stroke-miterlimit="10"/>
<path vector-effect="non-scaling-stroke" d="M772.576 181.136C773.461 181.136 773.461 179.754 772.576 179.754C771.692 179.754 771.692 181.136 772.576 181.136Z" fill="white"/>
<path vector-effect="non-scaling-stroke" d="M770.253 177.612C764.794 177.612 761.297 177.806 755.977 179.036Z" fill="#202020"/>
<path vector-effect="non-scaling-stroke" d="M770.253 176.92C765.361 176.92 760.579 177.28 755.783 178.372C754.912 178.565 755.286 179.906 756.156 179.698C760.828 178.634 765.471 178.302 770.253 178.302C771.138 178.302 771.138 176.92 770.253 176.92Z" fill="white"/>
<path vector-effect="non-scaling-stroke" d="M766.605 174.543C762.832 174.834 759.073 175.359 755.369 176.119Z" fill="#202020"/>
<path vector-effect="non-scaling-stroke" d="M766.605 173.853C762.763 174.157 758.948 174.682 755.175 175.456C754.305 175.636 754.678 176.963 755.548 176.783C759.197 176.037 762.887 175.525 766.605 175.235C767.489 175.166 767.489 173.784 766.605 173.853Z" fill="white"/>
<path vector-effect="non-scaling-stroke" d="M697.626 231.805C697.335 232.371 697.004 232.91 696.63 233.422C696.603 233.449 696.589 233.477 696.561 233.504C696.561 233.504 696.478 233.615 696.534 233.546C696.589 233.463 696.506 233.587 696.492 233.601C696.465 233.629 696.451 233.657 696.423 233.684C696.326 233.809 696.216 233.933 696.105 234.057C695.898 234.292 695.663 234.527 695.442 234.748C695.179 234.997 695.165 235.481 695.442 235.73C695.718 235.978 696.147 235.992 696.423 235.73C697.391 234.804 698.22 233.698 698.814 232.496C698.98 232.178 698.911 231.735 698.565 231.556C698.247 231.39 697.791 231.459 697.626 231.805Z" fill="white"/>
<path vector-effect="non-scaling-stroke" d="M697.833 232.868C697.916 232.951 697.998 233.034 698.068 233.131C698.081 233.158 698.095 233.172 698.123 233.2C698.178 233.269 698.04 233.089 698.095 233.158C698.123 233.2 698.164 233.241 698.192 233.296C698.33 233.49 698.454 233.683 698.551 233.905C698.579 233.96 698.607 234.001 698.62 234.057C698.62 234.084 698.648 234.112 698.648 234.126C698.689 234.209 698.593 233.987 698.62 234.07C698.662 234.181 698.703 234.292 698.745 234.402C698.814 234.623 698.869 234.858 698.911 235.079C698.938 235.245 699.09 235.411 699.228 235.494C699.381 235.577 699.602 235.618 699.767 235.563C700.154 235.439 700.32 235.093 700.251 234.706C700.072 233.656 699.546 232.661 698.8 231.887C698.551 231.624 698.068 231.61 697.819 231.887C697.57 232.163 697.556 232.592 697.819 232.868H697.833Z" fill="white"/>
<path vector-effect="non-scaling-stroke" d="M570.777 257.166C570.694 257.166 570.597 257.166 570.514 257.152C570.473 257.152 570.431 257.152 570.39 257.152C570.334 257.152 570.307 257.152 570.39 257.152C570.224 257.124 570.044 257.097 569.878 257.055C569.713 257.014 569.547 256.972 569.381 256.917C569.298 256.889 569.215 256.862 569.132 256.834C569.091 256.82 569.049 256.806 569.008 256.793C568.994 256.793 568.842 256.723 568.911 256.751C568.98 256.779 568.856 256.723 568.842 256.723C568.8 256.71 568.759 256.682 568.717 256.668C568.635 256.627 568.565 256.585 568.483 256.558C568.33 256.475 568.178 256.392 568.04 256.295C567.971 256.254 567.902 256.198 567.819 256.157C567.778 256.129 567.75 256.101 567.709 256.088C567.709 256.088 567.598 256.005 567.653 256.046C567.709 256.088 567.612 256.005 567.598 256.005C567.57 255.977 567.529 255.949 567.501 255.922C567.432 255.853 567.349 255.797 567.28 255.728C567.018 255.48 566.561 255.452 566.299 255.728C566.036 256.005 566.022 256.447 566.299 256.71C567.515 257.857 569.104 258.52 570.763 258.589C571.122 258.603 571.468 258.258 571.454 257.898C571.44 257.511 571.15 257.221 570.763 257.207L570.777 257.166Z" fill="white"/>
<path vector-effect="non-scaling-stroke" d="M570.418 257.566C570.238 257.76 570.058 257.953 569.865 258.133C569.768 258.216 569.671 258.313 569.574 258.396C569.519 258.437 569.478 258.478 569.422 258.52C569.395 258.548 569.367 258.561 569.34 258.589C569.27 258.644 569.478 258.478 569.353 258.575C568.925 258.893 568.469 259.169 567.985 259.404C567.653 259.556 567.543 260.054 567.736 260.344C567.957 260.676 568.331 260.759 568.676 260.593C569.699 260.095 570.639 259.391 571.385 258.534C571.62 258.257 571.675 257.815 571.385 257.552C571.122 257.318 570.666 257.262 570.404 257.552L570.418 257.566Z" fill="white"/>
<path vector-effect="non-scaling-stroke" d="M613.082 186.306C614.478 186.665 616.289 171.67 619.067 172.195C622.287 172.803 620.85 162.479 626.586 161.622C629.322 161.207 632.1 162.064 634.823 162.548C637.546 163.031 640.406 163.363 643.06 162.548C645.714 161.732 648.326 160.848 649.058 150.482C629.529 148.81 616.731 143.033 607.167 149.404C606.283 149.998 605.37 150.689 604.997 151.685C604.348 153.384 603.021 160.806 603.961 162.368" fill="#A2A2A0"/>
<path vector-effect="non-scaling-stroke" d="M613.082 186.306C614.478 186.665 616.289 171.67 619.067 172.195C622.287 172.803 620.85 162.479 626.586 161.622C629.322 161.207 632.1 162.064 634.823 162.548C637.546 163.031 640.406 163.363 643.06 162.548C645.714 161.732 648.326 160.848 649.058 150.482C629.529 148.81 616.731 143.033 607.167 149.404C606.283 149.998 605.37 150.689 604.997 151.685C604.348 153.384 603.021 160.806 603.961 162.368" stroke="white" stroke-width="1.38378" stroke-miterlimit="10"/>
<path vector-effect="non-scaling-stroke" d="M684.053 280.634L683.818 281.422C683.238 283.301 684.288 285.292 686.168 285.872C688.047 286.453 690.037 285.402 690.618 283.523L691.613 280.289L696.644 263.952L702.656 244.409C702.946 243.47 702.822 242.502 702.407 241.701C701.979 240.899 701.246 240.249 700.306 239.959C698.427 239.379 696.437 240.429 695.856 242.309L684.053 280.648V280.634Z" fill="#202020" stroke="white" stroke-width="1.38378" stroke-miterlimit="10"/>
<path vector-effect="non-scaling-stroke" d="M674.517 245.432C682.381 246.634 688.531 245.294 695.717 242.778" stroke="white" stroke-width="1.38378"/>
<path vector-effect="non-scaling-stroke" d="M652.454 244.786L656.139 245.921L652.994 256.131L649.309 254.996C648.53 254.756 648.091 253.927 648.331 253.147L650.605 245.764C650.845 244.985 651.675 244.546 652.454 244.786Z" fill="#202020" stroke="white" stroke-width="1.38378" stroke-miterlimit="10"/>
<path vector-effect="non-scaling-stroke" d="M674.558 245.294L667.896 266.937C667.744 267.434 667.192 267.697 666.708 267.49C665.215 266.881 661.995 265.803 660.419 265.32L655.942 263.938C653.247 263.108 651.726 260.248 652.556 257.539L656.605 244.395C657.434 241.687 660.295 240.18 663.004 241.009L667.482 242.391C669.044 242.875 672.319 243.801 673.895 244.147C674.406 244.257 674.71 244.769 674.558 245.28V245.294Z" fill="#202020" stroke="white" stroke-width="1.38378" stroke-miterlimit="10"/>
<path vector-effect="non-scaling-stroke" d="M698.993 256.309C702.973 257.76 705.157 262.099 703.899 266.19C702.642 270.281 698.399 272.645 694.28 271.594" fill="#202020"/>
<path vector-effect="non-scaling-stroke" d="M698.993 256.309C702.973 257.76 705.157 262.099 703.899 266.19C702.642 270.281 698.399 272.645 694.28 271.594" stroke="white" stroke-width="1.38378" stroke-miterlimit="10"/>
<path vector-effect="non-scaling-stroke" d="M660.792 248.956L667.233 250.946" stroke="white" stroke-width="1.38378" stroke-miterlimit="10"/>
<path vector-effect="non-scaling-stroke" d="M658.567 256.185L665.008 258.161" stroke="white" stroke-width="1.38378" stroke-miterlimit="10"/>
<path vector-effect="non-scaling-stroke" d="M663.169 266.246L655.927 280.287H649.058C644.65 278.933 647.911 278.726 647.994 274.11L655.72 263.744" fill="#020202"/>
<path vector-effect="non-scaling-stroke" d="M663.169 266.246L655.927 280.287H649.058C644.65 278.933 647.911 278.726 647.994 274.11L655.72 263.744" stroke="white" stroke-width="1.38378"/>
<path vector-effect="non-scaling-stroke" d="M695.856 242.295L683.956 280.937C679.423 274.815 675.111 270.254 667.924 266.826L674.558 245.308C674.558 245.308 684.882 247.505 695.856 242.309V242.295Z" fill="#202020" stroke="white" stroke-width="1.38378" stroke-miterlimit="10"/>
<path vector-effect="non-scaling-stroke" d="M578.696 246.358L570.873 257.954C596.746 262.957 630.027 263.828 630.027 263.828C638.706 264.215 646.626 264.118 655.043 266.232C662.451 268.098 663.225 270.13 669.679 274.193C670.218 274.525 670.757 274.87 671.144 275.368C671.517 275.852 671.711 276.557 671.462 277.123C671.199 277.731 670.495 278.035 669.831 278.063C669.168 278.063 668.532 277.828 667.91 277.607C663.446 275.962 662.769 274.511 658.291 272.853L653.661 270.282C655.651 272.162 657.157 274.58 657.945 277.22C658.166 277.925 658.318 278.657 658.125 279.362C657.876 280.247 657.116 280.883 656.273 281.228C655.43 281.56 654.614 281.449 653.744 281.311L653.674 281.283C653.674 281.366 653.619 281.422 653.592 281.491C652.97 282.762 651.961 283.274 650.44 283.536L650.33 283.619C649.984 284.324 649.404 284.766 648.823 284.891C648.823 284.891 648.768 284.904 648.74 284.918C648.063 285.112 646.888 285.043 646.211 284.918C644.276 284.587 642.369 284.158 640.476 283.619C639.646 283.384 638.748 283.08 638.264 282.389C637.67 281.546 637.85 280.344 638.416 279.487C638.983 278.63 640.517 278.367 641.388 277.8C640.724 277.441 640.019 277.179 639.342 277.082C637.974 277.026 633.841 277.026 627.968 276.971C616.98 277.372 612.226 277.372 591.384 278.215C572.919 278.961 554.385 275.644 543.48 272.327C532.921 269.107 557.329 235.854 557.329 235.854" fill="#202020"/>
<path vector-effect="non-scaling-stroke" d="M578.696 246.358L570.873 257.954C596.746 262.957 630.027 263.828 630.027 263.828C638.706 264.215 646.626 264.118 655.043 266.232C662.451 268.098 663.225 270.13 669.679 274.193C670.218 274.525 670.757 274.87 671.144 275.368C671.517 275.852 671.711 276.557 671.462 277.123C671.199 277.731 670.495 278.035 669.831 278.063C669.168 278.063 668.532 277.828 667.91 277.607C663.446 275.962 662.769 274.511 658.291 272.853L653.661 270.282C655.651 272.162 657.157 274.58 657.945 277.22C658.166 277.925 658.318 278.657 658.125 279.362C657.876 280.247 657.116 280.883 656.273 281.228C655.43 281.56 654.614 281.449 653.744 281.311L653.674 281.283C653.674 281.366 653.619 281.422 653.592 281.491C652.97 282.762 651.961 283.274 650.44 283.536L650.33 283.619C649.984 284.324 649.404 284.766 648.823 284.891C648.823 284.891 648.768 284.904 648.74 284.918C648.063 285.112 646.888 285.043 646.211 284.918C644.276 284.587 642.369 284.158 640.476 283.619C639.646 283.384 638.748 283.08 638.264 282.389C637.67 281.546 637.85 280.344 638.416 279.487C638.983 278.63 640.517 278.367 641.388 277.8C640.724 277.441 640.019 277.179 639.342 277.082C637.974 277.026 633.841 277.026 627.968 276.971C616.98 277.372 612.226 277.372 591.384 278.215C572.919 278.961 554.385 275.644 543.48 272.327C532.921 269.107 557.329 235.854 557.329 235.854" stroke="white" stroke-width="1.38378" stroke-miterlimit="10"/>
<path vector-effect="non-scaling-stroke" d="M650.425 283.549C651.959 283.287 652.955 282.775 653.576 281.504C654.033 280.564 654.074 279.458 653.867 278.422C653.59 276.984 652.885 275.644 652.015 274.455C651.144 273.267 650.107 272.23 649.057 271.18C649.099 271.207 649.154 271.235 649.195 271.263" fill="#202020"/>
<path vector-effect="non-scaling-stroke" d="M650.606 284.213C651.753 284.005 652.886 283.591 653.646 282.665C654.586 281.504 654.807 279.997 654.586 278.546C654.102 275.34 651.739 272.893 649.541 270.696L648.698 271.788L648.837 271.871C649.624 272.299 650.315 271.097 649.528 270.682L649.389 270.599C648.712 270.226 647.994 271.111 648.546 271.691C650.384 273.543 652.361 275.506 653.052 278.118C653.37 279.292 653.397 280.633 652.665 281.67C652.084 282.485 651.145 282.734 650.205 282.913C649.334 283.079 649.707 284.406 650.578 284.24L650.606 284.213Z" fill="white"/>
<path vector-effect="non-scaling-stroke" d="M653.729 281.324C654.6 281.462 655.429 281.559 656.272 281.227C657.115 280.896 657.889 280.246 658.124 279.376C658.318 278.671 658.152 277.938 657.945 277.233C657.143 274.594 655.65 272.175 653.646 270.295" fill="#202020"/>
<path vector-effect="non-scaling-stroke" d="M653.536 281.988C655.056 282.223 656.494 282.181 657.724 281.158C658.954 280.136 659.064 278.615 658.636 277.15C657.82 274.359 656.231 271.816 654.13 269.812C653.481 269.204 652.513 270.171 653.149 270.793C654.821 272.382 656.148 274.331 656.95 276.487C657.323 277.496 657.889 278.837 657.129 279.79C656.328 280.799 655.07 280.827 653.895 280.661C653.025 280.523 652.652 281.863 653.522 281.988H653.536Z" fill="white"/>
<path vector-effect="non-scaling-stroke" d="M639.287 277.081C640.945 277.358 642.742 278.491 643.889 279.721C645.064 280.979 646.114 282.361 647.068 284.075C647.883 285.54 649.624 285.083 650.371 283.577C650.868 282.554 650.523 281.324 650.094 280.274C648.906 277.33 647.192 274.594 645.077 272.244" fill="#202020"/>
<path vector-effect="non-scaling-stroke" d="M639.287 277.081C640.945 277.358 642.742 278.491 643.889 279.721C645.064 280.979 646.114 282.361 647.068 284.075C647.883 285.54 649.624 285.083 650.371 283.577C650.868 282.554 650.523 281.324 650.094 280.274C648.906 277.33 647.192 274.594 645.077 272.244" stroke="white" stroke-width="1.38378" stroke-miterlimit="10"/>
<path vector-effect="non-scaling-stroke" d="M674.585 497.995H616.233" stroke="white" stroke-width="1.38378" stroke-miterlimit="10"/>
<path vector-effect="non-scaling-stroke" d="M622.839 169.873C622.839 169.873 618.735 166.376 616.109 169.292C612.778 172.982 617.325 177.281 619.37 177.543" fill="#202020"/>
<path vector-effect="non-scaling-stroke" d="M622.839 169.873C622.839 169.873 618.735 166.376 616.109 169.292C612.778 172.982 617.325 177.281 619.37 177.543" stroke="white" stroke-width="1.38378" stroke-miterlimit="10"/>
<path vector-effect="non-scaling-stroke" d="M649.058 180.363C649.058 180.363 645.547 182.339 641.913 177.239Z" fill="#202020"/>
<path vector-effect="non-scaling-stroke" d="M649.058 180.363C649.058 180.363 645.547 182.339 641.913 177.239" stroke="white" stroke-width="1.38378" stroke-miterlimit="10"/>
<path vector-effect="non-scaling-stroke" d="M757.165 57.9507C757.317 59.6368 757.248 61.3367 756.93 62.9952Z" fill="#404040"/>
<path vector-effect="non-scaling-stroke" d="M756.474 57.9508C756.626 59.5678 756.557 61.2125 756.267 62.8156C756.197 63.1888 756.363 63.562 756.75 63.6725C757.082 63.7693 757.538 63.562 757.607 63.1888C757.925 61.4612 758.022 59.706 757.856 57.9508C757.828 57.5776 757.566 57.2598 757.165 57.2598C756.819 57.2598 756.446 57.5776 756.474 57.9508Z" fill="white"/>
<path vector-effect="non-scaling-stroke" d="M720.098 108.273C720.098 88.3842 736.959 72.4349 757.165 73.9414C773.695 75.1715 787.17 88.3013 788.801 104.79C789.866 115.611 785.913 125.535 778.989 132.514C772.382 139.176 768.457 145.575 768.457 154.96V158.373H740.622V155.029C740.622 145.824 737.097 139.356 730.505 132.929C724.092 126.682 720.098 117.947 720.098 108.273Z" fill="#202020" stroke="white" stroke-width="1.38378" stroke-miterlimit="10"/>
<path vector-effect="non-scaling-stroke" d="M768.373 161.995H740.663" stroke="white" stroke-width="1.38378" stroke-miterlimit="10"/>
<path vector-effect="non-scaling-stroke" d="M750.42 133.398L750.351 127.76L750.02 102.482L754.567 97.4648L759.072 102.426L758.754 133.357" fill="#404040"/>
<path vector-effect="non-scaling-stroke" d="M750.42 133.398L750.351 127.76L750.02 102.482L754.567 97.4648L759.072 102.426L758.754 133.357" stroke="white" stroke-width="1.38378" stroke-miterlimit="10"/>
<path vector-effect="non-scaling-stroke" d="M763.122 149.874H746.039V134.381C746.039 133.51 746.744 132.791 747.629 132.791H761.546C762.417 132.791 763.135 133.496 763.135 134.381V149.874H763.122Z" fill="#202020" stroke="white" stroke-width="1.38378" stroke-miterlimit="10"/>
<path vector-effect="non-scaling-stroke" d="M793.971 83.2715C793.183 83.8658 792.395 84.4462 791.607 85.0405Z" fill="#404040"/>
<path vector-effect="non-scaling-stroke" d="M793.625 82.6766C792.837 83.2709 792.049 83.8514 791.262 84.4457C791.109 84.5562 790.999 84.6668 790.944 84.8603C790.902 85.0261 790.916 85.2473 791.013 85.3993C791.11 85.5513 791.248 85.6757 791.427 85.7172C791.607 85.7586 791.814 85.7586 791.966 85.6481C792.754 85.0538 793.542 84.4733 794.33 83.879C794.482 83.7685 794.592 83.6579 794.648 83.4644C794.689 83.2986 794.675 83.0774 794.578 82.9254C794.482 82.7734 794.343 82.649 794.164 82.6075C793.984 82.5661 793.777 82.5661 793.625 82.6766Z" fill="white"/>
<path vector-effect="non-scaling-stroke" d="M714.942 109.973C713.505 109.903 712.054 109.821 710.616 109.751Z" fill="#404040"/>
<path vector-effect="non-scaling-stroke" d="M714.942 109.282C713.505 109.213 712.054 109.13 710.616 109.061C710.257 109.047 709.911 109.393 709.925 109.752C709.939 110.139 710.229 110.429 710.616 110.443C712.054 110.512 713.505 110.595 714.942 110.664C715.301 110.678 715.647 110.332 715.633 109.973C715.619 109.586 715.329 109.296 714.942 109.282Z" fill="white"/>
<path vector-effect="non-scaling-stroke" d="M723.94 139.785C723.207 140.379 722.488 140.973 721.756 141.568Z" fill="#404040"/>
<path vector-effect="non-scaling-stroke" d="M723.456 139.287C722.723 139.882 722.005 140.476 721.272 141.07C721.148 141.181 721.065 141.402 721.065 141.554C721.065 141.72 721.134 141.927 721.272 142.038C721.41 142.148 721.576 142.245 721.756 142.245C721.949 142.245 722.102 142.162 722.24 142.038C722.972 141.443 723.691 140.849 724.423 140.255C724.548 140.144 724.631 139.923 724.631 139.771C724.631 139.605 724.562 139.398 724.423 139.287C724.285 139.177 724.119 139.08 723.94 139.08C723.746 139.08 723.594 139.163 723.456 139.287Z" fill="white"/>
<path vector-effect="non-scaling-stroke" d="M723.249 66.769C724.175 67.8194 725.101 68.8836 726.027 69.934Z" fill="#404040"/>
<path vector-effect="non-scaling-stroke" d="M722.751 67.2523C723.677 68.3026 724.603 69.3668 725.529 70.4172C725.764 70.6936 726.262 70.6798 726.511 70.4172C726.773 70.1269 726.759 69.7262 726.511 69.4359C725.585 68.3856 724.659 67.3214 723.733 66.271C723.498 65.9946 723 66.0084 722.751 66.271C722.489 66.5612 722.503 66.962 722.751 67.2523Z" fill="white"/>
<path vector-effect="non-scaling-stroke" d="M801.309 113.331C799.72 113.193 798.144 113.068 796.555 112.93Z" fill="#404040"/>
<path vector-effect="non-scaling-stroke" d="M801.309 112.641C799.72 112.502 798.144 112.378 796.555 112.24C796.182 112.212 795.864 112.585 795.864 112.931C795.864 113.332 796.182 113.594 796.555 113.622C798.144 113.76 799.72 113.884 801.309 114.023C801.682 114.05 802 113.677 802 113.332C802 112.931 801.682 112.668 801.309 112.641Z" fill="white"/>
<path vector-effect="non-scaling-stroke" d="M785.457 139.094C786.313 140.02 787.17 140.946 788.027 141.872Z" fill="#404040"/>
<path vector-effect="non-scaling-stroke" d="M784.973 139.578C785.83 140.504 786.687 141.43 787.543 142.356C787.792 142.618 788.276 142.618 788.525 142.356C788.787 142.065 788.787 141.665 788.525 141.374C787.668 140.448 786.811 139.522 785.954 138.596C785.705 138.334 785.222 138.334 784.973 138.596C784.71 138.887 784.71 139.287 784.973 139.578Z" fill="white"/>
<path vector-effect="non-scaling-stroke" d="M740.649 149.874V172.705C740.649 173.369 741.188 173.894 741.838 173.894H767.295C767.945 173.894 768.484 173.369 768.484 172.705V149.874H740.649Z" fill="#404040" stroke="white" stroke-width="1.38378" stroke-miterlimit="10"/>
<path vector-effect="non-scaling-stroke" d="M747.131 173.895C747.781 177.419 750.863 180.072 754.581 180.072C758.298 180.072 761.366 177.405 762.016 173.895H747.131Z" fill="#404040" stroke="white" stroke-width="1.38378" stroke-miterlimit="10"/>
<path vector-effect="non-scaling-stroke" d="M759.072 102.426L756.723 105.564L754.539 102.993L752.493 105.688L750.02 102.482" fill="#404040"/>
<path vector-effect="non-scaling-stroke" d="M759.072 102.426L756.723 105.564L754.539 102.993L752.493 105.688L750.02 102.482" stroke="white" stroke-width="1.38378" stroke-miterlimit="10"/>
<path vector-effect="non-scaling-stroke" d="M756.902 99.8008H752.452" stroke="white" stroke-width="1.38378" stroke-miterlimit="10"/>
<path vector-effect="non-scaling-stroke" d="M756.723 105.563L756.225 127.469" stroke="white" stroke-width="1.38378" stroke-miterlimit="10"/>
<path vector-effect="non-scaling-stroke" d="M752.494 105.688L753.157 127.47" stroke="white" stroke-width="1.38378" stroke-miterlimit="10"/>
<path vector-effect="non-scaling-stroke" d="M758.81 127.47L750.352 127.76" stroke="white" stroke-width="1.38378" stroke-miterlimit="10"/>
<path vector-effect="non-scaling-stroke" d="M114.534 291.455H1.31294C1.0227 291.455 0.773926 291.179 0.773926 290.847V198.441C0.773926 198.109 1.00888 197.833 1.31294 197.833H114.534C114.824 197.833 115.073 198.109 115.073 198.441V290.847C115.073 291.179 114.838 291.455 114.534 291.455Z" fill="#020202" stroke="white" stroke-width="1.38378" stroke-miterlimit="10"/>
<path vector-effect="non-scaling-stroke" d="M53.4034 260.883H41.6421V276.694H53.4034V260.883Z" fill="#A2A2A0" stroke="white" stroke-width="1.38378" stroke-miterlimit="10"/>
<path vector-effect="non-scaling-stroke" d="M74.19 249.177H62.4287V276.694H74.19V249.177Z" fill="#020202" stroke="white" stroke-width="1.38378" stroke-linejoin="round"/>
<path vector-effect="non-scaling-stroke" d="M94.9903 236.089H83.229V276.694H94.9903V236.089Z" fill="#404040" stroke="white" stroke-width="1.38378" stroke-miterlimit="10"/>
<path vector-effect="non-scaling-stroke" d="M19.9712 262.044C19.9721 262.044 19.9729 262.044 19.9738 262.044H19.9736H19.9736H19.9736H19.9735H19.9735H19.9735H19.9734H19.9734H19.9734H19.9733H19.9733H19.9733H19.9732H19.9732H19.9732H19.9731H19.9731H19.9731H19.973H19.973H19.973H19.973H19.9729H19.9729H19.9729H19.9728H19.9728H19.9728H19.9727H19.9727H19.9727H19.9727H19.9726H19.9726H19.9726H19.9725H19.9725H19.9725H19.9725H19.9724H19.9724H19.9724H19.9724H19.9723H19.9723H19.9723H19.9723H19.9722H19.9722H19.9722H19.9722H19.9721H19.9721H19.9721H19.9721H19.9721H19.972H19.972H19.972H19.972H19.972H19.9719H19.9719H19.9719H19.9719H19.9719H19.9718H19.9718H19.9718H19.9718H19.9718H19.9717H19.9717H19.9717H19.9717H19.9717H19.9717H19.9716H19.9716H19.9716H19.9716H19.9715H19.9715H19.9715H19.9715H19.9714H19.9714H19.9714H19.9714H19.9714H19.9713H19.9713H19.9713H19.9713H19.9713H19.9713H19.9712Z" stroke="white" stroke-width="1.38378" stroke-miterlimit="10"/>
<path vector-effect="non-scaling-stroke" d="M115.805 384.346H0.690918V420.736H115.805V384.346Z" fill="#202020" stroke="white" stroke-width="1.38378" stroke-miterlimit="10"/>
<path vector-effect="non-scaling-stroke" d="M115.805 347.955H0.690918V384.345H115.805V347.955Z" fill="#020202" stroke="white" stroke-width="1.38378" stroke-miterlimit="10"/>
<path vector-effect="non-scaling-stroke" d="M115.805 316.375H0.690918V352.765H115.805V316.375Z" fill="#202020" stroke="white" stroke-width="1.38378" stroke-miterlimit="10"/>
<path vector-effect="non-scaling-stroke" d="M96.6631 338.64C98.4875 338.64 99.9801 336.815 99.9801 334.562C99.9801 332.31 98.5013 330.485 96.6631 330.485C94.825 330.485 93.3462 332.31 93.3462 334.562C93.3462 336.815 94.825 338.64 96.6631 338.64Z" fill="#020202" stroke="white" stroke-width="1.38378" stroke-miterlimit="10"/>
<path vector-effect="non-scaling-stroke" d="M96.6631 372.625C98.4875 372.625 99.9801 370.801 99.9801 368.548C99.9801 366.295 98.5013 364.471 96.6631 364.471C94.825 364.471 93.3462 366.295 93.3462 368.548C93.3462 370.801 94.825 372.625 96.6631 372.625Z" fill="#020202" stroke="white" stroke-width="1.38378" stroke-miterlimit="10"/>
<path vector-effect="non-scaling-stroke" d="M96.6631 406.611C98.4875 406.611 99.9801 404.786 99.9801 402.534C99.9801 400.281 98.5013 398.457 96.6631 398.457C94.825 398.457 93.3462 400.281 93.3462 402.534C93.3462 404.786 94.825 406.611 96.6631 406.611Z" fill="#020202" stroke="white" stroke-width="1.38378" stroke-miterlimit="10"/>
<path vector-effect="non-scaling-stroke" d="M16.2808 334.562H77.6042" stroke="white" stroke-width="1.38378" stroke-miterlimit="10"/>
<path vector-effect="non-scaling-stroke" d="M16.2808 368.548H77.6042" stroke="white" stroke-width="1.38378" stroke-miterlimit="10"/>
<path vector-effect="non-scaling-stroke" d="M16.2808 402.562H77.6042" stroke="white" stroke-width="1.38378" stroke-miterlimit="10"/>
<path vector-effect="non-scaling-stroke" d="M309.326 392.79H191.503V456.104H271.512L293.501 478.079V456.104H309.326V392.79Z" fill="#020202" stroke="white" stroke-width="1.38378" stroke-miterlimit="10"/>
<path vector-effect="non-scaling-stroke" d="M229.682 334.623H358.134V417.258H270.896L246.931 441.21V417.258H229.682V334.623Z" fill="#020202" stroke="white" stroke-width="1.38378" stroke-miterlimit="10"/>
<path vector-effect="non-scaling-stroke" d="M293.833 291.456H156.149V365.439H249.647L275.34 391.118V365.439H293.833V291.456Z" fill="black" stroke="white" stroke-width="1.38378" stroke-miterlimit="10"/>
<path vector-effect="non-scaling-stroke" d="M99.9805 141.54L110.761 115.654L177.461 101.266L197.957 120.394L160.82 185.878L99.9805 141.54Z" fill="#020202" stroke="white" stroke-width="1.38378"/>
<path vector-effect="non-scaling-stroke" d="M150.233 107.139L168.421 126.765L160.82 185.877" fill="#020202"/>
<path vector-effect="non-scaling-stroke" d="M150.233 107.139L168.421 126.765L160.82 185.877" stroke="white" stroke-width="1.38378"/>
<path vector-effect="non-scaling-stroke" d="M160.82 185.877L130.027 135.057L137.988 109.779" fill="#020202"/>
<path vector-effect="non-scaling-stroke" d="M160.82 185.877L130.027 135.057L137.988 109.779" stroke="white" stroke-width="1.38378"/>
<path vector-effect="non-scaling-stroke" d="M99.9805 141.54L197.957 120.394" stroke="white" stroke-width="1.38378"/>
<path vector-effect="non-scaling-stroke" d="M130.026 135.057L110.76 115.653" stroke="white" stroke-width="1.38378"/>
<path vector-effect="non-scaling-stroke" d="M168.422 126.765L177.461 101.266" stroke="white" stroke-width="1.38378"/>
<path vector-effect="non-scaling-stroke" d="M141.844 97.9764L139.135 85.4135L138.679 83.2852" fill="#020202"/>
<path vector-effect="non-scaling-stroke" d="M141.844 97.9764L139.135 85.4135L138.679 83.2852" stroke="white" stroke-width="1.38378"/>
<path vector-effect="non-scaling-stroke" d="M125.452 101.514L116.179 92.5444" stroke="white" stroke-width="1.38378"/>
<path vector-effect="non-scaling-stroke" d="M162.99 82.4414L158.235 94.4377" stroke="white" stroke-width="1.38378"/>
<path vector-effect="non-scaling-stroke" d="M248.512 219.614C250.917 230.187 248.802 240.732 243.44 249.246L210.215 228.307L248.512 219.614Z" fill="black" stroke="white" stroke-width="1.38378" stroke-miterlimit="10"/>
<path vector-effect="non-scaling-stroke" d="M248.514 219.614L210.216 228.307L201.522 190.009C222.668 185.214 243.718 198.454 248.527 219.614H248.514Z" fill="black" stroke="white" stroke-width="1.38378" stroke-miterlimit="10"/>
<path vector-effect="non-scaling-stroke" d="M243.428 249.232C238.065 257.732 229.468 264.186 218.895 266.591C197.736 271.401 176.7 258.146 171.904 237C167.095 215.841 180.349 194.805 201.509 189.996L210.202 228.293L243.428 249.232Z" fill="black" stroke="white" stroke-width="1.38378" stroke-miterlimit="10"/>
</g>
<defs>
<clipPath id="clip0_20_10418">
<rect width="802" height="507.379" fill="white"/>
</clipPath>
</defs>
</svg>
